<?xml version="1.0" standalone="no"?>
<!DOCTYPE svg PUBLIC "-//W3C//DTD SVG 1.1//EN" "http://www.w3.org/Graphics/SVG/1.1/DTD/svg11.dtd" >
<svg xmlns="http://www.w3.org/2000/svg" xmlns:xlink="http://www.w3.org/1999/xlink" version="1.1">
<metadata>
Created by FontForge 20150824 at Tue Oct 18 21:53:34 2016
 By Everything Fonts
Copyright (c) 2012 by Oleg Pospelov and jovanny Lemonad. All rights reserved.
</metadata>
<defs>
<font id="Oranienbaum" horiz-adv-x="505" >
  <font-face 
    font-family="Oranienbaum"
    font-weight="400"
    font-stretch="normal"
    units-per-em="1000"
    panose-1="2 0 5 6 8 0 0 2 0 3"
    ascent="800"
    descent="-200"
    x-height="460"
    cap-height="700"
    bbox="-70 -260 1295 895"
    underline-thickness="50"
    underline-position="-100"
    unicode-range="U+0020-2122"
  />
<missing-glyph horiz-adv-x="240" 
 />
    <glyph glyph-name=".notdef" horiz-adv-x="240" 
 />
    <glyph glyph-name="afii10019" unicode="&#x412;" 
d="M45 0v10l60 15v650l-60 15v10h180q47 0 81.5 -10.5t57.5 -29t34.5 -43t11.5 -52.5q0 -22 -6.5 -39t-17 -29.5t-24 -22t-27.5 -15.5q-33 -15 -75 -19q62 -6 110 -31q21 -11 40.5 -26.5t35 -38t25 -52t9.5 -67.5q0 -47 -18 -88t-51.5 -71.5t-80.5 -48t-105 -17.5h-180z
M190 430v-410h35q34 0 63 13t50.5 39t34 64t12.5 89t-12.5 89t-34 64t-50.5 39t-63 13h-35zM190 450h35q45 1 72.5 29.5t27.5 85.5t-27.5 86t-72.5 29h-35v-230z" />
    <glyph glyph-name="afii10020" unicode="&#x413;" horiz-adv-x="455" 
d="M190 25l60 -15v-10h-205v10l60 15v650l-60 15v10h385q-2 -9 -3 -21q-1 -11 -1.5 -25.5t-0.5 -33.5q0 -14 0.5 -27.5t1.5 -25.5q1 -14 3 -27h-10q-26 26 -43 62t-17 78h-170v-655z" />
    <glyph glyph-name="afii10021" unicode="&#x414;" horiz-adv-x="545" 
d="M80 0q0 -49 -18 -89t-52 -66h-10q1 14 2 30q1 13 2 29t1 31q0 17 -1 32t-2 27q-1 14 -2 26h70q24 30 42 85q16 47 29.5 125.5t13.5 199.5v240l-65 20v10h405v-10l-60 -15v-655h80q-2 -12 -3 -26q-1 -12 -1.5 -27t-0.5 -32q0 -15 0.5 -31t1.5 -29q1 -16 3 -30h-10
q-34 26 -52 66t-18 89h-355zM175 430q0 -121 -12.5 -199.5t-27.5 -125.5q-18 -55 -40 -85h255v660h-175v-250z" />
    <glyph glyph-name="afii10022" unicode="&#x415;" 
d="M390 20q0 42 17 78t43 62h10q-2 -13 -3 -27q-1 -12 -1.5 -26t-0.5 -27q0 -19 0.5 -33.5t1.5 -25.5q1 -12 3 -21h-415v10l60 15v650l-60 15v10h405q-2 -9 -3 -21q-1 -11 -1.5 -25.5t-0.5 -33.5q0 -14 0.5 -27.5t1.5 -25.5q1 -14 3 -27h-10q-26 26 -43 62t-17 78h-190v-300
h95l45 90h10v-200h-10l-45 90h-95v-340h200z" />
    <glyph glyph-name="afii10023" unicode="&#x401;" 
d="M390 20q0 42 17 78t43 62h10q-2 -13 -3 -27q-1 -12 -1.5 -26t-0.5 -27q0 -19 0.5 -33.5t1.5 -25.5q1 -12 3 -21h-415v10l60 15v650l-60 15v10h405q-2 -9 -3 -21q-1 -11 -1.5 -25.5t-0.5 -33.5q0 -14 0.5 -27.5t1.5 -25.5q1 -14 3 -27h-10q-26 26 -43 62t-17 78h-190v-300
h95l45 90h10v-200h-10l-45 90h-95v-340h200zM235 810q0 -19 -15.5 -34.5t-34.5 -15.5t-34.5 15.5t-15.5 34.5t15.5 34.5t34.5 15.5t34.5 -15.5t15.5 -34.5zM400 810q0 -19 -15.5 -34.5t-34.5 -15.5t-34.5 15.5t-15.5 34.5t15.5 34.5t34.5 15.5t34.5 -15.5t15.5 -34.5z" />
    <glyph glyph-name="afii10024" unicode="&#x416;" horiz-adv-x="775" 
d="M285 10l60 15v225l-48 104l-166 -329l60 -15v-10h-211v10l60 15l214 424l-54 116q-15 32 -40 51t-70 19q-8 0 -14 -1t-11 -2l-10 -2l15 75q5 1 9 2l8 2t8 1q15 0 29 -6.5t28.5 -23t31 -44.5t36.5 -71l125 -270v380l-60 15v10h205v-10l-60 -15v-380l125 270q20 43 36.5 71
t31 44.5t28.5 23t29 6.5q4 0 8 -1l8 -2t9 -2l15 -75l-10 2t-11 2t-14 1q-45 0 -70 -19t-40 -51l-54 -116l214 -424l60 -15v-10h-211v10l60 15l-166 329l-48 -104v-225l60 -15v-10h-205v10z" />
    <glyph glyph-name="afii10025" unicode="&#x417;" horiz-adv-x="465" 
d="M230 715q37 0 68.5 -12.5t54 -34t35 -50.5t12.5 -63q0 -26 -6.5 -46.5t-17 -36t-24 -27t-27.5 -18.5q-33 -18 -75 -22q52 -5 92 -29q17 -10 34 -25t30 -36.5t21 -50t8 -64.5q0 -45 -17 -84t-47 -68.5t-71 -46t-90 -16.5q-41 0 -76 14t-60.5 37.5t-39.5 54t-14 64.5
q0 79 29.5 114.5t70.5 35.5q5 0 10.5 -1t10.5 -2t9 -2l-20 -80q-90 0 -90 -85q0 -23 12.5 -46t34 -41.5t50.5 -30.5t63 -12q60 0 100 47t40 148t-40 148t-100 47h-30v20h30q49 0 82 36t33 104q0 34 -8.5 60t-22 44t-30.5 27t-34 9q-45 0 -83.5 -43.5t-61.5 -126.5h-15
q1 15 2 31q1 14 2 30.5t1 33.5q0 15 -1 30.5t-2 29.5l-2 30h15q15 -4 28.5 -17.5t21.5 -28.5q12 14 28 25q14 10 33 18t44 8z" />
    <glyph glyph-name="afii10026" unicode="&#x418;" horiz-adv-x="585" 
d="M190 130v-105l60 -15v-10h-205v10l60 15v650l-60 15v10h205v-10l-60 -15v-505l205 410v95l-60 15v10h205v-10l-60 -15v-650l60 -15v-10h-205v10l60 15v515z" />
    <glyph glyph-name="afii10027" unicode="&#x419;" horiz-adv-x="585" 
d="M190 130v-105l60 -15v-10h-205v10l60 15v650l-60 15v10h205v-10l-60 -15v-505l205 410v95l-60 15v10h205v-10l-60 -15v-650l60 -15v-10h-205v10l60 15v515zM295 780q19 0 32 14.5t13 40.5q0 8 -1 14.5t-2 12.5t-2 13h70q1 -4 2 -9t2 -10.5t1 -10.5q0 -34 -27.5 -57
t-87.5 -23t-87.5 23t-27.5 57q0 5 0.5 10.5t1.5 10.5t3 9h70q-2 -7 -3 -13t-1.5 -12.5t-0.5 -14.5q0 -26 13 -40.5t32 -14.5z" />
    <glyph glyph-name="afii10028" unicode="&#x41a;" horiz-adv-x="540" 
d="M190 252v-227l60 -15v-10h-205v10l60 15v650l-60 15v10h205v-10l-60 -15v-380l125 270q20 43 36.5 71t31 44.5t28.5 23t29 6.5q4 0 8 -1l8 -2t9 -2l15 -75l-10 2t-11 2t-14 1q-45 0 -70.5 -20t-39.5 -50l-50 -110l215 -430l60 -15v-10h-211v10l60 15l-168 336z" />
    <glyph glyph-name="afii10029" unicode="&#x41b;" horiz-adv-x="535" 
d="M160 430q0 -97 -4.5 -168.5t-13 -121.5t-20.5 -81.5t-26 -49t-29.5 -23.5t-31.5 -6q-6 0 -11 0.5t-10 1.5t-9 3l-15 75q4 -2 9 -3t10 -1.5t11 -0.5q26 0 48 13t38 52.5t25 113.5t9 196v240l-65 20v10h415v-10l-60 -15v-650l60 -15v-10h-205v10l60 15v655h-185v-250z" />
    <glyph glyph-name="afii10030" unicode="&#x41c;" horiz-adv-x="785" 
d="M600 700h140v-10l-60 -15v-650l60 -15v-10h-205v10l60 15v590l-215 -630h-15l-240 630v-580l65 -25v-10h-150v10l65 25v635l-65 20v10h145l219 -575z" />
    <glyph glyph-name="afii10031" unicode="&#x41d;" horiz-adv-x="585" 
d="M190 360v-335l60 -15v-10h-205v10l60 15v650l-60 15v10h205v-10l-60 -15v-295h205v295l-60 15v10h205v-10l-60 -15v-650l60 -15v-10h-205v10l60 15v335h-205z" />
    <glyph glyph-name="afii10032" unicode="&#x41e;" horiz-adv-x="550" 
d="M510 350q0 -92 -20.5 -160.5t-54 -114t-75.5 -68t-85 -22.5t-85 22.5t-75.5 68t-54 114t-20.5 160.5t20.5 160.5t54 114t75.5 68t85 22.5t85 -22.5t75.5 -68t54 -114t20.5 -160.5zM415 350q0 103 -12.5 170.5t-33 107.5t-45.5 56t-49 16t-49 -16t-45.5 -56t-33 -107.5
t-12.5 -170.5t12.5 -170.5t33 -107.5t45.5 -56t49 -16t49 16t45.5 56t33 107.5t12.5 170.5z" />
    <glyph glyph-name="afii10033" unicode="&#x41f;" horiz-adv-x="585" 
d="M250 10v-10h-205v10l60 15v650l-60 15v10h495v-10l-60 -15v-650l60 -15v-10h-205v10l60 15v655h-205v-655z" />
    <glyph glyph-name="afii10034" unicode="&#x420;" 
d="M190 250v-225l60 -15v-10h-205v10l60 15v650l-60 15v10h180q62 0 110.5 -17t81.5 -47t50.5 -71t17.5 -90t-17.5 -90t-50.5 -71t-81.5 -47t-110.5 -17h-35zM190 270h35q79 0 122 48t43 157t-43 157t-122 48h-35v-410z" />
    <glyph glyph-name="afii10035" unicode="&#x421;" horiz-adv-x="490" 
d="M285 695q-28 0 -55 -16t-48 -55.5t-34 -106t-13 -167.5t13 -167.5t35 -106t51 -55.5t61 -16q26 0 53 14t49.5 39t38 59t19.5 73h15q-4 -45 -20 -82.5t-40.5 -65t-56.5 -42.5t-68 -15q-47 0 -91 22.5t-78.5 68t-55 114t-20.5 160.5t20.5 160.5t54 114t75.5 68t85 22.5
q24 0 43.5 -8t33.5 -18q16 -11 28 -25q8 15 21.5 28.5t28.5 17.5h15q-2 -15 -3 -30q-1 -14 -1.5 -29.5t-0.5 -30.5q0 -17 0.5 -33.5t1.5 -30.5q1 -16 3 -31h-15q-23 83 -61.5 126.5t-83.5 43.5z" />
    <glyph glyph-name="afii10036" unicode="&#x422;" horiz-adv-x="495" 
d="M290 25l60 -15v-10h-205v10l60 15v655h-105q0 -42 -17 -78t-43 -62h-10q1 13 2 27q1 12 2 25.5t1 27.5q0 19 -1 33.5t-2 25.5q-1 12 -2 21h435q-2 -9 -3 -21q-1 -11 -1.5 -25.5t-0.5 -33.5q0 -14 0.5 -27.5t1.5 -25.5q1 -14 3 -27h-10q-26 26 -43 62t-17 78h-105v-655z
" />
    <glyph glyph-name="afii10037" unicode="&#x423;" horiz-adv-x="490" 
d="M299 252l126 413l-65 25v10h150v-10l-65 -25l-167 -545q-14 -45 -29 -75.5t-32 -49.5t-37.5 -27t-44.5 -8q-6 0 -11 0.5t-10 1.5t-9 3l-15 70q4 -2 9 -3t10 -1.5t11 -0.5q64 0 94 24t44 66l-208 555l-60 15v10h210v-10l-60 -15z" />
    <glyph glyph-name="afii10038" unicode="&#x424;" horiz-adv-x="715" 
d="M400 15l60 -15v-10h-205v10l60 15v55q-64 4 -117 27t-91.5 61.5t-60 90t-21.5 111.5t21.5 111.5t60 90t91.5 61.5t117 27v35l-60 15v10h205v-10l-60 -15v-35q64 -4 117 -27t91.5 -61.5t60 -90t21.5 -111.5t-21.5 -111.5t-60 -90t-91.5 -61.5t-117 -27v-55zM595 360
q0 67 -14.5 116.5t-40 82.5t-61.5 50.5t-79 21.5v-541q43 4 79 21t61.5 50t40 82t14.5 117zM120 360q0 -68 14.5 -117t40 -82t61.5 -50t79 -21v541q-43 -4 -79 -21.5t-61.5 -50.5t-40 -82.5t-14.5 -116.5z" />
    <glyph glyph-name="afii10039" unicode="&#x425;" horiz-adv-x="500" 
d="M216 326l-161 349l-60 15v10h215v-10l-60 -15l115 -250l120 240l-65 25v10h150v-10l-65 -25l-130 -261l175 -379l60 -15v-10h-215v10l60 15l-130 281l-135 -271l65 -25v-10h-150v10l65 25z" />
    <glyph glyph-name="afii10040" unicode="&#x426;" horiz-adv-x="585" 
d="M45 0v10l60 15v650l-60 15v10h205v-10l-60 -15v-655h205v655l-60 15v10h205v-10l-60 -15v-655h95q-2 -12 -3 -26q-1 -12 -1.5 -27t-0.5 -32q0 -15 0.5 -31t1.5 -29q1 -16 3 -30h-10q-34 26 -52 66t-18 89h-450z" />
    <glyph glyph-name="afii10041" unicode="&#x427;" horiz-adv-x="555" 
d="M365 325q-15 -10 -33 -18q-16 -7 -37 -12t-45 -5q-87 0 -131 41.5t-44 113.5v230l-60 15v10h205v-10l-60 -15v-230q0 -72 27.5 -103.5t72.5 -31.5q20 0 39.5 5t33.5 12q17 8 32 18v330l-60 15v10h205v-10l-60 -15v-650l60 -15v-10h-205v10l60 15v300z" />
    <glyph glyph-name="afii10042" unicode="&#x428;" horiz-adv-x="815" 
d="M450 675v-655h175v655l-60 15v10h205v-10l-60 -15v-650l60 -15v-10h-725v10l60 15v650l-60 15v10h205v-10l-60 -15v-655h175v655l-60 15v10h205v-10z" />
    <glyph glyph-name="afii10043" unicode="&#x429;" horiz-adv-x="815" 
d="M45 0v10l60 15v650l-60 15v10h205v-10l-60 -15v-655h175v655l-60 15v10h205v-10l-60 -15v-655h175v655l-60 15v10h205v-10l-60 -15v-655h95q-2 -12 -3 -26q-1 -12 -1.5 -27t-0.5 -32q0 -15 0.5 -31t1.5 -29q1 -16 3 -30h-10q-34 26 -52 66t-18 89h-680z" />
    <glyph glyph-name="afii10044" unicode="&#x42a;" horiz-adv-x="580" 
d="M300 430q62 0 110.5 -16.5t81.5 -46t50.5 -68.5t17.5 -84t-17.5 -84t-50.5 -68.5t-81.5 -46t-110.5 -16.5h-180v10l60 15v655h-100q0 -42 -17 -78t-43 -62h-10q1 13 2 27q1 12 2 25.5t1 27.5q0 19 -1 33.5t-2 25.5q-1 12 -2 21h320v-10l-65 -20v-240h35zM265 20h35
q79 0 122 46.5t43 148.5t-43 148.5t-122 46.5h-35v-390z" />
    <glyph glyph-name="afii10045" unicode="&#x42b;" horiz-adv-x="750" 
d="M655 25l60 -15v-10h-205v10l60 15v650l-60 15v10h205v-10l-60 -15v-650zM225 430q62 0 110.5 -16.5t81.5 -46t50.5 -68.5t17.5 -84t-17.5 -84t-50.5 -68.5t-81.5 -46t-110.5 -16.5h-180v10l60 15v650l-60 15v10h205v-10l-60 -15v-245h35zM190 20h35q79 0 122 46.5
t43 148.5t-43 148.5t-122 46.5h-35v-390z" />
    <glyph glyph-name="afii10049" unicode="&#x42f;" horiz-adv-x="550" 
d="M505 700v-10l-60 -15v-650l60 -15v-10h-205v10l60 15v325h-40q-34 0 -58 -7t-39.5 -22t-24.5 -38.5t-13 -57.5l-20 -175q-3 -26 -24.5 -45.5t-55.5 -19.5q-21 0 -35 7t-23 15q-11 10 -17 23l10 10q4 -8 9 -13t10 -8.5t11 -3.5q9 0 16 8t9 27l20 175q5 46 32 73t58 41
q36 16 80 21q-55 5 -98 24q-18 8 -35.5 20t-31 29.5t-22 40t-8.5 51.5q0 36 15 67.5t46 55.5t78 38t111 14h185zM165 525q0 -75 40 -115t115 -40h40v310h-40q-75 0 -115 -40t-40 -115z" />
    <glyph glyph-name="afii10046" unicode="&#x42c;" 
d="M225 430q62 0 110.5 -16.5t81.5 -46t50.5 -68.5t17.5 -84t-17.5 -84t-50.5 -68.5t-81.5 -46t-110.5 -16.5h-180v10l60 15v650l-60 15v10h205v-10l-60 -15v-245h35zM190 20h35q79 0 122 46.5t43 148.5t-43 148.5t-122 46.5h-35v-390z" />
    <glyph glyph-name="afii10047" unicode="&#x42d;" horiz-adv-x="490" 
d="M205 695q-45 0 -83.5 -43.5t-61.5 -126.5h-15q1 15 2 31q1 14 2 30.5t1 33.5q0 15 -1 30.5t-2 29.5l-2 30h15q15 -4 28.5 -17.5t21.5 -28.5q12 14 28 25q14 10 33 18t44 8q43 0 85 -22.5t75.5 -68t54 -114t20.5 -160.5t-20.5 -160.5t-55 -114t-78.5 -68t-91 -22.5
q-36 0 -68 15t-56.5 42.5t-40.5 65t-20 82.5h15q4 -38 19 -71.5t37 -58.5t49 -40t55 -15q32 0 61 16t51 55.5t35 106t13 167.5h-110l-45 -90h-10v200h10l45 -90h110q-2 96 -15 158.5t-33.5 99.5t-47 52t-54.5 15z" />
    <glyph glyph-name="afii10048" unicode="&#x42e;" horiz-adv-x="795" 
d="M190 360h95q2 90 22.5 156.5t53.5 111t74.5 66t84.5 21.5t85 -22.5t75.5 -68t54 -114t20.5 -160.5t-20.5 -160.5t-54 -114t-75.5 -68t-85 -22.5t-85 22.5t-75.5 67t-54 111t-20.5 154.5h-95v-315l60 -15v-10h-205v10l60 15v650l-60 15v10h205v-10l-60 -15v-315zM660 350
q0 103 -12.5 170.5t-33 107.5t-45.5 56t-49 16t-49 -16t-45.5 -56t-33 -107.5t-12.5 -170.5t12.5 -170.5t33 -107.5t45.5 -56t49 -16t49 16t45.5 56t33 107.5t12.5 170.5z" />
    <glyph glyph-name="afii10146" unicode="&#x462;" horiz-adv-x="570" 
d="M290 410q62 0 110.5 -16.5t81.5 -44.5t50.5 -65.5t17.5 -78.5t-17.5 -78.5t-50.5 -65.5t-81.5 -44.5t-110.5 -16.5h-180v10l60 15v565h-90q0 -42 -17 -78t-43 -62h-10q1 13 2 27q1 12 2 25.5t1 27.5q0 19 -1 33.5t-2 25.5q-1 12 -2 21h160v75l-60 15v10h205v-10l-60 -15
v-75h170q-2 -9 -3 -21q-1 -11 -1.5 -25.5t-0.5 -33.5q0 -14 0.5 -27.5t1.5 -25.5q1 -14 3 -27h-10q-26 26 -43 62t-17 78h-100v-180h35zM255 20h35q79 0 122 45.5t43 139.5t-43 139.5t-122 45.5h-35v-370z" />
    <glyph glyph-name="afii10147" unicode="&#x472;" horiz-adv-x="550" 
d="M510 350q0 -92 -20.5 -160.5t-54 -114t-75.5 -68t-85 -22.5t-85 22.5t-75.5 68t-54 114t-20.5 160.5t20.5 160.5t54 114t75.5 68t85 22.5t85 -22.5t75.5 -68t54 -114t20.5 -160.5zM275 700q-24 0 -49 -16t-45.5 -55t-33 -104.5t-12.5 -164.5h280q0 99 -12.5 164.5
t-33 104.5t-45.5 55t-49 16zM275 0q24 0 49 16t45.5 55t33 104.5t12.5 164.5h-280q0 -99 12.5 -164.5t33 -104.5t45.5 -55t49 -16z" />
    <glyph glyph-name="afii10065" unicode="&#x430;" horiz-adv-x="465" 
d="M300 245q-87 0 -128.5 -38.5t-41.5 -106.5q0 -45 22 -70t48 -25q24 0 42.5 14t31.5 31q15 19 26 45v150zM225 460q-30 0 -50 -20.5t-20 -54.5q0 -8 0.5 -14t1.5 -11t3 -10l-80 -20q-2 3 -3 8t-1.5 11t-0.5 16q0 21 10 40.5t29.5 35t47 25t63.5 9.5q72 0 113.5 -41
t41.5 -109v-300l60 -15v-10h-140v60q-11 -21 -28 -38q-14 -14 -35.5 -25.5t-51.5 -11.5q-72 0 -108.5 34t-36.5 91q0 28 15.5 56t47 50t80.5 35.5t117 13.5v60q0 75 -22.5 105t-52.5 30z" />
    <glyph glyph-name="afii10066" unicode="&#x431;" horiz-adv-x="460" 
d="M235 445q37 0 71.5 -16.5t61 -46.5t42 -72.5t15.5 -94.5q0 -53 -15.5 -95.5t-42 -72.5t-61 -46t-71.5 -16q-38 0 -72 16.5t-60.5 47.5t-42 75.5t-15.5 100.5v85q0 87 23 142t58 89t77 53t81 35.5t69.5 36t41.5 54.5h15q0 -47 -14 -78t-37 -52t-52 -35t-59.5 -26.5
t-59.5 -27t-52 -36t-37 -54t-14 -81.5q15 31 36 57q18 22 46 40t68 18zM135 215q0 -60 9.5 -101t24 -66.5t32 -36.5t34.5 -11t34.5 11t32 36.5t24 66.5t9.5 101q0 58 -9.5 98t-24 65t-32 36t-34.5 11t-34.5 -11t-32 -36t-24 -65t-9.5 -98z" />
    <glyph glyph-name="afii10067" unicode="&#x432;" horiz-adv-x="450" 
d="M35 10l60 15v410l-60 15v10h175q45 0 77 -8.5t53 -23t30.5 -33.5t9.5 -40q0 -32 -21 -50.5t-47 -28.5q-30 -11 -67 -16q48 -4 87 -19q16 -6 32 -15.5t28.5 -22.5t20 -30t7.5 -38q0 -26 -12.5 -50.5t-38 -43.5t-65.5 -30t-94 -11h-175v10zM175 440v-170h35q90 0 90 85
t-90 85h-35zM175 20h35q57 0 88.5 31t31.5 84t-31.5 84t-88.5 31h-35v-230z" />
    <glyph glyph-name="afii10068" unicode="&#x433;" horiz-adv-x="400" 
d="M175 440v-415l60 -15v-10h-200v10l60 15v410l-60 15v10h340q-2 -10 -3 -21q-1 -10 -1.5 -23.5t-0.5 -30.5q0 -11 0.5 -24.5t1.5 -24.5q1 -13 3 -26h-10q-26 23 -43 55.5t-17 74.5h-130z" />
    <glyph glyph-name="afii10069" unicode="&#x434;" horiz-adv-x="485" 
d="M64 20q22 29 40 69q15 35 28 87t13 124v130l-65 20v10h360v-10l-60 -15v-415h75q-2 -10 -3 -22q-1 -11 -1.5 -27t-0.5 -36q0 -15 0.5 -29.5t1.5 -25.5q1 -13 3 -25h-10q-26 23 -45.5 59.5t-19.5 85.5h-305q0 -49 -19.5 -85.5t-45.5 -59.5h-10q1 12 2 25q1 11 2 25.5
t1 29.5q0 20 -1 36t-2 27q-1 12 -2 22h64zM300 20v420h-135v-140q0 -72 -12 -124t-26 -87q-17 -40 -38 -69h211z" />
    <glyph glyph-name="afii10070" unicode="&#x435;" horiz-adv-x="445" 
d="M135 230q0 -64 9.5 -107t25 -69.5t35 -37.5t40.5 -11q26 0 49 10t41 27t29.5 41t15.5 52h15q-4 -32 -17.5 -59.5t-34.5 -47.5t-48.5 -31.5t-59.5 -11.5q-38 0 -72 16.5t-60.5 48t-42 77t-15.5 103.5q0 60 15 106t39.5 76.5t57 46.5t68.5 16t68.5 -16t57 -46.5t39.5 -76.5
t15 -106h-270zM225 460q-15 0 -30 -9.5t-28 -33.5t-21.5 -64.5t-10.5 -102.5h180q-2 62 -10.5 102.5t-21.5 64.5t-28 33.5t-30 9.5z" />
    <glyph glyph-name="afii10071" unicode="&#x451;" horiz-adv-x="445" 
d="M135 230q0 -64 9.5 -107t25 -69.5t35 -37.5t40.5 -11q26 0 49 10t41 27t29.5 41t15.5 52h15q-4 -32 -17.5 -59.5t-34.5 -47.5t-48.5 -31.5t-59.5 -11.5q-38 0 -72 16.5t-60.5 48t-42 77t-15.5 103.5q0 60 15 106t39.5 76.5t57 46.5t68.5 16t68.5 -16t57 -46.5t39.5 -76.5
t15 -106h-270zM225 460q-15 0 -30 -9.5t-28 -33.5t-21.5 -64.5t-10.5 -102.5h180q-2 62 -10.5 102.5t-21.5 64.5t-28 33.5t-30 9.5zM195 570q0 -19 -15.5 -34.5t-34.5 -15.5t-34.5 15.5t-15.5 34.5t15.5 34.5t34.5 15.5t34.5 -15.5t15.5 -34.5zM360 570q0 -19 -15.5 -34.5
t-34.5 -15.5t-34.5 15.5t-15.5 34.5t15.5 34.5t34.5 15.5t34.5 -15.5t15.5 -34.5z" />
    <glyph glyph-name="afii10072" unicode="&#x436;" horiz-adv-x="660" 
d="M230 460h200v-10l-60 -15v-255l90 160q23 41 39 66.5t28.5 39.5t23.5 19t24 5q4 0 8 -1l8 -2t9 -2l15 -70l-12 2q-5 1 -11.5 2t-11.5 1q-42 0 -62.5 -15t-37.5 -45l-28 -50l163 -265l60 -15v-10h-201v10l55 15l-118 192l-41 -72v-120l55 -15v-10h-190v10l55 15v120
l-41 72l-118 -192l55 -15v-10h-201v10l60 15l163 265l-28 50q-17 30 -37.5 45t-62.5 15q-6 0 -12 -1t-11 -2l-12 -2l15 70q5 1 9 2l8 2t8 1q13 0 24 -5t23.5 -19t28.5 -39.5t39 -66.5l90 -160v255l-60 15v10z" />
    <glyph glyph-name="afii10073" unicode="&#x437;" horiz-adv-x="400" 
d="M170 5q49 0 79.5 31.5t30.5 88.5t-30.5 88.5t-79.5 31.5h-20v20h20q45 0 70 25t25 70t-22 70t-48 25q-38 0 -74.5 -39t-55.5 -111h-15q1 13 2 27q1 12 2 27.5t1 30.5q0 13 -1 27t-2 26q-1 14 -2 27h15q11 -4 23.5 -17t16.5 -28q11 14 26 25q13 9 31 17t43 8q32 0 58 -9.5
t44 -25.5t28 -37t10 -43q0 -36 -21 -56.5t-47 -31.5q-30 -12 -67 -17q45 -5 80 -20q15 -7 29.5 -16.5t25.5 -23t18 -31t7 -39.5q0 -28 -12 -53.5t-36 -44.5t-59.5 -30.5t-82.5 -11.5q-36 0 -64.5 10.5t-48.5 27.5t-31 40t-11 47q0 49 22.5 74.5t52.5 25.5q8 0 13 -1t9 -2
l8 -2l-20 -65q-34 0 -49.5 -13.5t-15.5 -36.5q0 -13 9 -28t25.5 -27.5t39.5 -21t51 -8.5z" />
    <glyph glyph-name="afii10074" unicode="&#x438;" horiz-adv-x="525" 
d="M295 450v10h195v-10l-60 -15v-410l60 -15v-10h-195v10l55 15v330l-175 -270v-60l55 -15v-10h-195v10l60 15v410l-60 15v10h195v-10l-55 -15v-315l175 270v45z" />
    <glyph glyph-name="afii10075" unicode="&#x439;" horiz-adv-x="525" 
d="M265 535q19 0 32 14.5t13 40.5q0 8 -1 14t-2 11l-2 10h65q1 -3 2 -7q1 -3 2 -8t1 -10q0 -34 -26.5 -57t-83.5 -23t-83.5 23t-26.5 57q0 10 2 18q1 4 3 7h65q-2 -5 -3 -10t-1.5 -11t-0.5 -14q0 -26 13 -40.5t32 -14.5zM295 450v10h195v-10l-60 -15v-410l60 -15v-10h-195
v10l55 15v330l-175 -270v-60l55 -15v-10h-195v10l60 15v410l-60 15v10h195v-10l-55 -15v-315l175 270v45z" />
    <glyph glyph-name="afii10076" unicode="&#x43a;" horiz-adv-x="470" 
d="M219 221l-44 -76v-120l55 -15v-10h-195v10l60 15v410l-60 15v10h205v-10l-65 -15v-255l90 160q23 41 39 66.5t28.5 39.5t23.5 19t24 5q5 0 10 -1t8 -2q4 -1 7 -2l15 -70l-12 2q-5 1 -11.5 2t-11.5 1q-41 0 -62 -15t-38 -45l-25 -44l165 -271l60 -15v-10h-202v10l55 15z
" />
    <glyph glyph-name="afii10077" unicode="&#x43b;" horiz-adv-x="460" 
d="M55 460h370v-10l-60 -15v-410l60 -15v-10h-200v10l60 15v415h-145v-140q0 -101 -8.5 -164t-23 -97.5t-33.5 -46.5t-40 -12q-6 0 -11 0.5t-10 1.5t-9 3l-15 70q5 -2 10 -3t10 -1.5t10 -0.5q21 0 39 10t31.5 38t21.5 76.5t8 125.5v130l-65 20v10z" />
    <glyph glyph-name="afii10078" unicode="&#x43c;" horiz-adv-x="640" 
d="M25 460h140l165 -363l140 363h135v-10l-60 -15v-410l60 -15v-10h-195v10l55 15v365l-156 -405h-15l-184 405v-355l65 -25v-10h-150v10l65 25v395l-65 20v10z" />
    <glyph glyph-name="afii10079" unicode="&#x43d;" horiz-adv-x="520" 
d="M290 450v10h195v-10l-60 -15v-410l60 -15v-10h-195v10l55 15v205h-170v-205l55 -15v-10h-195v10l60 15v410l-60 15v10h195v-10l-55 -15v-185h170v185z" />
    <glyph glyph-name="afii10080" unicode="&#x43e;" horiz-adv-x="470" 
d="M235 460q-17 0 -34.5 -11.5t-32 -38t-24 -70.5t-9.5 -110t9.5 -110t24 -70.5t32 -38t34.5 -11.5t34.5 11.5t32 38t24 70.5t9.5 110t-9.5 110t-24 70.5t-32 38t-34.5 11.5zM235 475q37 0 71.5 -16.5t61 -48t42 -77t15.5 -103.5t-15.5 -103.5t-42 -77t-61 -48t-71.5 -16.5
q-38 0 -72 16.5t-60.5 48t-42 77t-15.5 103.5t15.5 103.5t42 77t60.5 48t72 16.5z" />
    <glyph glyph-name="afii10081" unicode="&#x43f;" horiz-adv-x="520" 
d="M35 460h450v-10l-60 -15v-410l60 -15v-10h-195v10l55 15v415h-170v-415l55 -15v-10h-195v10l60 15v410l-60 15v10z" />
    <glyph glyph-name="afii10082" unicode="&#x440;" horiz-adv-x="500" 
d="M85 435l-60 15v10h140v-60q10 20 27 37q14 14 36 26t52 12q32 0 63.5 -16.5t56 -48t40 -77t15.5 -103.5t-15.5 -103.5t-41.5 -77t-59 -48t-69 -16.5q-29 0 -48.5 7.5t-32.5 17.5q-15 11 -24 25v-250l60 -15v-10h-200v10l60 15v650zM255 5q21 0 40.5 11t35 37.5t25 69.5
t9.5 107t-9.5 107t-24 69t-32 37.5t-34.5 11.5q-25 0 -43 -14t-31 -31q-15 -20 -26 -45v-300q9 -17 22 -30q11 -11 28 -20.5t40 -9.5z" />
    <glyph glyph-name="afii10083" unicode="&#x441;" horiz-adv-x="430" 
d="M240 455q-19 0 -37.5 -11.5t-33.5 -37.5t-24.5 -69t-9.5 -107t9.5 -107t25.5 -69.5t36.5 -37.5t43.5 -11q26 0 49 10t41 27t29.5 41t15.5 52h15q-4 -32 -17.5 -59.5t-34.5 -47.5t-48.5 -31.5t-59.5 -11.5q-39 0 -74.5 16.5t-62.5 48t-42.5 77t-15.5 103.5t15.5 103.5
t41.5 77t59 48t69 16.5q24 0 42.5 -8t31.5 -17q15 -11 26 -25q4 15 16.5 28t23.5 17h15q-2 -13 -3 -27q-1 -12 -1.5 -26t-0.5 -27q0 -15 0.5 -30.5t1.5 -27.5q1 -14 3 -27h-15q-19 72 -55.5 111t-74.5 39z" />
    <glyph glyph-name="afii10084" unicode="&#x442;" horiz-adv-x="440" 
d="M410 460q-2 -10 -3 -21q-1 -10 -1.5 -23.5t-0.5 -30.5q0 -11 0.5 -24.5t1.5 -24.5q1 -13 3 -26h-10q-26 23 -43 55.5t-17 74.5h-80v-415l60 -15v-10h-200v10l60 15v415h-80q0 -42 -17 -74.5t-43 -55.5h-10l2 26q1 11 2 24.5t1 24.5q0 17 -1 30.5t-2 23.5q-1 11 -2 21h380
v0z" />
    <glyph glyph-name="afii10085" unicode="&#x443;" horiz-adv-x="435" 
d="M215 -85q-16 -47 -31 -78.5t-31.5 -51t-34 -27.5t-38.5 -8q-6 0 -11 0.5t-10 1.5t-9 3l-15 75q4 -2 9 -3t10 -1.5t11 -0.5q60 0 87.5 22.5t42.5 67.5l28 85l-173 435l-60 15v10h200v-10l-55 -15l127 -319l103 309l-65 25v10h150v-10l-65 -25z" />
    <glyph glyph-name="afii10086" unicode="&#x444;" horiz-adv-x="690" 
d="M460 5q17 0 34 10.5t30.5 36.5t22 69t8.5 109t-8.5 109t-21 69t-27.5 36.5t-28 10.5q-19 0 -34.5 -12t-26.5 -26q-13 -17 -24 -37v-325q10 -14 21 -25q10 -10 23.5 -17.5t30.5 -7.5zM230 5q17 0 30.5 7.5t23.5 17.5q11 11 21 25v325q-11 20 -24 37q-11 14 -26.5 26
t-34.5 12q-13 0 -28 -10.5t-27.5 -36.5t-21 -69t-8.5 -109t8.5 -109t22 -69t30.5 -36.5t34 -10.5zM305 675l-60 15v10h140v-285q11 17 26 30q13 11 31 20.5t43 9.5q28 0 56.5 -16t51.5 -46.5t37.5 -76.5t14.5 -106t-14.5 -106t-38.5 -76.5t-54.5 -46.5t-62.5 -16
q-23 0 -40 6t-28 14q-13 9 -22 20v-240l60 -15v-10h-200v10l60 15v240q-10 -11 -23 -20q-11 -8 -27.5 -14t-39.5 -6q-32 0 -62.5 16t-54.5 46.5t-38.5 76.5t-14.5 106t14.5 106t37.5 76.5t51.5 46.5t56.5 16q24 0 42.5 -9.5t31.5 -20.5q15 -13 26 -30v260z" />
    <glyph glyph-name="afii10087" unicode="&#x445;" horiz-adv-x="425" 
d="M190 191l-100 -156l65 -25v-10h-150v10l65 25l110 172l-130 228l-60 15v10h205v-10l-55 -15l88 -154l92 144l-65 25v10h150v-10l-65 -25l-103 -160l138 -240l60 -15v-10h-205v10l55 15z" />
    <glyph glyph-name="afii10088" unicode="&#x446;" horiz-adv-x="520" 
d="M510 20q-2 -10 -3 -22q-1 -11 -1.5 -27t-0.5 -36q0 -15 0.5 -29.5t1.5 -25.5q1 -13 3 -25h-10q-26 23 -45.5 59.5t-19.5 85.5h-400v10l60 15v410l-60 15v10h195v-10l-55 -15v-415h170v415l-55 15v10h195v-10l-60 -15v-415h85z" />
    <glyph glyph-name="afii10089" unicode="&#x447;" horiz-adv-x="495" 
d="M320 195q-14 -8 -29 -13q-14 -5 -30.5 -8.5t-35.5 -3.5q-36 0 -63.5 9.5t-47 26t-29.5 38.5t-10 46v145l-60 15v10h195v-10l-55 -15v-145q0 -53 21 -76.5t59 -23.5q15 0 30 3.5t27 8.5q14 5 28 13v220l-55 15v10h195v-10l-60 -15v-410l60 -15v-10h-200v10l60 15v170z" />
    <glyph glyph-name="afii10090" unicode="&#x448;" horiz-adv-x="730" 
d="M35 10l60 15v410l-60 15v10h195v-10l-55 -15v-415h150v415l-55 15v10h190v-10l-55 -15v-415h150v415l-55 15v10h195v-10l-60 -15v-410l60 -15v-10h-660v10z" />
    <glyph glyph-name="afii10091" unicode="&#x449;" horiz-adv-x="730" 
d="M35 0v10l60 15v410l-60 15v10h195v-10l-55 -15v-415h150v415l-55 15v10h190v-10l-55 -15v-415h150v415l-55 15v10h195v-10l-60 -15v-415h85q-2 -10 -3 -22q-1 -11 -1.5 -27t-0.5 -36q0 -15 0.5 -29.5t1.5 -25.5q1 -13 3 -25h-10q-26 23 -45.5 59.5t-19.5 85.5h-610z" />
    <glyph glyph-name="afii10092" unicode="&#x44a;" horiz-adv-x="490" 
d="M230 270v-250h35q57 0 88.5 32.5t31.5 92.5t-31.5 92.5t-88.5 32.5h-35zM295 460v-10l-65 -20v-140h35q54 0 94 -11.5t65.5 -31t38 -46t12.5 -56.5t-12.5 -56.5t-38 -46t-65.5 -31t-94 -11.5h-175v10l60 15v415h-70q0 -42 -17 -74.5t-43 -55.5h-10l2 26q1 11 2 24.5
t1 24.5q0 17 -1 30.5t-2 23.5q-1 11 -2 21h285z" />
    <glyph glyph-name="afii10093" unicode="&#x44b;" horiz-adv-x="670" 
d="M210 290q54 0 94 -11.5t65.5 -31t38 -46t12.5 -56.5t-12.5 -56.5t-38 -46t-65.5 -31t-94 -11.5h-175v10l60 15v410l-60 15v10h200v-10l-60 -15v-145h35zM175 270v-250h35q57 0 88.5 32.5t31.5 92.5t-31.5 92.5t-88.5 32.5h-35zM575 25l60 -15v-10h-200v10l60 15v410
l-60 15v10h200v-10l-60 -15v-410z" />
    <glyph glyph-name="afii10094" unicode="&#x44c;" horiz-adv-x="435" 
d="M210 290q54 0 94 -11.5t65.5 -31t38 -46t12.5 -56.5t-12.5 -56.5t-38 -46t-65.5 -31t-94 -11.5h-175v10l60 15v410l-60 15v10h200v-10l-60 -15v-145h35zM175 270v-250h35q57 0 88.5 32.5t31.5 92.5t-31.5 92.5t-88.5 32.5h-35z" />
    <glyph glyph-name="afii10095" unicode="&#x44d;" horiz-adv-x="430" 
d="M190 455q-38 0 -74.5 -39t-55.5 -111h-15q1 13 2 27q1 12 2 27.5t1 30.5q0 13 -1 27t-2 26q-1 14 -2 27h15q11 -4 23.5 -17t16.5 -28q11 14 26 25q13 9 31 17t43 8q36 0 69 -16.5t59 -48t41.5 -77t15.5 -103.5t-15.5 -103.5t-42.5 -77t-62.5 -48t-74.5 -16.5
q-32 0 -59.5 11.5t-48.5 31.5t-34.5 47.5t-17.5 59.5h15q4 -28 15.5 -52t29.5 -41t41 -27t49 -10q22 0 42.5 11t36.5 36t25.5 66t10.5 102h-85l-35 -80h-10v180h10l35 -80h85q-1 61 -10.5 102t-24.5 66t-33.5 36t-36.5 11z" />
    <glyph glyph-name="afii10096" unicode="&#x44e;" horiz-adv-x="680" 
d="M445 475q37 0 71.5 -16.5t61 -48t42 -77t15.5 -103.5t-15.5 -103.5t-42 -77t-61 -48t-71.5 -16.5q-38 0 -72 16.5t-60.5 47.5t-42 75.5t-15.5 100.5h-80v-200l60 -15v-10h-200v10l60 15v410l-60 15v10h200v-10l-60 -15v-190h80q2 54 18.5 97t42.5 72.5t59.5 45t69.5 15.5
zM445 460q-17 0 -34.5 -11.5t-32 -38t-24 -70.5t-9.5 -110t9.5 -110t24 -70.5t32 -38t34.5 -11.5t34.5 11.5t32 38t24 70.5t9.5 110t-9.5 110t-24 70.5t-32 38t-34.5 11.5z" />
    <glyph glyph-name="afii10097" unicode="&#x44f;" horiz-adv-x="475" 
d="M260 210q-42 0 -63 -21t-26 -59l-11 -80q-4 -30 -22.5 -47.5t-52.5 -17.5q-21 0 -35 7t-23 15q-11 10 -17 23l10 10q4 -8 9 -13t10 -8.5t11 -3.5q8 0 15 8t9 27l11 80q4 30 23 47.5t41 27.5q26 11 56 15q-41 4 -73 18q-27 12 -49.5 34.5t-22.5 62.5q0 24 11.5 47t36 40
t62 27.5t90.5 10.5h180v-10l-60 -15v-410l60 -15v-10h-200v10l60 15v185h-40zM300 230v210h-40q-53 0 -81.5 -28t-28.5 -77t28.5 -77t81.5 -28h40z" />
    <glyph glyph-name="afii10194" unicode="&#x463;" horiz-adv-x="490" 
d="M235 260v-240h35q57 0 88.5 31.5t31.5 88.5t-31.5 88.5t-88.5 31.5h-35zM270 280q54 0 94 -11.5t65.5 -30.5t38 -44.5t12.5 -53.5t-12.5 -53.5t-38 -44.5t-65.5 -30.5t-94 -11.5h-175v10l60 15v415h-65q0 -42 -17 -74.5t-43 -55.5h-10l2 26q1 11 2 24.5t1 24.5
q0 17 -1 30.5t-2 23.5q-1 11 -2 21h135v115l80 55v-170h145q-2 -10 -3 -21q-1 -10 -1.5 -23.5t-0.5 -30.5q0 -11 0.5 -24.5t1.5 -24.5q1 -13 3 -26h-10q-26 23 -43 55.5t-17 74.5h-75v-160h35z" />
    <glyph glyph-name="afii10195" unicode="&#x473;" horiz-adv-x="470" 
d="M235 475q37 0 71.5 -16.5t61 -48t42 -77t15.5 -103.5t-15.5 -103.5t-42 -77t-61 -48t-71.5 -16.5q-38 0 -72 16.5t-60.5 48t-42 77t-15.5 103.5t15.5 103.5t42 77t60.5 48t72 16.5zM235 460q-17 0 -34.5 -11t-32 -37t-24 -68t-9.5 -104h200q0 62 -9.5 104t-24 68t-32 37
t-34.5 11zM235 0q17 0 34.5 11t32 37t24 68t9.5 104h-200q0 -62 9.5 -104t24 -68t32 -37t34.5 -11z" />
    <glyph glyph-name="A" unicode="A" horiz-adv-x="520" 
d="M335 205h-205l-50 -170l65 -25v-10h-150v10l65 25l195 680h15l210 -690l60 -15v-10h-210v10l60 15zM135 224h194l-100 331z" />
    <glyph glyph-name="B" unicode="B" 
d="M45 0v10l60 15v650l-60 15v10h180q47 0 81.5 -10.5t57.5 -29t34.5 -43t11.5 -52.5q0 -22 -6.5 -39t-17 -29.5t-24 -22t-27.5 -15.5q-33 -15 -75 -19q62 -6 110 -31q21 -11 40.5 -26.5t35 -38t25 -52t9.5 -67.5q0 -47 -18 -88t-51.5 -71.5t-80.5 -48t-105 -17.5h-180z
M190 430v-410h35q34 0 63 13t50.5 39t34 64t12.5 89t-12.5 89t-34 64t-50.5 39t-63 13h-35zM190 450h35q45 1 72.5 29.5t27.5 85.5t-27.5 86t-72.5 29h-35v-230z" />
    <glyph glyph-name="C" unicode="C" horiz-adv-x="490" 
d="M285 695q-28 0 -55 -16t-48 -55.5t-34 -106t-13 -167.5t13 -167.5t35 -106t51 -55.5t61 -16q26 0 53 14t49.5 39t38 59t19.5 73h15q-4 -45 -20 -82.5t-40.5 -65t-56.5 -42.5t-68 -15q-47 0 -91 22.5t-78.5 68t-55 114t-20.5 160.5t20.5 160.5t54 114t75.5 68t85 22.5
q24 0 43.5 -8t33.5 -18q16 -11 28 -25q8 15 21.5 28.5t28.5 17.5h15q-2 -15 -3 -30q-1 -14 -1.5 -29.5t-0.5 -30.5q0 -17 0.5 -33.5t1.5 -30.5q1 -16 3 -31h-15q-23 83 -61.5 126.5t-83.5 43.5z" />
    <glyph glyph-name="D" unicode="D" horiz-adv-x="560" 
d="M220 700q66 0 121.5 -24t96.5 -69t64 -110t23 -147q0 -83 -23 -148t-64 -110t-96.5 -68.5t-121.5 -23.5h-175v10l60 15v650l-60 15v10h175zM190 680v-660h30q43 0 81.5 18.5t67 58.5t45 102.5t16.5 150.5t-16.5 150.5t-45 102.5t-67 58.5t-81.5 18.5h-30z" />
    <glyph glyph-name="E" unicode="E" 
d="M390 20q0 42 17 78t43 62h10q-2 -13 -3 -27q-1 -12 -1.5 -26t-0.5 -27q0 -19 0.5 -33.5t1.5 -25.5q1 -12 3 -21h-415v10l60 15v650l-60 15v10h405q-2 -9 -3 -21q-1 -11 -1.5 -25.5t-0.5 -33.5q0 -14 0.5 -27.5t1.5 -25.5q1 -14 3 -27h-10q-26 26 -43 62t-17 78h-190v-300
h95l45 90h10v-200h-10l-45 90h-95v-340h200z" />
    <glyph glyph-name="F" unicode="F" horiz-adv-x="480" 
d="M190 360v-335l60 -15v-10h-205v10l60 15v650l-60 15v10h405q-2 -9 -3 -21q-1 -11 -1.5 -25.5t-0.5 -33.5q0 -14 0.5 -27.5t1.5 -25.5q1 -14 3 -27h-10q-26 26 -43 62t-17 78h-190v-300h95l45 90h10v-200h-10l-45 90h-95z" />
    <glyph glyph-name="G" unicode="G" horiz-adv-x="525" 
d="M395 320h-100v20h185v-75q0 -68 -17.5 -120t-46 -87.5t-65.5 -54t-76 -18.5q-41 0 -82 22.5t-74 68t-53.5 114t-20.5 160.5t20.5 160.5t54 114t75.5 68t85 22.5q24 0 43.5 -8t33.5 -17q16 -11 28 -25q8 15 21.5 28t28.5 17h15q-2 -15 -3 -30q-1 -14 -1.5 -29.5
t-0.5 -30.5q0 -17 0.5 -33.5t1.5 -30.5q1 -16 3 -31h-15q-23 83 -61.5 126.5t-83.5 43.5q-28 0 -55 -16t-48 -55.5t-34 -106t-13 -167.5q0 -103 12.5 -170.5t32.5 -107.5t43.5 -56t46.5 -16q22 0 44 12.5t38.5 43t27 81.5t10.5 128v55z" />
    <glyph glyph-name="H" unicode="H" horiz-adv-x="585" 
d="M190 360v-335l60 -15v-10h-205v10l60 15v650l-60 15v10h205v-10l-60 -15v-295h205v295l-60 15v10h205v-10l-60 -15v-650l60 -15v-10h-205v10l60 15v335h-205z" />
    <glyph glyph-name="I" unicode="I" horiz-adv-x="295" 
d="M190 25l60 -15v-10h-205v10l60 15v650l-60 15v10h205v-10l-60 -15v-650z" />
    <glyph glyph-name="J" unicode="J" horiz-adv-x="490" 
d="M400 190q0 -47 -14.5 -85t-41 -64.5t-64.5 -41t-85 -14.5q-38 0 -70.5 14t-57 37t-38.5 52.5t-14 61.5q0 57 23.5 85t56.5 35l70 -60q-100 -15 -100 -105q0 -19 9 -37t26 -32t41 -22.5t54 -8.5q24 0 46 10.5t38.5 33t26 57.5t9.5 84v485l-60 15v10h205v-10l-60 -15v-485z
" />
    <glyph glyph-name="K" unicode="K" horiz-adv-x="540" 
d="M190 260v-235l60 -15v-10h-205v10l60 15v650l-60 15v10h205v-10l-60 -15v-380l215 370l-65 25v10h150v-10l-65 -25l-126 -217l201 -423l60 -15v-10h-215v10l60 15l-158 333z" />
    <glyph glyph-name="L" unicode="L" horiz-adv-x="470" 
d="M190 20h180q0 42 17 78t43 62h10q-2 -13 -3 -27q-1 -12 -1.5 -26t-0.5 -27q0 -19 0.5 -33.5t1.5 -25.5q1 -12 3 -21h-395v10l60 15v650l-60 15v10h205v-10l-60 -15v-655z" />
    <glyph glyph-name="M" unicode="M" horiz-adv-x="785" 
d="M600 700h140v-10l-60 -15v-650l60 -15v-10h-205v10l60 15v590l-215 -630h-15l-240 630v-580l65 -25v-10h-150v10l65 25v635l-65 20v10h145l219 -575z" />
    <glyph glyph-name="N" unicode="N" horiz-adv-x="585" 
d="M460 665l-65 25v10h150v-10l-65 -25v-675h-15l-340 625v-580l65 -25v-10h-150v10l65 25v635l-65 20v10h135l285 -525v490z" />
    <glyph glyph-name="O" unicode="O" horiz-adv-x="550" 
d="M510 350q0 -92 -20.5 -160.5t-54 -114t-75.5 -68t-85 -22.5t-85 22.5t-75.5 68t-54 114t-20.5 160.5t20.5 160.5t54 114t75.5 68t85 22.5t85 -22.5t75.5 -68t54 -114t20.5 -160.5zM415 350q0 103 -12.5 170.5t-33 107.5t-45.5 56t-49 16t-49 -16t-45.5 -56t-33 -107.5
t-12.5 -170.5t12.5 -170.5t33 -107.5t45.5 -56t49 -16t49 16t45.5 56t33 107.5t12.5 170.5z" />
    <glyph glyph-name="P" unicode="P" 
d="M190 250v-225l60 -15v-10h-205v10l60 15v650l-60 15v10h180q62 0 110.5 -17t81.5 -47t50.5 -71t17.5 -90t-17.5 -90t-50.5 -71t-81.5 -47t-110.5 -17h-35zM190 270h35q79 0 122 48t43 157t-43 157t-122 48h-35v-410z" />
    <glyph glyph-name="Q" unicode="Q" horiz-adv-x="550" 
d="M510 350q0 -84 -18 -149.5t-47.5 -111.5t-67.5 -72t-77 -32q19 -11 34 -30.5t27.5 -38.5t23 -32.5t20.5 -13.5q11 0 18 9.5t7 35.5q0 21 -6 35.5t-14 24t-15.5 14.5t-9.5 6l85 5q7 -7 12 -17q5 -8 9 -19t4 -24q0 -15 -8 -30t-21.5 -27.5t-31.5 -20t-39 -7.5
q-43 0 -69 15.5t-44 34.5t-34 34.5t-38 15.5q-10 0 -18 -3t-14 -7q-7 -4 -13 -10l-10 10q15 19 38 32t42 13q-38 9 -73 36.5t-62 72.5t-43.5 107.5t-16.5 143.5q0 92 20.5 160.5t54 114t75.5 68t85 22.5t85 -22.5t75.5 -68t54 -114t20.5 -160.5zM415 350q0 103 -12.5 170.5
t-33 107.5t-45.5 56t-49 16t-49 -16t-45.5 -56t-33 -107.5t-12.5 -170.5t12.5 -170.5t33 -107.5t45.5 -56t49 -16t49 16t45.5 56t33 107.5t12.5 170.5z" />
    <glyph glyph-name="R" unicode="R" horiz-adv-x="550" 
d="M230 700q64 0 111 -14t78 -38t46 -55.5t15 -67.5q0 -29 -8.5 -51.5t-22 -40t-31.5 -29.5t-36 -20q-43 -19 -97 -24q44 -5 80 -21q31 -14 58 -41t32 -73l20 -175q2 -19 9 -27t16 -8q5 0 10.5 3.5t10.5 8.5t9 13l10 -10q-6 -13 -17 -23q-9 -8 -23.5 -15t-34.5 -7
q-34 0 -55.5 19.5t-24.5 45.5l-20 175q-4 34 -13 57.5t-24.5 38.5t-39.5 22t-58 7h-40v-325l60 -15v-10h-205v10l60 15v650l-60 15v10h185zM385 525q0 75 -40 115t-115 40h-40v-310h40q75 0 115 40t40 115z" />
    <glyph glyph-name="S" unicode="S" horiz-adv-x="465" 
d="M110 570q0 -41 24 -70.5t60 -54.5t78.5 -49t78.5 -54.5t60 -71.5t24 -100q0 -39 -14 -73t-39.5 -59t-60.5 -39t-76 -14q-38 0 -65 7.5t-45 17.5q-21 11 -35 25q-8 -15 -21.5 -28t-28.5 -17h-15q1 14 2 30q1 13 2 29t1 31q0 17 -1 33.5t-2 30.5q-1 16 -2 31h15
q23 -83 66.5 -126.5t118.5 -43.5q60 0 97.5 38.5t37.5 106.5q0 41 -24 70.5t-60 54.5t-78.5 49t-78.5 54.5t-60 71.5t-24 100q0 34 13 64t36 52.5t54 35.5t67 13q30 0 53 -8t39 -17q18 -11 33 -25q8 15 21.5 28t28.5 17h15q-2 -15 -3 -30q-1 -14 -1.5 -29.5t-0.5 -30.5
q0 -17 0.5 -33.5t1.5 -30.5q1 -16 3 -31h-15q-23 83 -64 126.5t-101 43.5q-49 0 -82 -34t-33 -91z" />
    <glyph glyph-name="T" unicode="T" horiz-adv-x="495" 
d="M290 25l60 -15v-10h-205v10l60 15v655h-105q0 -42 -17 -78t-43 -62h-10q1 13 2 27q1 12 2 25.5t1 27.5q0 19 -1 33.5t-2 25.5q-1 12 -2 21h435q-2 -9 -3 -21q-1 -11 -1.5 -25.5t-0.5 -33.5q0 -14 0.5 -27.5t1.5 -25.5q1 -14 3 -27h-10q-26 26 -43 62t-17 78h-105v-655z
" />
    <glyph glyph-name="U" unicode="U" horiz-adv-x="570" 
d="M485 200q0 -113 -46.5 -164t-133.5 -51q-102 0 -158.5 56.5t-56.5 158.5v475l-60 15v10h205v-10l-60 -15v-475q0 -101 40 -148t100 -47q34 0 61.5 11.5t47 35.5t30.5 60.5t11 87.5v465l-65 25v10h150v-10l-65 -25v-465z" />
    <glyph glyph-name="W" unicode="W" horiz-adv-x="805" 
d="M-10 690v10h210v-10l-60 -15l145 -515l145 555h15l164 -555l131 505l-65 25v10h150v-10l-65 -25l-175 -680h-15l-165 560l-145 -560h-15l-195 690z" />
    <glyph glyph-name="V" unicode="V" 
d="M-10 690v10h210v-10l-60 -15l160 -525l140 515l-65 25v10h150v-10l-65 -25l-185 -680h-15l-210 690z" />
    <glyph glyph-name="X" unicode="X" horiz-adv-x="495" 
d="M211 326l-161 349l-60 15v10h215v-10l-60 -15l115 -250l120 240l-65 25v10h150v-10l-65 -25l-130 -261l175 -379l60 -15v-10h-215v10l60 15l-130 281l-135 -271l65 -25v-10h-150v10l65 25z" />
    <glyph glyph-name="Y" unicode="Y" horiz-adv-x="490" 
d="M295 280v-255l60 -15v-10h-205v10l60 15v250l-155 400l-60 15v10h210v-10l-60 -15l142 -365l138 355l-65 25v10h150v-10l-65 -25z" />
    <glyph glyph-name="Z" unicode="Z" horiz-adv-x="460" 
d="M115 20h250q0 42 17 78t43 62h10q-2 -13 -3 -27q-1 -12 -1.5 -26t-0.5 -27q0 -19 0.5 -33.5t1.5 -25.5q1 -12 3 -21h-420l320 680h-220q0 -42 -17 -78t-43 -62h-10q1 13 2 27q1 12 2 25.5t1 27.5q0 19 -1 33.5t-2 25.5q-1 12 -2 21h390z" />
    <glyph glyph-name="a" unicode="a" horiz-adv-x="465" 
d="M300 245q-87 0 -128.5 -38.5t-41.5 -106.5q0 -45 22 -70t48 -25q24 0 42.5 14t31.5 31q15 19 26 45v150zM225 460q-30 0 -50 -20.5t-20 -54.5q0 -8 0.5 -14t1.5 -11t3 -10l-80 -20q-2 3 -3 8t-1.5 11t-0.5 16q0 21 10 40.5t29.5 35t47 25t63.5 9.5q72 0 113.5 -41
t41.5 -109v-300l60 -15v-10h-140v60q-11 -21 -28 -38q-14 -14 -35.5 -25.5t-51.5 -11.5q-72 0 -108.5 34t-36.5 91q0 28 15.5 56t47 50t80.5 35.5t117 13.5v60q0 75 -22.5 105t-52.5 30z" />
    <glyph glyph-name="b" unicode="b" 
d="M260 455q-23 0 -40 -9.5t-28 -20.5q-13 -13 -22 -30v-300q11 -26 26 -45q13 -17 31 -31t43 -14q17 0 34.5 11t32 37.5t24 69.5t9.5 107t-9.5 107t-25 69t-35 37.5t-40.5 11.5zM275 475q36 0 69 -16.5t59 -48t41.5 -77t15.5 -103.5t-15.5 -103.5t-40 -77t-56 -48
t-63.5 -16.5q-30 0 -52 11.5t-36 25.5q-17 17 -27 38v-60h-140v10l60 15v650l-60 15v10h140v-275q9 14 24 25q13 9 32.5 17t48.5 8z" />
    <glyph glyph-name="c" unicode="c" horiz-adv-x="430" 
d="M240 455q-19 0 -37.5 -11.5t-33.5 -37.5t-24.5 -69t-9.5 -107t9.5 -107t25.5 -69.5t36.5 -37.5t43.5 -11q26 0 49 10t41 27t29.5 41t15.5 52h15q-4 -32 -17.5 -59.5t-34.5 -47.5t-48.5 -31.5t-59.5 -11.5q-39 0 -74.5 16.5t-62.5 48t-42.5 77t-15.5 103.5t15.5 103.5
t41.5 77t59 48t69 16.5q24 0 42.5 -8t31.5 -17q15 -11 26 -25q4 15 16.5 28t23.5 17h15q-2 -13 -3 -27q-1 -12 -1.5 -26t-0.5 -27q0 -15 0.5 -30.5t1.5 -27.5q1 -14 3 -27h-15q-19 72 -55.5 111t-74.5 39z" />
    <glyph glyph-name="d" unicode="d" horiz-adv-x="500" 
d="M240 455q-21 0 -40.5 -11.5t-35 -37.5t-25 -69t-9.5 -107t9.5 -107t24 -69.5t32 -37.5t34.5 -11q24 0 42.5 14t31.5 31q15 19 26 45v300q-10 17 -23 30q-11 11 -27.5 20.5t-39.5 9.5zM410 25l60 -15v-10h-140v60q-11 -21 -28 -38q-14 -14 -35.5 -25.5t-51.5 -11.5
q-32 0 -63.5 16.5t-56 48t-40 77t-15.5 103.5t15.5 103.5t41.5 77t59 48t69 16.5q28 0 48 -8t33 -17q15 -11 24 -25v250l-60 15v10h140v-675z" />
    <glyph glyph-name="e" unicode="e" horiz-adv-x="445" 
d="M135 230q0 -64 9.5 -107t25 -69.5t35 -37.5t40.5 -11q26 0 49 10t41 27t29.5 41t15.5 52h15q-4 -32 -17.5 -59.5t-34.5 -47.5t-48.5 -31.5t-59.5 -11.5q-38 0 -72 16.5t-60.5 48t-42 77t-15.5 103.5q0 60 15 106t39.5 76.5t57 46.5t68.5 16t68.5 -16t57 -46.5t39.5 -76.5
t15 -106h-270zM225 460q-15 0 -30 -9.5t-28 -33.5t-21.5 -64.5t-10.5 -102.5h180q-2 62 -10.5 102.5t-21.5 64.5t-28 33.5t-30 9.5z" />
    <glyph glyph-name="f" unicode="f" horiz-adv-x="330" 
d="M360 615q0 -17 -5.5 -30.5t-12.5 -23.5q-8 -11 -17 -21l-75 30q9 10 17 21q7 10 12.5 23.5t5.5 30.5q0 26 -13.5 40.5t-36.5 14.5q-11 0 -21 -5.5t-17.5 -19t-12 -36.5t-4.5 -59v-120h140v-20h-140v-415l60 -15v-10h-200v10l60 15v415h-60v20h60v120q0 60 37.5 97.5
t97.5 37.5q28 0 51 -8.5t39.5 -22.5t25.5 -32t9 -37z" />
    <glyph glyph-name="g" unicode="g" horiz-adv-x="485" 
d="M220 150q17 0 33 8.5t29 27.5t20.5 48.5t7.5 70.5t-7.5 70.5t-20.5 48t-29 27.5t-33 9t-33 -9t-29 -27.5t-20.5 -48t-7.5 -70.5t7.5 -70.5t20.5 -48.5t29 -27.5t33 -8.5zM240 -236q37 0 67 10.5t50.5 28.5t31.5 42t11 50q0 95 -95 95h-160q-57 0 -83.5 23t-26.5 57
q0 23 11.5 40.5t25.5 31.5q17 15 38 28q-20 13 -35 32q-14 17 -24.5 42t-10.5 61t13.5 67t37.5 54t57 36t72 13q17 0 33 -3t29 -7q15 -4 28 -10q8 11 19 20q10 8 25 14t36 6q34 0 53.5 -12.5t30.5 -27.5q12 -18 16 -40l-75 -15q-3 20 -9 37q-5 14 -14 26t-22 12
q-11 0 -20 -5t-14 -10q-7 -7 -11 -15q38 -23 56.5 -59t18.5 -81q0 -36 -13.5 -67t-37.5 -54t-57 -36t-72 -13q-21 0 -38 3.5t-30 8.5q-15 5 -27 13q-14 -9 -25 -19q-10 -8 -17.5 -19t-7.5 -22q0 -15 14 -24.5t56 -9.5h160q60 0 97.5 -38.5t37.5 -102.5q0 -38 -14.5 -70.5
t-40.5 -57t-63 -38.5t-82 -14q-56 0 -97.5 12.5t-68.5 34t-40.5 50.5t-13.5 63q0 13 3 23.5t7 17.5q4 8 10 14l75 -30q-3 -7 -5 -15q-5 -15 -5 -30q0 -53 35.5 -87t99.5 -34z" />
    <glyph glyph-name="h" unicode="h" horiz-adv-x="510" 
d="M90 25v650l-60 15v10h140v-300q10 20 27 37q14 14 36 26t52 12t55.5 -11t44.5 -30.5t29.5 -47t10.5 -61.5v-300l60 -15v-10h-195v10l55 15v300q0 71 -22.5 100.5t-52.5 29.5q-25 0 -43 -14t-31 -31q-15 -20 -26 -45v-340l55 -15v-10h-195v10z" />
    <glyph glyph-name="i" unicode="i" horiz-adv-x="260" 
d="M95 25v410l-60 15v10h140v-435l60 -15v-10h-200v10zM180 575q0 -19 -15.5 -34.5t-34.5 -15.5t-34.5 15.5t-15.5 34.5t15.5 34.5t34.5 15.5t34.5 -15.5t15.5 -34.5z" />
    <glyph glyph-name="k" unicode="k" horiz-adv-x="460" 
d="M170 163v-138l55 -15v-10h-195v10l60 15v650l-60 15v10h140v-510l165 235l-65 25v10h150v-10l-65 -25l-97 -138l157 -262l60 -15v-10h-205v10l55 15l-116 193z" />
    <glyph glyph-name="l" unicode="l" horiz-adv-x="255" 
d="M90 25v650l-60 15v10h140v-675l60 -15v-10h-200v10z" />
    <glyph glyph-name="m" unicode="m" horiz-adv-x="770" 
d="M95 25v410l-60 15v10h140v-60q10 20 27 37q14 14 36 26t52 12q38 0 62.5 -14t39.5 -31q18 -20 28 -45q13 25 31 45q16 17 39 31t55 14q30 0 55.5 -11t44.5 -30.5t29.5 -47t10.5 -61.5v-300l60 -15v-10h-195v10l55 15v300q0 71 -22.5 100.5t-52.5 29.5q-25 0 -43 -14
t-31 -31q-15 -20 -26 -45v-340l55 -15v-10h-190v10l55 15v300q0 71 -22.5 100.5t-52.5 29.5q-25 0 -43 -14t-31 -31q-15 -20 -26 -45v-340l55 -15v-10h-195v10z" />
    <glyph glyph-name="n" unicode="n" horiz-adv-x="515" 
d="M95 25v410l-60 15v10h140v-60q10 20 27 37q14 14 36 26t52 12t55.5 -11t44.5 -30.5t29.5 -47t10.5 -61.5v-300l60 -15v-10h-195v10l55 15v300q0 71 -22.5 100.5t-52.5 29.5q-25 0 -43 -14t-31 -31q-15 -20 -26 -45v-340l55 -15v-10h-195v10z" />
    <glyph glyph-name="o" unicode="o" horiz-adv-x="470" 
d="M235 460q-17 0 -34.5 -11.5t-32 -38t-24 -70.5t-9.5 -110t9.5 -110t24 -70.5t32 -38t34.5 -11.5t34.5 11.5t32 38t24 70.5t9.5 110t-9.5 110t-24 70.5t-32 38t-34.5 11.5zM235 475q37 0 71.5 -16.5t61 -48t42 -77t15.5 -103.5t-15.5 -103.5t-42 -77t-61 -48t-71.5 -16.5
q-38 0 -72 16.5t-60.5 48t-42 77t-15.5 103.5t15.5 103.5t42 77t60.5 48t72 16.5z" />
    <glyph glyph-name="p" unicode="p" horiz-adv-x="500" 
d="M85 435l-60 15v10h140v-60q10 20 27 37q14 14 36 26t52 12q32 0 63.5 -16.5t56 -48t40 -77t15.5 -103.5t-15.5 -103.5t-41.5 -77t-59 -48t-69 -16.5q-29 0 -48.5 7.5t-32.5 17.5q-15 11 -24 25v-250l60 -15v-10h-200v10l60 15v650zM255 5q21 0 40.5 11t35 37.5t25 69.5
t9.5 107t-9.5 107t-24 69t-32 37.5t-34.5 11.5q-25 0 -43 -14t-31 -31q-15 -20 -26 -45v-300q9 -17 22 -30q11 -11 28 -20.5t40 -9.5z" />
    <glyph glyph-name="q" unicode="q" horiz-adv-x="500" 
d="M245 5q23 0 39.5 9.5t27.5 20.5q13 13 23 30v300q-11 25 -26 45q-13 17 -31.5 31t-42.5 14q-17 0 -34.5 -11.5t-32 -37.5t-24 -69t-9.5 -107t9.5 -107t25 -69.5t35 -37.5t40.5 -11zM415 -215l60 -15v-10h-200v10l60 15v250q-9 -14 -24 -25q-13 -10 -33 -17.5t-48 -7.5
q-36 0 -69 16.5t-59 48t-41.5 77t-15.5 103.5t15.5 103.5t40 77t56 48t63.5 16.5q30 0 51.5 -12t35.5 -26q17 -17 28 -37v60h140v-10l-60 -15v-650z" />
    <glyph glyph-name="r" unicode="r" horiz-adv-x="360" 
d="M175 25l60 -15v-10h-200v10l60 15v410l-60 15v10h140v-120q13 37 31 67q16 26 39 47t55 21q11 0 21 -1.5t18 -3.5q9 -3 16 -5l-30 -75q-6 3 -13 7q-6 3 -14.5 5.5t-17.5 2.5q-26 0 -46 -14t-33 -31q-16 -20 -26 -45v-290z" />
    <glyph glyph-name="s" unicode="s" horiz-adv-x="405" 
d="M215 -15q-32 0 -55 7.5t-37 17.5q-17 11 -28 25q-4 -15 -16.5 -28t-23.5 -17h-15q1 13 2 27q1 12 2 25.5t1 27.5q0 15 -1 30t-2 27l-2 28h15q19 -72 58 -111t92 -39q42 0 68.5 26t26.5 64q0 27 -18.5 47t-46.5 36.5t-60 32.5t-60 36t-46.5 47t-18.5 66q0 22 10 43
t27.5 37t42.5 25.5t55 9.5q26 0 45.5 -8t33.5 -17q15 -11 26 -25q4 15 16.5 28t23.5 17h15q-2 -13 -3 -27q-1 -12 -1.5 -26t-0.5 -27q0 -15 0.5 -30.5t1.5 -27.5q1 -14 3 -27h-15q-19 72 -56 111t-79 39q-34 0 -57 -22.5t-23 -52.5q0 -25 19 -43t47 -33.5t61.5 -31.5
t61.5 -37t47 -50t19 -70q0 -24 -11.5 -47.5t-32 -42t-49 -29.5t-62.5 -11z" />
    <glyph glyph-name="t" unicode="t" horiz-adv-x="355" 
d="M290 460v-20h-115v-319q0 -61 22 -88.5t48 -27.5q34 0 57.5 25.5t27.5 74.5h15q-4 -57 -34.5 -88.5t-75.5 -31.5q-64 0 -102 37.5t-38 97.5v320h-85v20h85v115l80 55v-170h115z" />
    <glyph glyph-name="u" unicode="u" 
d="M410 435v-410l60 -15v-10h-140v60q-11 -21 -28 -38q-14 -14 -35.5 -25.5t-51.5 -11.5t-55.5 11t-44.5 30.5t-29.5 47t-10.5 61.5v300l-60 15v10h195v-10l-55 -15v-300q0 -71 22.5 -100.5t52.5 -29.5q24 0 42.5 14t31.5 31q15 19 26 45v340l-55 15v10h195v-10z" />
    <glyph glyph-name="w" unicode="w" horiz-adv-x="655" 
d="M215 -15h-15l-150 450l-60 15v10h200v-10l-55 -15l104 -313l111 353h15l128 -353l92 303l-65 25v10h150v-10l-65 -25l-135 -440h-15l-129 354z" />
    <glyph glyph-name="v" unicode="v" horiz-adv-x="435" 
d="M50 435l-60 15v10h200v-10l-55 -15l126 -325l104 315l-65 25v10h150v-10l-65 -25l-145 -440h-15z" />
    <glyph glyph-name="x" unicode="x" horiz-adv-x="425" 
d="M190 191l-100 -156l65 -25v-10h-150v10l65 25l110 172l-130 228l-60 15v10h205v-10l-55 -15l88 -154l92 144l-65 25v10h150v-10l-65 -25l-103 -160l138 -240l60 -15v-10h-205v10l55 15z" />
    <glyph glyph-name="y" unicode="y" horiz-adv-x="435" 
d="M215 -85q-16 -47 -31 -78.5t-31.5 -51t-34 -27.5t-38.5 -8q-6 0 -11 0.5t-10 1.5t-9 3l-15 75q4 -2 9 -3t10 -1.5t11 -0.5q60 0 87.5 22.5t42.5 67.5l28 85l-173 435l-60 15v10h200v-10l-55 -15l127 -319l103 309l-65 25v10h150v-10l-65 -25z" />
    <glyph glyph-name="z" unicode="z" horiz-adv-x="430" 
d="M320 20q0 42 17 74.5t43 55.5h10q-2 -13 -3 -26q-1 -11 -1.5 -24.5t-0.5 -24.5q0 -17 0.5 -30.5t1.5 -23.5q1 -11 3 -21h-355l250 440h-160q0 -42 -17 -74.5t-43 -55.5h-10l2 26q1 11 2 24.5t1 24.5q0 17 -1 30.5t-2 23.5q-1 11 -2 21h335l-250 -440h180z" />
    <glyph glyph-name="space" unicode=" " horiz-adv-x="240" 
 />
    <glyph glyph-name="zero" unicode="0" horiz-adv-x="520" 
d="M385 350q0 105 -12 173t-30 107t-40 54.5t-43 15.5t-43 -15.5t-40 -54.5t-30 -107t-12 -173t12 -173t30 -107t40 -54.5t43 -15.5t43 15.5t40 54.5t30 107t12 173zM480 350q0 -96 -19 -165t-50 -113.5t-70.5 -65.5t-80.5 -21t-80.5 21t-70.5 65.5t-50 113.5t-19 165
t19 165t50 113.5t70.5 65.5t80.5 21t80.5 -21t70.5 -65.5t50 -113.5t19 -165z" />
    <glyph glyph-name="one" unicode="1" horiz-adv-x="290" 
d="M195 25l60 -15v-10h-205v10l60 15v635h-100v15l185 40v-690z" />
    <glyph glyph-name="two" unicode="2" horiz-adv-x="475" 
d="M200 700q-28 0 -54 -12t-46.5 -32.5t-32.5 -46.5t-12 -54q0 -26 20.5 -43t69.5 -17l20 -80q-4 -2 -9 -3t-10.5 -1.5t-10.5 -0.5q-42 0 -71 33.5t-29 101.5q0 36 14 67.5t38 55.5t55.5 38t67.5 14q47 0 86.5 -16t68 -43.5t44.5 -65t16 -80.5q0 -41 -17 -84.5t-45.5 -86.5
t-64.5 -84t-74 -77t-74 -66.5t-65 -51.5h315l20 95h15v-160h-440q69 75 130 140t106.5 126.5t72 122t26.5 126.5q0 49 -10 84t-27 57.5t-41 33t-52 10.5z" />
    <glyph glyph-name="three" unicode="3" horiz-adv-x="480" 
d="M220 700q-45 0 -70 -26t-25 -79q0 -15 5 -30q2 -8 5 -15l-85 -20q-3 4 -5 11q-5 12 -5 34q0 28 12 53.5t35 44.5t56.5 30.5t76.5 11.5q45 0 80.5 -12.5t59.5 -34.5t37 -52t13 -66q0 -55 -23.5 -86t-51.5 -48q-33 -19 -75 -26q52 -7 92 -31q17 -10 34 -25t30 -35.5
t21 -47.5t8 -61q0 -43 -16.5 -80.5t-46.5 -65t-72.5 -43.5t-94.5 -16q-43 0 -79 14t-61.5 38t-40 55.5t-14.5 67.5q0 79 29.5 114.5t70.5 35.5q5 0 10.5 -1t10.5 -2t9 -2l-20 -80q-90 0 -90 -85q0 -24 12.5 -48.5t34.5 -43.5t52 -31t66 -12q68 0 106.5 43.5t38.5 141.5
q0 101 -38 145.5t-102 44.5h-40v20h40q53 0 84 35.5t31 114.5q0 37 -8.5 65.5t-23 47t-33.5 28t-40 9.5z" />
    <glyph glyph-name="four" unicode="4" horiz-adv-x="525" 
d="M390 225q26 0 50.5 3.5t43.5 8.5q22 5 41 13v-10q-15 -14 -34 -26q-17 -11 -42 -20.5t-59 -13.5v-155l60 -15v-10h-205v10l60 15v155h-315q106 106 182 235.5t133 284.5h85v-475zM305 635q-21 -53 -49 -110t-60.5 -112t-67 -103.5t-68.5 -84.5h245v410z" />
    <glyph glyph-name="five" unicode="5" horiz-adv-x="470" 
d="M190 5q30 0 58 14t49.5 42t34.5 70.5t13 98.5q0 51 -14.5 90.5t-40 67.5t-61.5 42.5t-79 14.5q-17 0 -32 -3t-27 -7q-14 -4 -26 -10l55 276l10 -2t26.5 -4t37 -3.5t41.5 -1.5q32 0 61.5 3t52.5 7q27 4 51 10l-1 -10q-38 -42 -105 -63.5t-169 -21.5l-30 -150q10 2 22 5
q11 2 26.5 3.5t36.5 1.5q60 0 108 -18t82 -50t52 -77.5t18 -99.5t-18 -99.5t-49.5 -77.5t-76 -50t-96.5 -18q-39 0 -72 13t-57 36t-37.5 54t-13.5 67q0 71 29.5 105.5t70.5 34.5q5 0 10.5 -1t10.5 -2t9 -2l-20 -80q-45 0 -67.5 -20.5t-22.5 -54.5q0 -24 11.5 -47.5t31.5 -42
t47.5 -29.5t59.5 -11z" />
    <glyph glyph-name="six" unicode="6" horiz-adv-x="495" 
d="M370 220q0 52 -10.5 90t-27 62.5t-38.5 36t-44 11.5q-21 0 -41.5 -11.5t-37 -34.5t-26.5 -59t-10 -84q0 -64 10.5 -108t27.5 -71.5t40 -39.5t47 -12q19 0 38.5 12t35.5 38t26 68t10 102zM40 350q0 96 19 165t50.5 113.5t72 65.5t83.5 21q41 0 73.5 -11.5t55 -30.5
t34.5 -44.5t12 -53.5q0 -11 -1.5 -20t-3.5 -14q-3 -7 -5 -11l-85 20l5 15q2 7 3.5 14.5t1.5 15.5q0 53 -24 79t-66 26q-23 0 -46.5 -15.5t-43.5 -51.5t-32.5 -95.5t-12.5 -147.5v-50l6.5 15.5t22.5 34.5t40.5 34.5t60.5 15.5q43 0 80.5 -16t65 -45t43.5 -69.5t16 -89.5
q0 -54 -16 -97.5t-43.5 -74t-65 -47t-80.5 -16.5q-49 0 -89.5 18t-69.5 59t-45 106.5t-16 161.5v20z" />
    <glyph glyph-name="seven" unicode="7" horiz-adv-x="443" 
d="M423 649q-42 -52 -74.5 -111t-54.5 -134.5t-33 -174t-11 -229.5h-100q0 120 22 216.5t55.5 173t74 134.5t78.5 101h-325l-20 -85h-15v160h403v-51z" />
    <glyph glyph-name="eight" unicode="8" horiz-adv-x="510" 
d="M185 375q-34 19 -60 45q-23 23 -41.5 56.5t-18.5 78.5q0 34 12.5 63t36.5 50.5t58.5 34t77.5 12.5q45 0 80.5 -12t59.5 -33t37 -48t13 -57q0 -42 -20.5 -71.5t-44.5 -49.5q-29 -23 -65 -39q46 -23 82 -56q15 -14 30 -32t27 -39t19 -45.5t7 -52.5q0 -39 -16 -74.5
t-45.5 -62.5t-71 -42.5t-92.5 -15.5q-53 0 -93.5 14t-69 39t-43 59t-14.5 73q0 53 24 91t53 64q34 30 78 50zM400 160q0 21 -8 40t-21 37t-30 33.5t-34 28.5q-40 31 -92 56q-37 -14 -65 -40q-25 -22 -45 -57t-20 -88q0 -38 12.5 -69t34.5 -53.5t52 -35t66 -12.5
q68 0 109 42.5t41 117.5zM250 700q-23 0 -43 -9t-35 -25.5t-23.5 -39t-8.5 -50.5q0 -35 22 -62.5t48 -47.5q31 -23 70 -41q29 12 52 32q20 17 36.5 43.5t16.5 64.5q0 28 -10.5 52.5t-29 43t-43 29t-52.5 10.5z" />
    <glyph glyph-name="nine" unicode="9" horiz-adv-x="495" 
d="M125 480q0 -53 10.5 -90.5t27 -62t38 -36t44.5 -11.5q21 0 41.5 11.5t37 34.5t26.5 59t10 84q0 64 -10.5 108t-27.5 71.5t-40 39.5t-47 12q-19 0 -38.5 -12t-35.5 -38t-26 -68t-10 -102zM455 350q0 -96 -19 -165t-50.5 -113.5t-72 -65.5t-83.5 -21q-41 0 -73.5 11.5
t-55 30.5t-34.5 44.5t-12 53.5q0 21 5 34q2 6 5 11l85 -20q-3 -7 -5 -15q-5 -15 -5 -30q0 -53 24 -79t66 -26q22 0 46 15.5t44 51.5t32.5 95.5t12.5 147.5v50l-6.5 -15.5t-22.5 -34.5t-40.5 -34.5t-60.5 -15.5q-43 0 -80.5 16t-65 45t-43.5 69.5t-16 89.5q0 54 16 97.5
t43.5 74t65 47t80.5 16.5q49 0 89.5 -18t69.5 -59t45 -106.5t16 -161.5v-20z" />
    <glyph glyph-name="afii10058" unicode="&#x409;" horiz-adv-x="745" 
d="M465 430q62 0 110.5 -16.5t81.5 -46t50.5 -68.5t17.5 -84q0 -43 -16 -80.5t-46 -66.5t-73.5 -47t-99.5 -21h-205v10l60 15v655h-185v-250q0 -97 -4.5 -168.5t-13 -121.5t-20.5 -81.5t-26 -49t-29.5 -23.5t-31.5 -6q-6 0 -11 0.5t-10 1.5t-9 3l-15 75q4 -2 9 -3t10 -1.5
t11 -0.5q26 0 48 13t38 52.5t25 113.5t9 196v240l-65 20v10h415v-10l-60 -15v-245h35zM430 20h35q79 0 122 46.5t43 148.5t-43 148.5t-122 46.5h-35v-390z" />
    <glyph glyph-name="afii10059" unicode="&#x40a;" horiz-adv-x="795" 
d="M515 410q62 0 110.5 -16.5t81.5 -44.5t50.5 -65.5t17.5 -78.5t-17.5 -78.5t-50.5 -65.5t-81.5 -44.5t-110.5 -16.5h-190v10l60 15v365h-195v-365l60 -15v-10h-205v10l60 15v650l-60 15v10h205v-10l-60 -15v-265h195v265l-60 15v10h205v-10l-60 -15v-265h45zM470 20h45
q79 0 122 45.5t43 139.5t-43 139.5t-122 45.5h-45v-370z" />
    <glyph glyph-name="afii10106" unicode="&#x459;" horiz-adv-x="625" 
d="M400 290q54 0 94 -11.5t65.5 -31t38 -46t12.5 -56.5q0 -28 -11 -53.5t-34 -45t-57.5 -31.5t-82.5 -15h-200v10l60 15v415h-145v-140q0 -101 -8.5 -164t-23 -97.5t-33.5 -46.5t-40 -12q-6 0 -11 0.5t-10 1.5t-9 3l-15 70q5 -2 10 -3t10 -1.5t10 -0.5q21 0 39 10t31.5 38
t21.5 76.5t8 125.5v130l-65 20v10h370v-10l-60 -15v-145h35zM365 270v-250h35q57 0 88.5 32.5t31.5 92.5t-31.5 92.5t-88.5 32.5h-35z" />
    <glyph glyph-name="afii10107" unicode="&#x45a;" horiz-adv-x="685" 
d="M460 270q54 0 94 -11.5t65.5 -30t38 -43t12.5 -50.5t-12.5 -50.5t-38 -43.5t-65.5 -30t-94 -11h-185v10l60 15v225h-160v-225l55 -15v-10h-195v10l60 15v410l-60 15v10h195v-10l-55 -15v-165h160v165l-60 15v10h200v-10l-60 -15v-165h45zM415 250v-230h45q57 0 88.5 31
t31.5 84t-31.5 84t-88.5 31h-45z" />
    <glyph glyph-name="afii10051" unicode="&#x402;" horiz-adv-x="580" 
d="M455 255q0 72 -27.5 103.5t-72.5 31.5q-21 0 -40 -5.5t-33 -12.5q-17 -8 -32 -17v-330l60 -15v-10h-205v10l60 15v655h-85q0 -42 -17 -78t-43 -62h-10q1 13 2 27q1 12 2 25.5t1 27.5q0 19 -1 33.5t-2 25.5q-1 12 -2 21h395q-2 -9 -3 -21q-1 -11 -1.5 -25.5t-0.5 -33.5
q0 -14 0.5 -27.5t1.5 -25.5q1 -14 3 -27h-10q-26 26 -43 62t-17 78h-85v-305q15 9 33 17q16 7 36.5 12.5t45.5 5.5q87 0 131 -41.5t44 -113.5v-195q0 -68 -42 -109t-117 -41v15q15 0 28 7t23.5 23t16.5 41.5t6 63.5v195z" />
    <glyph glyph-name="afii10099" unicode="&#x452;" horiz-adv-x="495" 
d="M350 285q0 71 -22.5 100.5t-52.5 29.5q-25 0 -43 -14t-31 -31q-15 -20 -26 -45v-300l55 -15v-10h-195v10l60 15v505l-60 15v15h60v115l-60 15v10h140v-140h140v-15l-140 -15v-170q10 20 27 37q14 14 36 26t52 12t55.5 -11t44.5 -30.5t29.5 -47t10.5 -61.5v-225
q0 -68 -41.5 -109t-112.5 -41v15q15 0 28 7t23.5 23t16.5 41.5t6 63.5v225z" />
    <glyph glyph-name="afii10060" unicode="&#x40b;" horiz-adv-x="620" 
d="M250 375q15 9 33 17q16 7 36.5 12.5t45.5 5.5q87 0 131 -41.5t44 -113.5v-230l60 -15v-10h-205v10l60 15v230q0 72 -27.5 103.5t-72.5 31.5q-21 0 -40 -5.5t-33 -12.5q-17 -8 -32 -17v-330l60 -15v-10h-205v10l60 15v655h-85q0 -42 -17 -78t-43 -62h-10q1 13 2 27
q1 12 2 25.5t1 27.5q0 19 -1 33.5t-2 25.5q-1 12 -2 21h395q-2 -9 -3 -21q-1 -11 -1.5 -25.5t-0.5 -33.5q0 -14 0.5 -27.5t1.5 -25.5q1 -14 3 -27h-10q-26 26 -43 62t-17 78h-85v-305z" />
    <glyph glyph-name="afii10108" unicode="&#x45b;" horiz-adv-x="515" 
d="M175 360q10 20 27 37q14 14 36 26t52 12t55.5 -11t44.5 -30.5t29.5 -47t10.5 -61.5v-260l60 -15v-10h-195v10l55 15v260q0 71 -22.5 100.5t-52.5 29.5q-25 0 -43 -14t-31 -31q-15 -20 -26 -45v-300l55 -15v-10h-195v10l60 15v505l-60 15v15h60v115l-60 15v10h140v-140
h140v-15l-140 -15v-170z" />
    <glyph glyph-name="afii10145" unicode="&#x40f;" horiz-adv-x="585" 
d="M45 0v10l60 15v650l-60 15v10h205v-10l-60 -15v-655h205v655l-60 15v10h205v-10l-60 -15v-650l60 -15v-10h-205l-25 -155h-35l-25 155h-205z" />
    <glyph glyph-name="afii10193" unicode="&#x45f;" horiz-adv-x="520" 
d="M35 10l60 15v410l-60 15v10h195v-10l-55 -15v-415h170v415l-55 15v10h195v-10l-60 -15v-410l60 -15v-10h-185l-25 -145h-30l-25 145h-185v10z" />
    <glyph glyph-name="Euro" unicode="&#x20ac;" horiz-adv-x="530" 
d="M15 400h67q6 79 28 138t54 98.5t71.5 59t79.5 19.5q24 0 43.5 -8t33.5 -18q16 -11 28 -25q8 15 21.5 28.5t28.5 17.5h15q-2 -15 -3 -30q-1 -14 -1.5 -29.5t-0.5 -30.5q0 -17 0.5 -33.5t1.5 -30.5q1 -16 3 -31h-15q-23 83 -61.5 126.5t-83.5 43.5q-26 0 -51.5 -14
t-46 -47.5t-34.5 -90.5t-17 -143h189l-4 -20h-186v-60h180l-4 -20h-175q3 -86 17 -143t35.5 -91t49 -47.5t57.5 -13.5q26 0 53 14t49.5 39t38 59t19.5 73h15q-4 -45 -20 -82.5t-40.5 -65t-56.5 -42.5t-68 -15q-44 0 -85 19.5t-74.5 58.5t-55.5 98t-28 139h-82l5 20h75v60
h-70z" />
    <glyph glyph-name="eth" unicode="&#xf0;" horiz-adv-x="465" 
d="M225 475q26 0 46.5 -8.5t34.5 -19.5q17 -12 29 -27q-5 46 -25 86.5t-52 75.5l-63 -67l-20 20l63 67q-21 20 -45.5 38t-52.5 35l10 15q31 -14 59 -29t54 -33l62 67l20 -20l-60 -64q64 -52 99.5 -131t35.5 -200v-50q0 -58 -15.5 -103.5t-42 -77t-61 -48t-71.5 -16.5
q-38 0 -72 16.5t-60.5 48t-42 77t-15.5 103.5t15.5 103.5t41.5 77t59 48t69 16.5zM330 230q0 66 -9.5 110t-24.5 70.5t-33.5 38t-37.5 11.5q-15 0 -31.5 -11.5t-31 -38t-23.5 -70.5t-9 -110t9.5 -110t24 -70.5t32 -38t34.5 -11.5t34.5 11.5t32 38t24 70.5t9.5 110z" />
    <glyph glyph-name="divide" unicode="&#xf7;" horiz-adv-x="440" 
d="M410 320v-40h-380v40h380zM164 145q0 23 16 39t39 16t39 -16t16 -39t-16 -39t-39 -16t-39 16t-16 39zM164 455q0 23 16 39t39 16t39 -16t16 -39t-16 -39t-39 -16t-39 16t-16 39z" />
    <glyph glyph-name="paragraph" unicode="&#xb6;" horiz-adv-x="471" 
d="M30 475q0 47 17.5 88t47.5 71.5t70 48t85 17.5h201v-20h-71v-920h-35v920h-60v-920h-35v490q-45 0 -85 17.5t-70 48t-47.5 71.5t-17.5 88z" />
    <glyph glyph-name="mu" unicode="&#xb5;" horiz-adv-x="520" 
d="M30 450v10h195v-10l-55 -15v-300q0 -71 22.5 -100.5t52.5 -29.5q24 0 42.5 14t31.5 31q15 19 26 45v340l-55 15v10h195v-10l-60 -15v-410l60 -15v-10h-140v60q-8 -21 -22 -38q-12 -14 -31 -25.5t-47 -11.5q-17 0 -30.5 5t-23.5 12q-11 8 -21 18v-110q0 -68 -35.5 -105
t-98.5 -45v15q11 4 20.5 11.5t17 22.5t12 39t4.5 62v525z" />
    <glyph glyph-name="daggerdbl" unicode="&#x2021;" horiz-adv-x="440" 
d="M205 455q-36 0 -65.5 -6t-50.5 -14q-25 -9 -44 -20l-25 55l25 55q19 -11 44 -20q21 -8 50.5 -14t65.5 -6q0 51 -6 90.5t-14 67.5q-9 33 -20 57l55 25l55 -25q-11 -24 -20 -57q-8 -28 -14 -67.5t-6 -90.5q35 0 65 6t51 14q25 9 44 20l25 -55l-25 -55q-19 11 -44 20
q-21 8 -51 14t-65 6v-210q35 0 65 6t51 14q25 9 44 20l25 -55l-25 -55q-19 11 -44 20q-21 8 -51 14t-65 6q0 -51 6 -90.5t14 -67.5q9 -33 20 -57l-55 -25l-55 25q11 24 20 57q8 28 14 67.5t6 90.5q-36 0 -65.5 -6t-50.5 -14q-25 -9 -44 -20l-25 55l25 55q19 -11 44 -20
q21 -8 50.5 -14t65.5 -6v210z" />
    <glyph glyph-name="numbersign" unicode="#" horiz-adv-x="570" 
d="M199 500l51 200h50l-52 -200h151l51 200h50l-52 -200h122l-15 -50h-120l-51 -200h121l-15 -50h-119l-51 -200h-50l51 200h-150l-51 -200h-50l51 200h-121l15 50h119l52 200h-121l15 50h119zM184 250h150l52 200h-151z" />
    <glyph glyph-name="dollar" unicode="$" horiz-adv-x="470" 
d="M195 -10q-25 5 -42.5 12t-29.5 15q-14 9 -23 18q-8 -15 -21.5 -28t-28.5 -17h-15q1 14 2 30q1 13 2 29t1 31q0 17 -1 33.5t-2 30.5q-1 16 -2 31h15q19 -72 53.5 -114t91.5 -53v323q-29 18 -56 39t-48 47t-33.5 58.5t-12.5 74.5q0 31 11.5 59t31.5 50t47.5 36.5t59.5 18.5
v56h20v-55q20 0 40 -5v60h20v-65q16 -6 28 -13t20 -13q10 -7 17 -14q8 15 21.5 28t28.5 17h15q-2 -15 -3 -30q-1 -14 -1.5 -29.5t-0.5 -30.5q0 -17 0.5 -33.5t1.5 -30.5q1 -16 3 -31h-15q-37 130 -115 161v-291q30 -19 58.5 -40t51 -47.5t36.5 -60.5t14 -77q0 -36 -12 -67
t-33 -55t-50.5 -40t-64.5 -21v-57h-20v55h-10q-8 0 -15.5 0.5t-14.5 1.5v-57h-20v60zM370 150q0 44 -27.5 75t-67.5 57v-272q44 11 69.5 47.5t25.5 92.5zM110 570q0 -42 24 -71t61 -55v247q-38 -10 -61.5 -41.5t-23.5 -79.5zM215 319v-313q5 -1 10 -1h10h10t10 1v289z
M225 695q-7 0 -10 -1v-263l40 -24v285q-15 3 -30 3z" />
    <glyph glyph-name="asciicircum" unicode="^" horiz-adv-x="410" 
d="M400 450h-55l-140 195l-140 -195h-55l195 270z" />
    <glyph glyph-name="cent" unicode="&#xa2;" horiz-adv-x="430" 
d="M230 -15q-38 2 -71.5 19.5t-59 49t-40 76t-14.5 100.5q0 58 15.5 103.5t41.5 77t59 48t69 16.5v55h20v-57q20 -3 34 -11t25 -16q11 -10 21 -21q4 15 16.5 28t23.5 17h15q-2 -13 -3 -27q-1 -12 -1.5 -26t-0.5 -27q0 -15 0.5 -30.5t1.5 -27.5q1 -14 3 -27h-15
q-18 67 -51.5 105.5t-68.5 43.5v-449q26 0 49 10t41 27t29.5 41t15.5 52h15q-4 -31 -16.5 -57.5t-32 -46t-45.5 -31.5t-56 -14v-56h-20v55zM135 230q0 -57 7.5 -97t20.5 -67t30 -41t37 -18v447q-18 -3 -35 -16t-30.5 -39t-21.5 -67.5t-8 -101.5z" />
    <glyph glyph-name="circumflex" unicode="&#x2c6;" horiz-adv-x="251" 
d="M36 570h-25l115 130l115 -130h-25l-90 60z" />
    <glyph glyph-name="grave" unicode="`" horiz-adv-x="150" 
d="M140 580h-30l-100 120h90z" />
    <glyph glyph-name="sterling" unicode="&#xa3;" horiz-adv-x="510" 
d="M195 240q0 -53 -15 -86.5t-33 -53.5q-21 -23 -47 -35h335l20 95h15v-160h-430v45q19 20 35 49q13 24 24 60.5t11 85.5v130h-60v20h60v130q0 94 48 144.5t127 50.5q39 0 70 -11.5t52 -30.5t32 -44.5t11 -53.5q0 -11 -1.5 -20t-3.5 -14q-3 -7 -5 -11l-85 20l5 15
q2 7 3.5 14.5t1.5 15.5q0 53 -23 79t-57 26q-15 0 -31 -10t-29 -31.5t-21.5 -55.5t-8.5 -83v-130h170v-20h-170v-130z" />
    <glyph glyph-name="yen" unicode="&#xa5;" horiz-adv-x="490" 
d="M90 295h112l-147 380l-60 15v10h210v-10l-60 -15l142 -365l138 355l-65 25v10h150v-10l-65 -25l-144 -370h114v-20h-120v-45h120v-20h-120v-185l60 -15v-10h-205v10l60 15v185h-120v20h120v45h-120v20z" />
    <glyph glyph-name="registered" unicode="&#xae;" horiz-adv-x="790" 
d="M770 350q0 -79 -30 -148t-81 -120.5t-119 -81.5t-145 -30t-145 30t-119 81.5t-81 120.5t-30 148t30 148t81 120.5t119 81.5t145 30t145 -30t119 -81.5t81 -120.5t30 -148zM735 350q0 73 -27 137t-73.5 111t-108.5 74.5t-131 27.5t-131 -27.5t-108.5 -74.5t-73.5 -111
t-27 -137t27 -137t73.5 -111t108.5 -74.5t131 -27.5t131 27.5t108.5 74.5t73.5 111t27 137zM340 330v-175l55 -15v-10h-190v10l55 15v390l-55 15v10h165q52 0 90 -10.5t62.5 -27t36 -38.5t11.5 -44q0 -38 -23 -60t-50 -33q-32 -13 -72 -17q30 -4 55 -15q21 -10 40.5 -27.5
t24.5 -47.5l11 -65q3 -19 9.5 -27t14.5 -8q5 0 10 3t8 7q4 4 7 10l10 -10q-6 -11 -16 -20q-8 -8 -21.5 -14t-32.5 -6q-34 0 -52 17.5t-23 47.5l-11 65q-6 38 -26.5 59t-62.5 21h-30zM370 350q53 0 81.5 27.5t28.5 72.5t-28.5 72.5t-81.5 27.5h-30v-200h30z" />
    <glyph glyph-name="copyright" unicode="&#xa9;" horiz-adv-x="790" 
d="M770 350q0 -79 -30 -148t-81 -120.5t-119 -81.5t-145 -30t-145 30t-119 81.5t-81 120.5t-30 148t30 148t81 120.5t119 81.5t145 30t145 -30t119 -81.5t81 -120.5t30 -148zM735 350q0 73 -27 137t-73.5 111t-108.5 74.5t-131 27.5t-131 -27.5t-108.5 -74.5t-73.5 -111
t-27 -137t27 -137t73.5 -111t108.5 -74.5t131 -27.5t131 27.5t108.5 74.5t73.5 111t27 137zM405 560q-17 0 -34.5 -11t-32 -36t-24 -65t-9.5 -98t9.5 -98t25 -65t35 -36t40.5 -11q24 0 46 9.5t39.5 26.5t29 40t15.5 49h15q-4 -30 -17.5 -56.5t-34 -46t-47 -31t-56.5 -11.5
q-38 0 -72 16t-60.5 46t-42 72.5t-15.5 95.5q0 52 15.5 94.5t41 72.5t57.5 46.5t66 16.5q24 0 42.5 -8t31.5 -17q15 -11 26 -25q4 15 16.5 28t23.5 17h15q-2 -13 -3 -27q-1 -12 -1.5 -26t-0.5 -27q0 -14 0.5 -27.5t1.5 -25.5q1 -14 3 -27h-15q-19 68 -55.5 106.5t-74.5 38.5
z" />
    <glyph glyph-name="dagger" unicode="&#x2020;" horiz-adv-x="442" 
d="M276 700q-11 -25 -20 -59q-8 -29 -14 -73.5t-6 -102.5q35 0 65 6t51 14q25 9 44 20l26 -55l-26 -55q-19 11 -44 20q-21 8 -51 14t-65 6q0 -104 7 -181.5t16 -131.5q10 -62 23 -107l-61 -40l-60 40q12 45 22 107q8 54 15.5 131.5t7.5 181.5q-36 0 -65.5 -6t-50.5 -14
q-25 -9 -44 -20l-26 55l26 55q19 -11 44 -20q21 -8 50.5 -14t65.5 -6q0 58 -6 102.5t-14 73.5q-9 34 -20 59l55 25z" />
    <glyph glyph-name="exclam" unicode="!" horiz-adv-x="240" 
d="M120 715q26 0 43 -18t17 -52l-45 -485h-30l-45 485q0 34 17 52t43 18zM65 45q0 23 16 39t39 16t39 -16t16 -39t-16 -39t-39 -16t-39 16t-16 39z" />
    <glyph glyph-name="question" unicode="?" horiz-adv-x="460" 
d="M160 45q0 23 16 39t39 16t39 -16t16 -39t-16 -39t-39 -16t-39 16t-16 39zM430 500q0 -43 -14.5 -80t-39 -65.5t-56 -48t-65.5 -26.5l-25 -125h-30q-2 26 -6 52q-3 22 -9 47t-15 46q83 0 124 45.5t41 154.5q0 54 -10 92t-28 62t-44 35t-58 11t-60 -12t-49 -32.5
t-33.5 -46.5t-12.5 -54q0 -26 20.5 -43t69.5 -17l20 -80q-4 -2 -9 -3t-10.5 -1.5t-10.5 -0.5q-42 0 -71 33.5t-29 101.5q0 36 14 67.5t39 55.5t59 38t73 14q51 0 92.5 -16t71 -45t45.5 -69.5t16 -89.5z" />
    <glyph glyph-name="braceleft" unicode="{" horiz-adv-x="285" 
d="M20 300q21 2 37.5 10.5t28 27t18 49.5t6.5 78v145q0 91 41.5 135.5t113.5 44.5v-20q-15 0 -27 -6t-20.5 -23.5t-13 -48.5t-4.5 -82v-145q0 -62 -20.5 -97t-44.5 -52q-29 -20 -65 -26q36 -6 65 -26q24 -17 44.5 -52.5t20.5 -96.5v-145q0 -51 4.5 -82t13 -48.5t20.5 -23.5
t27 -6v-20q-72 0 -113.5 44.5t-41.5 135.5v145q0 47 -6.5 78t-18 49.5t-28 27t-37.5 10.5v20z" />
    <glyph glyph-name="braceright" unicode="}" horiz-adv-x="285" 
d="M265 280q-21 -2 -37.5 -10.5t-28 -27t-18 -49.5t-6.5 -78v-145q0 -91 -41.5 -135.5t-113.5 -44.5v20q15 0 27 6t20.5 23.5t13 48.5t4.5 82v145q0 61 20 96.5t45 52.5q28 20 65 26q-37 6 -65 26q-25 17 -45 52t-20 97v145q0 51 -4.5 82t-13 48.5t-20.5 23.5t-27 6v20
q72 0 113.5 -44.5t41.5 -135.5v-145q0 -47 6.5 -78t18 -49.5t28 -27t37.5 -10.5v-20v0z" />
    <glyph glyph-name="parenleft" unicode="(" horiz-adv-x="275" 
d="M60 290q0 64 8.5 120t22 104.5t31 89t35.5 73.5q43 77 98 133l10 -10q-32 -50 -58 -124q-22 -63 -39.5 -158.5t-17.5 -227.5t17.5 -227.5t39.5 -158.5q26 -74 58 -124l-10 -10q-55 55 -98 132q-18 33 -35.5 73.5t-31 89.5t-22 105t-8.5 120z" />
    <glyph glyph-name="parenright" unicode=")" horiz-adv-x="275" 
d="M215 290q0 -64 -8.5 -120t-22 -105t-31.5 -89.5t-36 -73.5q-43 -77 -97 -132l-10 10q31 50 57 124q22 63 40 158.5t18 227.5t-18 227.5t-40 158.5q-26 74 -57 124l10 10q54 -56 97 -133q18 -33 36 -73.5t31.5 -89t22 -104.5t8.5 -120z" />
    <glyph glyph-name="bracketleft" unicode="[" horiz-adv-x="260" 
d="M75 -200v980h185v-20h-100v-940h100v-20h-185z" />
    <glyph glyph-name="bracketright" unicode="]" horiz-adv-x="260" 
d="M0 -200v20h100v940h-100v20h185v-980h-185z" />
    <glyph glyph-name="at" unicode="@" horiz-adv-x="830" 
d="M475 310q-60 0 -92.5 -31.5t-32.5 -88.5q0 -38 13 -54t32 -16q17 0 31.5 12.5t25.5 27.5q12 18 23 40v110zM435 -55q47 0 87 12.5t69 27.5q34 18 63 40l11 -15q-29 -26 -66 -45q-32 -17 -76 -31t-98 -14q-88 0 -161 28.5t-125 79.5t-80.5 122t-28.5 155t28.5 155
t79.5 122t122 79.5t155 28.5t155 -28t122 -76.5t79.5 -113t28.5 -137.5q0 -54 -15.5 -97.5t-42 -74t-61 -47t-71.5 -16.5q-42 0 -68 10t-41 22q-18 14 -26 33q-11 -19 -25 -33q-12 -12 -29.5 -22t-40.5 -10q-57 0 -88.5 29t-31.5 71q0 24 12.5 47.5t38.5 42t67 29.5t97 11
v45q0 60 -18.5 85t-41.5 25q-19 0 -34.5 -18t-15.5 -52q0 -12 3 -18q1 -4 3 -7l-81 -20q-2 3 -3 7q-2 8 -2 18q0 45 33 75t97 30q32 0 58 -9.5t44 -26.5t28 -40t10 -49v-175q0 -45 16 -65t39 -20q21 0 40.5 11t35 37t25 68t9.5 104q0 73 -24.5 134.5t-66 106t-97 69.5
t-117.5 25t-117.5 -25.5t-97 -72.5t-66 -115t-24.5 -152q0 -83 25 -149.5t68.5 -113t103 -72t128.5 -25.5z" />
    <glyph glyph-name="ampersand" unicode="&#x26;" horiz-adv-x="530" 
d="M275 5q60 0 97.5 37.5t37.5 97.5q0 57 -29 88.5t-71 31.5q-25 0 -41 -6t-26 -14q-11 -9 -18 -20l-10 5q5 28 16 50q10 19 28.5 34.5t50.5 15.5q21 0 39 -4.5t36.5 -10.5t37.5 -10.5t42 -4.5q15 0 26 6t19 14q9 9 15 20h10q-4 -34 -20 -52.5t-34 -26.5q-21 -10 -46 -11
q8 -8 15 -20q5 -11 10 -26.5t5 -38.5q0 -34 -15 -65.5t-42 -56t-63.5 -39t-79.5 -14.5q-53 0 -95.5 16t-72.5 43.5t-46 65t-16 80.5q0 34 8 61t21 47.5t29.5 35.5t33.5 25q40 24 93 31q-45 7 -80 26q-15 8 -29.5 20t-25.5 28t-18 37.5t-7 48.5q0 36 13 66t37 52t59.5 34.5
t80.5 12.5q43 0 76.5 -11.5t56.5 -30.5t35 -44.5t12 -53.5q0 -11 -1.5 -20t-3.5 -14q-3 -7 -5 -11l-85 20l5 15q2 7 3.5 14.5t1.5 15.5q0 53 -25 79t-70 26q-21 0 -40 -9.5t-33.5 -28t-23 -47t-8.5 -65.5q0 -79 32.5 -114.5t92.5 -35.5h20v-20h-20q-64 0 -102 -44.5
t-38 -145.5q0 -98 38.5 -141.5t106.5 -43.5z" />
    <glyph glyph-name="less" unicode="&#x3c;" horiz-adv-x="360" 
d="M85 230l245 -185v-50l-310 235l310 235v-50z" />
    <glyph glyph-name="greater" unicode="&#x3e;" horiz-adv-x="360" 
d="M30 415v50l310 -235l-310 -235v50l245 185z" />
    <glyph glyph-name="afii61352" unicode="&#x2116;" horiz-adv-x="875" 
d="M460 665l-65 25v10h150v-10l-65 -25v-675h-15l-340 625v-580l65 -25v-10h-150v10l65 25v635l-65 20v10h135l285 -525v490zM715 695q-13 0 -25 -6.5t-21 -23t-14 -44.5t-5 -71t5 -71t14 -44.5t21 -23t25 -6.5t25 6.5t21 23t14 44.5t5 71t-5 71t-14 44.5t-21 23t-25 6.5z
M715 710q28 0 53.5 -11.5t44.5 -32.5t30.5 -50.5t11.5 -65.5t-11.5 -65.5t-30.5 -50.5t-44.5 -32.5t-53.5 -11.5t-53.5 11.5t-44.5 32.5t-30.5 50.5t-11.5 65.5t11.5 65.5t30.5 50.5t44.5 32.5t53.5 11.5zM835 340v-30h-240v30h240z" />
    <glyph glyph-name="asciitilde" unicode="~" horiz-adv-x="375" 
d="M290 350q44 0 60 55h15q-8 -64 -34.5 -92t-60.5 -28q-24 0 -49 8.5t-49 19t-46 19t-41 8.5q-44 0 -60 -55h-15q8 64 34.5 92t60.5 28q24 0 49 -8.5t49 -19t46 -19t41 -8.5z" />
    <glyph glyph-name="guillemotleft" unicode="&#xab;" horiz-adv-x="340" 
d="M320 90h-20l-140 140l140 140h20l-75 -140zM195 400h20l-115 -170l115 -170h-20l-185 170z" />
    <glyph glyph-name="guillemotright" unicode="&#xbb;" horiz-adv-x="340" 
d="M95 230l-75 140h20l140 -140l-140 -140h-20zM330 230l-185 -170h-20l115 170l-115 170h20z" />
    <glyph glyph-name="percent" unicode="%" horiz-adv-x="620" 
d="M515 700h45l-455 -700h-45zM160 695q-13 0 -25 -6.5t-21 -23t-14 -44.5t-5 -71t5 -71t14 -44.5t21 -23t25 -6.5t25 6.5t21 23t14 44.5t5 71t-5 71t-14 44.5t-21 23t-25 6.5zM160 710q28 0 53.5 -11.5t44.5 -32.5t30.5 -50.5t11.5 -65.5t-11.5 -65.5t-30.5 -50.5
t-44.5 -32.5t-53.5 -11.5t-53.5 11.5t-44.5 32.5t-30.5 50.5t-11.5 65.5t11.5 65.5t30.5 50.5t44.5 32.5t53.5 11.5zM460 295q-13 0 -25 -6.5t-21 -23t-14 -44.5t-5 -71t5 -71t14 -44.5t21 -23t25 -6.5t25 6.5t21 23t14 44.5t5 71t-5 71t-14 44.5t-21 23t-25 6.5zM460 310
q28 0 53.5 -11.5t44.5 -32.5t30.5 -50.5t11.5 -65.5t-11.5 -65.5t-30.5 -50.5t-44.5 -32.5t-53.5 -11.5t-53.5 11.5t-44.5 32.5t-30.5 50.5t-11.5 65.5t11.5 65.5t30.5 50.5t44.5 32.5t53.5 11.5z" />
    <glyph glyph-name="germandbls" unicode="&#xdf;" horiz-adv-x="565" 
d="M275 380q0 26 9.5 49t20.5 45.5t20.5 46t9.5 49.5q0 67 -25 98.5t-55 31.5q-34 0 -59.5 -31t-25.5 -99v-545l50 -15v-10h-190v10l60 15v405l-60 15v15h60v110q0 30 11.5 56.5t33.5 46t52 31t68 11.5q34 0 62.5 -11.5t49 -31t32 -46t11.5 -56.5q0 -26 -11 -49t-24 -43.5
t-24 -39.5t-11 -38q0 -28 15 -48t38 -38t49.5 -36t49.5 -40.5t38 -52t15 -70.5q0 -28 -10 -52t-27.5 -41t-42.5 -27t-55 -10q-25 0 -43 7.5t-31 17.5q-15 11 -26 25q-4 -15 -16.5 -28t-23.5 -17h-15q1 13 2 27q1 12 2 25.5t1 27.5q0 15 -1 30t-2 27l-2 28h15
q19 -72 55.5 -111t74.5 -39q34 0 54.5 22.5t20.5 67.5q0 30 -15 52t-37 41t-48 36.5t-48 39.5t-37 49.5t-15 66.5z" />
    <glyph glyph-name="onehalf" unicode="&#xbd;" horiz-adv-x="570" 
d="M40 675v12l115 23v-290l40 -10v-10h-150v10l40 11v254h-45zM485 700h45l-455 -700h-45zM399 300q-13 0 -25 -5t-21 -13.5t-14.5 -19.5t-5.5 -22t10.5 -20.5t29.5 -9.5l10 -40q-2 -2 -6 -3q-8 -2 -14 -2q-19 0 -34.5 17t-15.5 43q0 38 27.5 64t69.5 26q60 0 89.5 -26.5
t29.5 -64.5q0 -35 -25 -68t-55 -59q-35 -30 -80 -57h141l10 50h10v-90h-231q43 38 77 78q15 17 29 36.5t25 39.5t17.5 40.5t6.5 40.5q0 30 -16 47.5t-39 17.5z" />
    <glyph glyph-name="onequarter" unicode="&#xbc;" horiz-adv-x="555" 
d="M465 300v-200q26 0 48 5q11 2 22 5v-10q-11 -8 -22 -13q-10 -5 -22 -8.5t-26 -3.5v-55l40 -10v-10h-150v10l40 10v55h-160q24 22 45 46t40.5 51.5t37.5 58.5t37 69h70zM395 265q-11 -24 -25 -48t-28.5 -45.5t-29.5 -40t-28 -31.5h111v165zM40 675v12l115 23v-290l40 -10
v-10h-150v10l40 11v254h-45zM485 700h45l-455 -700h-45z" />
    <glyph glyph-name="threequarters" unicode="&#xbe;" horiz-adv-x="575" 
d="M485 300v-200q26 0 48 5q11 2 22 5v-10q-11 -8 -22 -13q-10 -5 -22 -8.5t-26 -3.5v-55l40 -10v-10h-150v10l40 10v55h-160q24 22 45 46t40.5 51.5t37.5 58.5t37 69h70zM415 265q-11 -24 -25 -48t-28.5 -45.5t-29.5 -40t-28 -31.5h111v165zM505 700h45l-455 -700h-45z
M165 630q0 34 -13 49.5t-32 15.5q-40 0 -40 -40q0 -10 2 -18q1 -4 3 -7l-45 -10q-2 5 -3 9q-2 10 -2 16q0 26 23 45.5t72 19.5q53 0 79 -23t26 -57q0 -23 -13.5 -36.5t-29.5 -21.5q-18 -9 -42 -12q28 -3 50 -14q19 -9 34.5 -26t15.5 -45q0 -34 -30.5 -59.5t-94.5 -25.5
q-53 0 -79 23t-26 57q0 26 13 40.5t32 14.5q4 0 7.5 -1t6.5 -2q4 -1 6 -2l-11 -40q-19 0 -26 -7t-7 -18q0 -19 18 -34.5t56 -15.5q26 0 43 18t17 52q0 42 -13 58.5t-32 16.5h-25v15h25q11 0 23 15.5t12 49.5z" />
    <glyph glyph-name="period" unicode="." horiz-adv-x="190" 
d="M40 45q0 23 16 39t39 16t39 -16t16 -39t-16 -39t-39 -16t-39 16t-16 39z" />
    <glyph glyph-name="comma" unicode="," horiz-adv-x="190" 
d="M95 100q23 0 39 -17.5t16 -47.5q0 -44 -13.5 -71t-29.5 -43q-18 -18 -42 -27l-10 16q17 8 30 19q11 9 20.5 23t9.5 33q0 4 -1 6.5t-2 4.5l-2 4q-2 -2 -6 -3q-8 -2 -14 -2q-23 0 -36.5 13.5t-13.5 36.5t16 39t39 16z" />
    <glyph glyph-name="quotedblright" unicode="&#x201d;" horiz-adv-x="330" 
d="M95 710q23 0 39 -17.5t16 -47.5q0 -44 -13.5 -71t-29.5 -43q-18 -18 -42 -27l-10 16q17 8 30 19q11 9 20.5 23t9.5 33q0 4 -1 6.5t-2 4.5l-2 4q-2 -2 -6 -3q-8 -2 -14 -2q-23 0 -36.5 13.5t-13.5 36.5t16 39t39 16zM235 710q23 0 39 -17.5t16 -47.5q0 -44 -13.5 -71
t-29.5 -43q-18 -18 -42 -27l-10 16q17 8 30 19q11 9 20.5 23t9.5 33q0 4 -1 6.5t-2 4.5l-2 4q-2 -2 -6 -3q-8 -2 -14 -2q-23 0 -36.5 13.5t-13.5 36.5t16 39t39 16z" />
    <glyph glyph-name="quotedblleft" unicode="&#x201c;" horiz-adv-x="330" 
d="M235 504q-23 0 -39 17.5t-16 47.5q0 43 13 70.5t29 43.5q18 18 43 27l10 -16q-17 -8 -30 -19q-11 -10 -20.5 -23.5t-9.5 -32.5q0 -7 2 -11q1 -3 3 -4q2 1 6 2q3 1 6.5 2t7.5 1q23 0 36.5 -13.5t13.5 -36.5t-16 -39t-39 -16zM95 504q-23 0 -39 17.5t-16 47.5q0 43 13 70.5
t29 43.5q18 18 43 27l10 -16q-17 -8 -30 -19q-11 -10 -20.5 -23.5t-9.5 -32.5q0 -7 2 -11q1 -3 3 -4q2 1 6 2q3 1 6.5 2t7.5 1q23 0 36.5 -13.5t13.5 -36.5t-16 -39t-39 -16z" />
    <glyph glyph-name="colon" unicode=":" horiz-adv-x="190" 
d="M40 45q0 23 16 39t39 16t39 -16t16 -39t-16 -39t-39 -16t-39 16t-16 39zM40 415q0 23 16 39t39 16t39 -16t16 -39t-16 -39t-39 -16t-39 16t-16 39z" />
    <glyph glyph-name="semicolon" unicode=";" horiz-adv-x="190" 
d="M40 415q0 23 16 39t39 16t39 -16t16 -39t-16 -39t-39 -16t-39 16t-16 39zM95 100q23 0 39 -17.5t16 -47.5q0 -44 -13.5 -71t-29.5 -43q-18 -18 -42 -27l-10 16q17 8 30 19q11 9 20.5 23t9.5 33q0 4 -1 6.5t-2 4.5l-2 4q-2 -2 -6 -3q-8 -2 -14 -2q-23 0 -36.5 13.5
t-13.5 36.5t16 39t39 16z" />
    <glyph glyph-name="bullet" unicode="&#x2022;" horiz-adv-x="290" 
d="M220 300q0 -30 -22.5 -52.5t-52.5 -22.5t-52.5 22.5t-22.5 52.5t22.5 52.5t52.5 22.5t52.5 -22.5t22.5 -52.5z" />
    <glyph glyph-name="multiply" unicode="&#xd7;" horiz-adv-x="364" 
d="M154 300l-124 124l29 28l123 -124l121 120l28 -28l-121 -120l124 -124l-29 -28l-123 124l-121 -120l-28 28z" />
    <glyph glyph-name="plus" unicode="+" horiz-adv-x="440" 
d="M200 320v175h40v-175h170v-40h-170v-175h-40v175h-170v40h170z" />
    <glyph glyph-name="underscore" unicode="_" horiz-adv-x="380" 
d="M350 -50v-40h-320v40h320z" />
    <glyph glyph-name="endash" unicode="&#x2013;" horiz-adv-x="435" 
d="M405 290v-40h-375v40h375z" />
    <glyph glyph-name="emdash" unicode="&#x2014;" horiz-adv-x="635" 
d="M605 290v-40h-575v40h575z" />
    <glyph glyph-name="quotedbl" unicode="&#x22;" horiz-adv-x="300" 
d="M260 700l-30 -200h-30l-30 200h90zM130 700l-30 -200h-30l-30 200h90z" />
    <glyph glyph-name="quotesingle" unicode="'" horiz-adv-x="170" 
d="M130 700l-30 -200h-30l-30 200h90z" />
    <glyph glyph-name="section" unicode="&#xa7;" horiz-adv-x="445" 
d="M35 260q0 24 8.5 47t23.5 43t35 35.5t43 24.5q-34 30 -57 68t-23 87q0 32 11.5 59.5t31.5 47.5t47.5 31.5t59.5 11.5q37 0 67 -10.5t50.5 -27t31.5 -38.5t11 -44q0 -10 -1 -16t-2 -11t-2 -8l-85 20l2 10t2 11t1 14q0 34 -22.5 57t-52.5 23q-34 0 -59.5 -28.5t-25.5 -81.5
q0 -34 20.5 -61t52 -51.5t67.5 -50t67.5 -55t52 -66.5t20.5 -86t-26 -85.5t-64 -59.5q38 -30 61.5 -71t23.5 -94q0 -32 -13 -61t-36 -51t-54 -35t-67 -13q-45 0 -80.5 12t-59.5 33t-37 48t-13 57q0 9 0.5 15.5t1.5 11.5t3 8l85 -20q-2 -5 -3 -10t-1.5 -11t-0.5 -14
q0 -53 28 -81.5t77 -28.5q19 0 37 9t32 25t22.5 38t8.5 48q0 44 -22 75t-55.5 56t-72.5 47.5t-72.5 49.5t-55.5 62t-22 85zM340 195q0 32 -17 59t-43 51t-58 47.5t-62 47.5q-26 -15 -43 -48.5t-17 -71.5q0 -34 19.5 -60t49.5 -49t66 -45t70 -46q15 19 25 48t10 67z" />
    <glyph glyph-name="slash" unicode="/" horiz-adv-x="430" 
d="M385 700h45l-385 -700h-45z" />
    <glyph glyph-name="logicalnot" unicode="&#xac;" horiz-adv-x="440" 
d="M410 340v-135h-40v95h-340v40h380z" />
    <glyph glyph-name="ordmasculine" unicode="&#xba;" horiz-adv-x="320" 
d="M160 695q-13 0 -25 -6.5t-21 -23t-14 -44.5t-5 -71t5 -71t14 -44.5t21 -23t25 -6.5t25 6.5t21 23t14 44.5t5 71t-5 71t-14 44.5t-21 23t-25 6.5zM160 710q28 0 53.5 -11.5t44.5 -32.5t30.5 -50.5t11.5 -65.5t-11.5 -65.5t-30.5 -50.5t-44.5 -32.5t-53.5 -11.5t-53.5 11.5
t-44.5 32.5t-30.5 50.5t-11.5 65.5t11.5 65.5t30.5 50.5t44.5 32.5t53.5 11.5z" />
    <glyph glyph-name="onesuperior" unicode="&#xb9;" horiz-adv-x="215" 
d="M30 675v12l115 23v-290l40 -10v-10h-150v10l40 11v254h-45z" />
    <glyph glyph-name="twosuperior" unicode="&#xb2;" horiz-adv-x="286" 
d="M120 700q-13 0 -25 -5t-21 -13.5t-14.5 -19.5t-5.5 -22t10.5 -20.5t29.5 -9.5l10 -40q-2 -2 -6 -3q-8 -2 -14 -2q-19 0 -34.5 17t-15.5 43q0 38 27.5 64t69.5 26q60 0 89.5 -26.5t29.5 -64.5q0 -35 -25 -68t-55 -59q-35 -30 -80 -57h141l10 50h10v-90h-231q43 38 77 78
q15 17 29 36.5t25 39.5t17.5 40.5t6.5 40.5q0 30 -16 47.5t-39 17.5z" />
    <glyph glyph-name="threesuperior" unicode="&#xb3;" horiz-adv-x="285" 
d="M165 630q0 34 -13 49.5t-32 15.5q-40 0 -40 -40q0 -10 2 -18q1 -4 3 -7l-45 -10q-2 5 -3 9q-2 10 -2 16q0 26 23 45.5t72 19.5q53 0 79 -23t26 -57q0 -23 -13.5 -36.5t-29.5 -21.5q-18 -9 -42 -12q28 -3 50 -14q19 -9 34.5 -26t15.5 -45q0 -34 -30.5 -59.5t-94.5 -25.5
q-53 0 -79 23t-26 57q0 26 13 40.5t32 14.5q4 0 7.5 -1t6.5 -2q4 -1 6 -2l-11 -40q-19 0 -26 -7t-7 -18q0 -19 18 -34.5t56 -15.5q26 0 43 18t17 52q0 42 -13 58.5t-32 16.5h-25v15h25q11 0 23 15.5t12 49.5z" />
    <glyph glyph-name="ordfeminine" unicode="&#xaa;" horiz-adv-x="326" 
d="M201 610q0 45 -15.5 65t-34.5 20t-32 -13t-13 -32q0 -4 0.5 -9t1.5 -10t3 -11l-65 -10q-2 6 -3 11t-1.5 8.5t-0.5 5.5q0 30 27.5 52.5t87.5 22.5q53 0 84 -29t31 -71v-188l40 -12v-10h-110v35q-11 -13 -24 -23q-11 -8 -26.5 -15t-34.5 -7q-45 0 -70.5 23t-25.5 57
q0 17 10.5 34.5t33 32t56.5 24t81 9.5v40zM201 555q-53 0 -79.5 -23.5t-26.5 -61.5q0 -30 13 -45t28 -15q13 0 25 7.5t21 17.5q11 11 19 25v95z" />
    <glyph glyph-name="degree" unicode="&#xb0;" horiz-adv-x="340" 
d="M105 575q0 -34 5 -57t14 -37t21 -20t25 -6t25 6t21 20t14 37t5 57t-5 57t-14 37t-21 20t-25 6t-25 -6t-21 -20t-14 -37t-5 -57zM300 575q0 -28 -10.5 -52.5t-28.5 -43t-41.5 -29t-49.5 -10.5t-49.5 10.5t-41.5 29t-28.5 43t-10.5 52.5t10.5 52.5t28.5 43t41.5 29
t49.5 10.5t49.5 -10.5t41.5 -29t28.5 -43t10.5 -52.5z" />
    <glyph glyph-name="afii10148" unicode="&#x474;" horiz-adv-x="515" 
d="M395 535q12 56 24.5 91.5t25.5 55t26.5 26.5t28.5 7q5 0 10 -1t8 -2q4 -1 7 -2l15 -70q-5 1 -9 2l-8 2t-8 1q-21 0 -36 -5t-27 -17.5t-21 -34t-16 -53.5l-130 -550h-15l-210 690l-60 15v10h210v-10l-60 -15l157 -515z" />
    <glyph glyph-name="afii10196" unicode="&#x475;" horiz-adv-x="430" 
d="M320 320q14 49 26 79t23.5 47t21.5 23t19 6q5 0 10 -1t8 -2q4 -1 7 -2l15 -70q-5 1 -9 2l-8 2t-8 1q-34 0 -52.5 -17.5t-32.5 -67.5l-95 -335h-15l-170 450l-60 15v10h200v-10l-55 -15l119 -314z" />
    <glyph glyph-name="afii10017" unicode="&#x410;" horiz-adv-x="520" 
d="M135 224h194l-100 331zM335 205h-205l-50 -170l65 -25v-10h-150v10l65 25l195 680h15l210 -690l60 -15v-10h-210v10l60 15z" />
    <glyph glyph-name="j" unicode="j" horiz-adv-x="260" 
d="M-60 -150q0 17 5 30.5t12 23.5q8 11 18 21l75 -30q-10 -10 -18 -21q-7 -10 -12 -23.5t-5 -30.5q0 -26 13 -40.5t32 -14.5q9 0 18 5.5t16 19t11.5 36.5t4.5 59v550l-60 15v10h140v-575q0 -30 -10 -55t-27 -42.5t-41 -27.5t-52 -10q-26 0 -48 8.5t-38 22.5t-25 32t-9 37z
M195 575q0 -19 -15.5 -34.5t-34.5 -15.5t-34.5 15.5t-15.5 34.5t15.5 34.5t34.5 15.5t34.5 -15.5t15.5 -34.5z" />
    <glyph glyph-name="hyphen" unicode="-" horiz-adv-x="380" 
d="M350 310v-40h-320v40h320z" />
    <glyph glyph-name="backslash" unicode="\" horiz-adv-x="430" 
d="M430 0h-45l-385 700h45z" />
    <glyph glyph-name="asterisk" unicode="*" horiz-adv-x="370" 
d="M185 710q9 0 16.5 -1.5t12.5 -3.5q6 -3 11 -5l-30 -120l5 -5l90 85q19 -8 29.5 -27.5t10.5 -42.5l-120 -30v-10l120 -30q0 -23 -10.5 -42.5t-29.5 -27.5l-90 85l-5 -5l30 -120q-5 -3 -11 -5q-12 -5 -29 -5t-29 5q-6 2 -11 5l30 120l-5 5l-90 -85q-19 8 -29.5 27.5
t-10.5 42.5l120 30v10l-120 30q0 23 10.5 42.5t29.5 27.5l90 -85l5 5l-30 120q5 2 11 5q5 2 12 3.5t17 1.5z" />
    <glyph glyph-name="equal" unicode="=" horiz-adv-x="410" 
d="M380 250v-40h-350v40h350zM380 390v-40h-350v40h350z" />
    <glyph glyph-name="bar" unicode="|" horiz-adv-x="205" 
d="M75 700h55v-940h-55v940z" />
    <glyph glyph-name="brokenbar" unicode="&#xa6;" horiz-adv-x="205" 
d="M75 160h55v-400h-55v400zM130 300h-55v400h55v-400z" />
    <glyph glyph-name="quotesinglbase" unicode="&#x201a;" horiz-adv-x="190" 
d="M95 100q23 0 39 -17.5t16 -47.5q0 -44 -13.5 -71t-29.5 -43q-18 -18 -42 -27l-10 16q17 8 30 19q11 9 20.5 23t9.5 33q0 4 -1 6.5t-2 4.5l-2 4q-2 -2 -6 -3q-8 -2 -14 -2q-23 0 -36.5 13.5t-13.5 36.5t16 39t39 16z" />
    <glyph glyph-name="quotedblbase" unicode="&#x201e;" horiz-adv-x="330" 
d="M95 100q23 0 39 -17.5t16 -47.5q0 -44 -13.5 -71t-29.5 -43q-18 -18 -42 -27l-10 16q17 8 30 19q11 9 20.5 23t9.5 33q0 4 -1 6.5t-2 4.5l-2 4q-2 -2 -6 -3q-8 -2 -14 -2q-23 0 -36.5 13.5t-13.5 36.5t16 39t39 16zM235 100q23 0 39 -17.5t16 -47.5q0 -44 -13.5 -71
t-29.5 -43q-18 -18 -42 -27l-10 16q17 8 30 19q11 9 20.5 23t9.5 33q0 4 -1 6.5t-2 4.5l-2 4q-2 -2 -6 -3q-8 -2 -14 -2q-23 0 -36.5 13.5t-13.5 36.5t16 39t39 16z" />
    <glyph glyph-name="ellipsis" unicode="&#x2026;" horiz-adv-x="570" 
d="M40 45q0 23 16 39t39 16t39 -16t16 -39t-16 -39t-39 -16t-39 16t-16 39zM230 45q0 23 16 39t39 16t39 -16t16 -39t-16 -39t-39 -16t-39 16t-16 39zM420 45q0 23 16 39t39 16t39 -16t16 -39t-16 -39t-39 -16t-39 16t-16 39z" />
    <glyph glyph-name="perthousand" unicode="&#x2030;" horiz-adv-x="920" 
d="M515 700h45l-455 -700h-45zM160 695q-13 0 -25 -6.5t-21 -23t-14 -44.5t-5 -71t5 -71t14 -44.5t21 -23t25 -6.5t25 6.5t21 23t14 44.5t5 71t-5 71t-14 44.5t-21 23t-25 6.5zM160 710q28 0 53.5 -11.5t44.5 -32.5t30.5 -50.5t11.5 -65.5t-11.5 -65.5t-30.5 -50.5
t-44.5 -32.5t-53.5 -11.5t-53.5 11.5t-44.5 32.5t-30.5 50.5t-11.5 65.5t11.5 65.5t30.5 50.5t44.5 32.5t53.5 11.5zM440 295q-13 0 -25 -6.5t-21 -23t-14 -44.5t-5 -71t5 -71t14 -44.5t21 -23t25 -6.5t25 6.5t21 23t14 44.5t5 71t-5 71t-14 44.5t-21 23t-25 6.5zM440 310
q28 0 53.5 -11.5t44.5 -32.5t30.5 -50.5t11.5 -65.5t-11.5 -65.5t-30.5 -50.5t-44.5 -32.5t-53.5 -11.5t-53.5 11.5t-44.5 32.5t-30.5 50.5t-11.5 65.5t11.5 65.5t30.5 50.5t44.5 32.5t53.5 11.5zM760 295q-13 0 -25 -6.5t-21 -23t-14 -44.5t-5 -71t5 -71t14 -44.5t21 -23
t25 -6.5t25 6.5t21 23t14 44.5t5 71t-5 71t-14 44.5t-21 23t-25 6.5zM760 310q28 0 53.5 -11.5t44.5 -32.5t30.5 -50.5t11.5 -65.5t-11.5 -65.5t-30.5 -50.5t-44.5 -32.5t-53.5 -11.5t-53.5 11.5t-44.5 32.5t-30.5 50.5t-11.5 65.5t11.5 65.5t30.5 50.5t44.5 32.5t53.5 11.5
z" />
    <glyph glyph-name="guilsinglleft" unicode="&#x2039;" horiz-adv-x="300" 
d="M255 450l15 -15l-155 -205l155 -205l-15 -15l-235 220z" />
    <glyph glyph-name="guilsinglright" unicode="&#x203a;" horiz-adv-x="300" 
d="M280 230l-235 -220l-15 15l155 205l-155 205l15 15z" />
    <glyph glyph-name="quoteright" unicode="&#x2019;" horiz-adv-x="190" 
d="M95 710q23 0 39 -17.5t16 -47.5q0 -44 -13.5 -71t-29.5 -43q-18 -18 -42 -27l-10 16q17 8 30 19q11 9 20.5 23t9.5 33q0 4 -1 6.5t-2 4.5l-2 4q-2 -2 -6 -3q-8 -2 -14 -2q-23 0 -36.5 13.5t-13.5 36.5t16 39t39 16z" />
    <glyph glyph-name="quoteleft" unicode="&#x2018;" horiz-adv-x="190" 
d="M95 504q-23 0 -39 17.5t-16 47.5q0 43 13 70.5t29 43.5q18 18 43 27l10 -16q-17 -8 -30 -19q-11 -10 -20.5 -23.5t-9.5 -32.5q0 -7 2 -11q1 -3 3 -4q2 1 6 2q3 1 6.5 2t7.5 1q23 0 36.5 -13.5t13.5 -36.5t-16 -39t-39 -16z" />
    <glyph glyph-name="trademark" unicode="&#x2122;" horiz-adv-x="730" 
d="M75 685q-4 -30 -17 -54t-28 -36h-10q1 9 2 19q1 8 2 16.5t1 14.5q0 9 -1 19t-2 18q-1 10 -2 18h260q-2 -8 -3 -18q-1 -8 -1.5 -18t-0.5 -19q0 -6 0.5 -14.5t1.5 -16.5q1 -10 3 -19h-10q-15 12 -28 36t-17 54h-40v-265l40 -10v-10h-150v10l40 10v265h-40zM705 410v-10
h-150v10l40 10v225l-101 -255h-10l-124 255v-220l40 -15v-10h-95v10l40 15v255l-40 10v10h100l108 -220l87 220h105v-10l-40 -10v-260z" />
    <glyph glyph-name="periodcentered" unicode="&#xb7;" horiz-adv-x="240" 
d="M65 350q0 23 16 39t39 16t39 -16t16 -39t-16 -39t-39 -16t-39 16t-16 39z" />
    <glyph glyph-name="afii10101" unicode="&#x454;" horiz-adv-x="430" 
d="M240 455q-18 0 -36.5 -11t-33.5 -36t-24.5 -66t-10.5 -102h85l35 80h10v-180h-10l-35 80h-85q1 -61 10.5 -102t25.5 -66t36.5 -36t42.5 -11q26 0 49 10t41 27t29.5 41t15.5 52h15q-4 -32 -17.5 -59.5t-34.5 -47.5t-48.5 -31.5t-59.5 -11.5q-39 0 -74.5 16.5t-62.5 48
t-42.5 77t-15.5 103.5t15.5 103.5t41.5 77t59 48t69 16.5q24 0 42.5 -8t31.5 -17q15 -11 26 -25q4 15 16.5 28t23.5 17h15q-2 -13 -3 -27q-1 -12 -1.5 -26t-0.5 -27q0 -15 0.5 -30.5t1.5 -27.5q1 -14 3 -27h-15q-19 72 -55.5 111t-74.5 39z" />
    <glyph glyph-name="afii10054" unicode="&#x405;" horiz-adv-x="465" 
d="M110 570q0 -41 24 -70.5t60 -54.5t78.5 -49t78.5 -54.5t60 -71.5t24 -100q0 -39 -14 -73t-39.5 -59t-60.5 -39t-76 -14q-38 0 -65 7.5t-45 17.5q-21 11 -35 25q-8 -15 -21.5 -28t-28.5 -17h-15q1 14 2 30q1 13 2 29t1 31q0 17 -1 33.5t-2 30.5q-1 16 -2 31h15
q23 -83 66.5 -126.5t118.5 -43.5q60 0 97.5 38.5t37.5 106.5q0 41 -24 70.5t-60 54.5t-78.5 49t-78.5 54.5t-60 71.5t-24 100q0 34 13 64t36 52.5t54 35.5t67 13q30 0 53 -8t39 -17q18 -11 33 -25q8 15 21.5 28t28.5 17h15q-2 -15 -3 -30q-1 -14 -1.5 -29.5t-0.5 -30.5
q0 -17 0.5 -33.5t1.5 -30.5q1 -16 3 -31h-15q-23 83 -64 126.5t-101 43.5q-49 0 -82 -34t-33 -91z" />
    <glyph glyph-name="afii10102" unicode="&#x455;" horiz-adv-x="405" 
d="M215 -15q-32 0 -55 7.5t-37 17.5q-17 11 -28 25q-4 -15 -16.5 -28t-23.5 -17h-15q1 13 2 27q1 12 2 25.5t1 27.5q0 15 -1 30t-2 27l-2 28h15q19 -72 58 -111t92 -39q42 0 68.5 26t26.5 64q0 27 -18.5 47t-46.5 36.5t-60 32.5t-60 36t-46.5 47t-18.5 66q0 22 10 43
t27.5 37t42.5 25.5t55 9.5q26 0 45.5 -8t33.5 -17q15 -11 26 -25q4 15 16.5 28t23.5 17h15q-2 -13 -3 -27q-1 -12 -1.5 -26t-0.5 -27q0 -15 0.5 -30.5t1.5 -27.5q1 -14 3 -27h-15q-19 72 -56 111t-79 39q-34 0 -57 -22.5t-23 -52.5q0 -25 19 -43t47 -33.5t61.5 -31.5
t61.5 -37t47 -50t19 -70q0 -24 -11.5 -47.5t-32 -42t-49 -29.5t-62.5 -11z" />
    <glyph glyph-name="afii10053" unicode="&#x404;" horiz-adv-x="490" 
d="M285 695q-28 0 -54.5 -15t-47 -52t-33.5 -99.5t-15 -158.5h110l45 90h10v-200h-10l-45 90h-110q0 -101 13 -167.5t35 -106t51 -55.5t61 -16q28 0 55 15t49 40t37 58.5t19 71.5h15q-4 -45 -20 -82.5t-40.5 -65t-56.5 -42.5t-68 -15q-47 0 -91 22.5t-78.5 68t-55 114
t-20.5 160.5t20.5 160.5t54 114t75.5 68t85 22.5q24 0 43.5 -8t33.5 -18q16 -11 28 -25q8 15 21.5 28.5t28.5 17.5h15q-2 -15 -3 -30q-1 -14 -1.5 -29.5t-0.5 -30.5q0 -17 0.5 -33.5t1.5 -30.5q1 -16 3 -31h-15q-23 83 -61.5 126.5t-83.5 43.5z" />
    <glyph glyph-name="afii10057" unicode="&#x408;" horiz-adv-x="490" 
d="M400 190q0 -47 -14.5 -85t-41 -64.5t-64.5 -41t-85 -14.5q-38 0 -70.5 14t-57 37t-38.5 52.5t-14 61.5q0 57 23.5 85t56.5 35l70 -60q-100 -15 -100 -105q0 -19 9 -37t26 -32t41 -22.5t54 -8.5q24 0 46 10.5t38.5 33t26 57.5t9.5 84v485l-60 15v10h205v-10l-60 -15v-485z
" />
    <glyph glyph-name="afii10105" unicode="&#x458;" horiz-adv-x="265" 
d="M-60 -150q0 17 5 30.5t12 23.5q8 11 18 21l75 -30q-10 -10 -18 -21q-7 -10 -12 -23.5t-5 -30.5q0 -26 13 -40.5t32 -14.5q9 0 18 5.5t16 19t11.5 36.5t4.5 59v550l-60 15v10h140v-575q0 -30 -10 -55t-27 -42.5t-41 -27.5t-52 -10q-26 0 -48 8.5t-38 22.5t-25 32t-9 37z
M195 575q0 -19 -15.5 -34.5t-34.5 -15.5t-34.5 15.5t-15.5 34.5t15.5 34.5t34.5 15.5t34.5 -15.5t15.5 -34.5z" />
    <glyph glyph-name="uni00AD" unicode="&#xad;" horiz-adv-x="410" 
d="M380 310v-40h-350v40h350z" />
    <glyph glyph-name="plusminus" unicode="&#xb1;" horiz-adv-x="440" 
d="M200 160v150h-170v40h170v175h40v-175h170v-40h-170v-150h166v-40h-370v40h164z" />
    <glyph glyph-name="afii10055" unicode="&#x406;" horiz-adv-x="295" 
d="M190 25l60 -15v-10h-205v10l60 15v650l-60 15v10h205v-10l-60 -15v-650z" />
    <glyph glyph-name="afii10103" unicode="&#x456;" horiz-adv-x="260" 
d="M95 25v410l-60 15v10h140v-435l60 -15v-10h-200v10zM180 575q0 -19 -15.5 -34.5t-34.5 -15.5t-34.5 15.5t-15.5 34.5t15.5 34.5t34.5 15.5t34.5 -15.5t15.5 -34.5z" />
    <glyph glyph-name="afii10052" unicode="&#x403;" horiz-adv-x="455" 
d="M190 25l60 -15v-10h-205v10l60 15v650l-60 15v10h385q-2 -9 -3 -21q-1 -11 -1.5 -25.5t-0.5 -33.5q0 -14 0.5 -27.5t1.5 -25.5q1 -14 3 -27h-10q-26 26 -43 62t-17 78h-170v-655zM275 860h90l-100 -120h-30z" />
    <glyph glyph-name="afii10100" unicode="&#x453;" horiz-adv-x="400" 
d="M175 440v-415l60 -15v-10h-200v10l60 15v410l-60 15v10h340q-2 -10 -3 -21q-1 -10 -1.5 -23.5t-0.5 -30.5q0 -11 0.5 -24.5t1.5 -24.5q1 -13 3 -26h-10q-26 23 -43 55.5t-17 74.5h-130zM240 620h90l-100 -120h-30z" />
    <glyph glyph-name="afii10061" unicode="&#x40c;" horiz-adv-x="540" 
d="M290 860h90l-100 -120h-30zM190 252v-227l60 -15v-10h-205v10l60 15v650l-60 15v10h205v-10l-60 -15v-380l125 270q20 43 36.5 71t31 44.5t28.5 23t29 6.5q4 0 8 -1l8 -2t9 -2l15 -75l-10 2t-11 2t-14 1q-45 0 -70.5 -20t-39.5 -50l-50 -110l215 -430l60 -15v-10h-211v10
l60 15l-168 336z" />
    <glyph glyph-name="afii10109" unicode="&#x45c;" horiz-adv-x="470" 
d="M255 620h90l-100 -120h-30zM219 221l-44 -76v-120l55 -15v-10h-195v10l60 15v410l-60 15v10h205v-10l-65 -15v-255l90 160q23 41 39 66.5t28.5 39.5t23.5 19t24 5q5 0 10 -1t8 -2q4 -1 7 -2l15 -70l-12 2q-5 1 -11.5 2t-11.5 1q-41 0 -62 -15t-38 -45l-25 -44l165 -271
l60 -15v-10h-202v10l55 15z" />
    <glyph glyph-name="afii10062" unicode="&#x40e;" horiz-adv-x="490" 
d="M276 770q19 0 32 14.5t13 40.5q0 8 -1 14.5t-2 12.5t-2 13h70q1 -4 2 -9t2 -10.5t1 -10.5q0 -34 -27.5 -57t-87.5 -23t-87.5 23t-27.5 57q0 5 0.5 10.5t1.5 10.5t3 9h70q-2 -7 -3 -13t-1.5 -12.5t-0.5 -14.5q0 -26 13 -40.5t32 -14.5zM299 252l126 413l-65 25v10h150v-10
l-65 -25l-167 -545q-14 -45 -29 -75.5t-32 -49.5t-37.5 -27t-44.5 -8q-6 0 -11 0.5t-10 1.5t-9 3l-15 70q4 -2 9 -3t10 -1.5t11 -0.5q64 0 94 24t44 66l-208 555l-60 15v10h210v-10l-60 -15z" />
    <glyph glyph-name="afii10110" unicode="&#x45e;" horiz-adv-x="435" 
d="M245 530q19 0 32 14.5t13 40.5q0 8 -1 14t-2 11l-2 10h65q1 -3 2 -7q1 -3 2 -8t1 -10q0 -34 -26.5 -57t-83.5 -23t-83.5 23t-26.5 57q0 10 2 18q1 4 3 7h65q-2 -5 -3 -10t-1.5 -11t-0.5 -14q0 -26 13 -40.5t32 -14.5zM215 -85q-16 -47 -31 -78.5t-31.5 -51t-34 -27.5
t-38.5 -8q-6 0 -11 0.5t-10 1.5t-9 3l-15 75q4 -2 9 -3t10 -1.5t11 -0.5q60 0 87.5 22.5t42.5 67.5l28 85l-173 435l-60 15v10h200v-10l-55 -15l127 -319l103 309l-65 25v10h150v-10l-65 -25z" />
    <glyph glyph-name="afii10050" unicode="&#x490;" horiz-adv-x="440" 
d="M190 680v-655l60 -15v-10h-205v10l60 15v650l-60 15v10h315q0 34 17 65.5t43 54.5h10q-2 -14 -3 -26q-1 -11 -1.5 -23t-0.5 -21q0 -15 0.5 -28t1.5 -22q1 -11 3 -20h-240z" />
    <glyph glyph-name="afii10098" unicode="&#x491;" horiz-adv-x="380" 
d="M175 440v-415l60 -15v-10h-200v10l60 15v410l-60 15v10h265q0 34 17 62.5t43 47.5h10q-2 -13 -3 -25q-1 -11 -1.5 -21.5t-0.5 -18.5q0 -14 0.5 -25.5t1.5 -20.5q1 -11 3 -19h-195z" />
    <glyph glyph-name="afii10104" unicode="&#x457;" horiz-adv-x="265" 
d="M100 25v410l-60 15v10h140v-435l60 -15v-10h-200v10zM110 570q0 -19 -15.5 -34.5t-34.5 -15.5t-34.5 15.5t-15.5 34.5t15.5 34.5t34.5 15.5t34.5 -15.5t15.5 -34.5zM265 570q0 -19 -15.5 -34.5t-34.5 -15.5t-34.5 15.5t-15.5 34.5t15.5 34.5t34.5 15.5t34.5 -15.5
t15.5 -34.5z" />
    <glyph glyph-name="afii10056" unicode="&#x407;" horiz-adv-x="295" 
d="M120 810q0 -19 -15.5 -34.5t-34.5 -15.5t-34.5 15.5t-15.5 34.5t15.5 34.5t34.5 15.5t34.5 -15.5t15.5 -34.5zM275 810q0 -19 -15.5 -34.5t-34.5 -15.5t-34.5 15.5t-15.5 34.5t15.5 34.5t34.5 15.5t34.5 -15.5t15.5 -34.5zM190 25l60 -15v-10h-205v10l60 15v650l-60 15
v10h205v-10l-60 -15v-650z" />
    <glyph glyph-name="afii10018" unicode="&#x411;" horiz-adv-x="515" 
d="M190 450h35q62 0 110.5 -17t81.5 -47t50.5 -71t17.5 -90t-17.5 -90t-50.5 -71t-81.5 -47t-110.5 -17h-180v10l60 15v650l-60 15v10h365q-2 -9 -3 -21q-1 -11 -1.5 -25.5t-0.5 -33.5q0 -14 0.5 -27.5t1.5 -25.5q1 -14 3 -27h-10q-26 26 -43 62t-17 78h-150v-230zM190 20
h35q79 0 122 48t43 157t-43 157t-122 48h-35v-410z" />
    <glyph glyph-name="florin" unicode="&#x192;" horiz-adv-x="330" 
d="M100 400h-60v20h60v160q0 60 37.5 97.5t97.5 37.5q28 0 51 -8.5t39.5 -22.5t25.5 -32t9 -37q0 -17 -5.5 -30.5t-12.5 -23.5q-8 -11 -17 -21l-75 30q9 10 17 21q7 10 12.5 23.5t5.5 30.5q0 26 -13.5 40.5t-36.5 14.5q-11 0 -21 -5.5t-17.5 -19t-12 -36.5t-4.5 -59v-160
h140v-20h-140v-515q0 -30 -10 -55t-27 -42.5t-41 -27.5t-52 -10q-26 0 -48 8.5t-38 22.5t-25 32t-9 37q0 17 5 30.5t12 23.5q8 11 18 21l75 -30q-10 -10 -18 -21q-7 -10 -12 -23.5t-5 -30.5q0 -26 13 -40.5t32 -14.5q9 0 18 5.5t16 19t11.5 36.5t4.5 59v515z" />
    <glyph glyph-name="caron" unicode="&#x2c7;" horiz-adv-x="250" 
d="M125 640l90 60h25l-115 -130l-115 130h25z" />
    <glyph glyph-name="breve" unicode="&#x2d8;" horiz-adv-x="240" 
d="M120 610q19 0 32 14.5t13 40.5q0 8 -1 14t-2 11l-2 10h65q1 -3 2 -7q1 -3 2 -8t1 -10q0 -34 -26.5 -57t-83.5 -23t-83.5 23t-26.5 57q0 10 2 18q1 4 3 7h65q-2 -5 -3 -10t-1.5 -11t-0.5 -14q0 -26 13 -40.5t32 -14.5z" />
    <glyph glyph-name="dieresis" unicode="&#xa8;" horiz-adv-x="285" 
d="M110 650q0 -19 -15.5 -34.5t-34.5 -15.5t-34.5 15.5t-15.5 34.5t15.5 34.5t34.5 15.5t34.5 -15.5t15.5 -34.5zM275 650q0 -19 -15.5 -34.5t-34.5 -15.5t-34.5 15.5t-15.5 34.5t15.5 34.5t34.5 15.5t34.5 -15.5t15.5 -34.5z" />
    <glyph glyph-name="dotaccent" unicode="&#x2d9;" horiz-adv-x="120" 
d="M110 650q0 -19 -15.5 -34.5t-34.5 -15.5t-34.5 15.5t-15.5 34.5t15.5 34.5t34.5 15.5t34.5 -15.5t15.5 -34.5z" />
    <glyph glyph-name="acute" unicode="&#xb4;" horiz-adv-x="150" 
d="M50 700h90l-100 -120h-30z" />
    <glyph glyph-name="hungarumlaut" unicode="&#x2dd;" horiz-adv-x="250" 
d="M50 700h80l-90 -120h-30zM160 700h80l-90 -120h-30z" />
    <glyph glyph-name="tilde" unicode="&#x2dc;" horiz-adv-x="225" 
d="M215 695q0 -53 -19.5 -76.5t-45.5 -23.5q-15 0 -27 8.5t-22.5 19t-20 19t-20.5 8.5q-15 0 -25 -11t-10 -34h-15q0 53 19.5 76.5t45.5 23.5q15 0 27 -8.5t22.5 -19t20 -19t20.5 -8.5q15 0 25 11t10 34h15z" />
    <glyph glyph-name="ring" unicode="&#x2da;" horiz-adv-x="170" 
d="M165 625q0 -34 -23 -54.5t-57 -20.5t-57 20.5t-23 54.5t23 54.5t57 20.5t57 -20.5t23 -54.5zM120 625q0 26 -10 40.5t-25 14.5t-25 -14.5t-10 -40.5t10 -40.5t25 -14.5t25 14.5t10 40.5z" />
    <glyph glyph-name="ogonek" unicode="&#x2db;" horiz-adv-x="165" 
d="M10 -85q0 20 16 36t36 27q23 12 53 22h40q-26 -12 -45 -26q-17 -12 -31 -27t-14 -32q0 -15 10.5 -25t29.5 -10q9 0 17.5 3.5t14.5 8.5q7 5 13 13v-25q-6 -6 -16 -10q-8 -4 -20 -7t-29 -3q-38 0 -56.5 16t-18.5 39z" />
    <glyph glyph-name="cedilla" unicode="&#xb8;" horiz-adv-x="150" 
d="M40 0h25v-35q38 0 56.5 -17t18.5 -43t-20.5 -43t-69.5 -17q-10 0 -17 0.5t-12 1.5q-6 1 -11 3v21q4 -2 9 -3q9 -3 21 -3q23 0 34 12.5t11 27.5q0 19 -11 32t-34 13v50z" />
    <glyph glyph-name="macron" unicode="&#xaf;" horiz-adv-x="230" 
d="M230 710v-40h-230v40h230z" />
    <glyph glyph-name="commaaccent" horiz-adv-x="120" 
d="M60 400q23 0 36.5 -17t13.5 -43q0 -40 -12 -65t-26 -39q-17 -17 -37 -26l-10 15q15 8 27 19q11 9 19.5 20.5t8.5 25.5q0 4 -1 7.5t-2 6.5q-1 4 -2 6q-3 -2 -7 -3q-8 -2 -13 -2q-19 0 -32 13t-13 32q0 23 13.5 36.5t36.5 13.5z" />
    <glyph glyph-name="Tcaron" unicode="&#x164;" horiz-adv-x="495" 
d="M30 0zM290 25l60 -15v-10h-205v10l60 15v655h-105q0 -42 -17 -78t-43 -62h-10q1 13 2 27q1 12 2 25.5t1 27.5q0 19 -1 33.5t-2 25.5q-1 12 -2 21h435q-2 -9 -3 -21q-1 -11 -1.5 -25.5t-0.5 -33.5q0 -14 0.5 -27.5t1.5 -25.5q1 -14 3 -27h-10q-26 26 -43 62t-17 78h-105
v-655zM250 815l90 60h25l-115 -130l-115 130h25z" />
    <glyph glyph-name="Scaron" unicode="&#x160;" horiz-adv-x="465" 
d="M35 0zM110 570q0 -41 24 -70.5t60 -54.5t78.5 -49t78.5 -54.5t60 -71.5t24 -100q0 -39 -14 -73t-39.5 -59t-60.5 -39t-76 -14q-38 0 -65 7.5t-45 17.5q-21 11 -35 25q-8 -15 -21.5 -28t-28.5 -17h-15q1 14 2 30q1 13 2 29t1 31q0 17 -1 33.5t-2 30.5q-1 16 -2 31h15
q23 -83 66.5 -126.5t118.5 -43.5q60 0 97.5 38.5t37.5 106.5q0 41 -24 70.5t-60 54.5t-78.5 49t-78.5 54.5t-60 71.5t-24 100q0 34 13 64t36 52.5t54 35.5t67 13q30 0 53 -8t39 -17q18 -11 33 -25q8 15 21.5 28t28.5 17h15q-2 -15 -3 -30q-1 -14 -1.5 -29.5t-0.5 -30.5
q0 -17 0.5 -33.5t1.5 -30.5q1 -16 3 -31h-15q-23 83 -64 126.5t-101 43.5q-49 0 -82 -34t-33 -91zM230 820l90 60h25l-115 -130l-115 130h25z" />
    <glyph glyph-name="Sacute" unicode="&#x15a;" horiz-adv-x="465" 
d="M35 0zM110 570q0 -41 24 -70.5t60 -54.5t78.5 -49t78.5 -54.5t60 -71.5t24 -100q0 -39 -14 -73t-39.5 -59t-60.5 -39t-76 -14q-38 0 -65 7.5t-45 17.5q-21 11 -35 25q-8 -15 -21.5 -28t-28.5 -17h-15q1 14 2 30q1 13 2 29t1 31q0 17 -1 33.5t-2 30.5q-1 16 -2 31h15
q23 -83 66.5 -126.5t118.5 -43.5q60 0 97.5 38.5t37.5 106.5q0 41 -24 70.5t-60 54.5t-78.5 49t-78.5 54.5t-60 71.5t-24 100q0 34 13 64t36 52.5t54 35.5t67 13q30 0 53 -8t39 -17q18 -11 33 -25q8 15 21.5 28t28.5 17h15q-2 -15 -3 -30q-1 -14 -1.5 -29.5t-0.5 -30.5
q0 -17 0.5 -33.5t1.5 -30.5q1 -16 3 -31h-15q-23 83 -64 126.5t-101 43.5q-49 0 -82 -34t-33 -91zM237 875h90l-100 -120h-30z" />
    <glyph glyph-name="Zcaron" unicode="&#x17d;" horiz-adv-x="460" 
d="M15 0zM115 20h250q0 42 17 78t43 62h10q-2 -13 -3 -27q-1 -12 -1.5 -26t-0.5 -27q0 -19 0.5 -33.5t1.5 -25.5q1 -12 3 -21h-420l320 680h-220q0 -42 -17 -78t-43 -62h-10q1 13 2 27q1 12 2 25.5t1 27.5q0 19 -1 33.5t-2 25.5q-1 12 -2 21h390zM240 819l90 60h25
l-115 -130l-115 130h25z" />
    <glyph glyph-name="Zacute" unicode="&#x179;" horiz-adv-x="460" 
d="M15 0zM115 20h250q0 42 17 78t43 62h10q-2 -13 -3 -27q-1 -12 -1.5 -26t-0.5 -27q0 -19 0.5 -33.5t1.5 -25.5q1 -12 3 -21h-420l320 680h-220q0 -42 -17 -78t-43 -62h-10q1 13 2 27q1 12 2 25.5t1 27.5q0 19 -1 33.5t-2 25.5q-1 12 -2 21h390zM265 870h90l-100 -120h-30z
" />
    <glyph glyph-name="scaron" unicode="&#x161;" horiz-adv-x="405" 
d="M40 0zM215 -15q-32 0 -55 7.5t-37 17.5q-17 11 -28 25q-4 -15 -16.5 -28t-23.5 -17h-15q1 13 2 27q1 12 2 25.5t1 27.5q0 15 -1 30t-2 27l-2 28h15q19 -72 58 -111t92 -39q42 0 68.5 26t26.5 64q0 27 -18.5 47t-46.5 36.5t-60 32.5t-60 36t-46.5 47t-18.5 66q0 22 10 43
t27.5 37t42.5 25.5t55 9.5q26 0 45.5 -8t33.5 -17q15 -11 26 -25q4 15 16.5 28t23.5 17h15q-2 -13 -3 -27q-1 -12 -1.5 -26t-0.5 -27q0 -15 0.5 -30.5t1.5 -27.5q1 -14 3 -27h-15q-19 72 -56 111t-79 39q-34 0 -57 -22.5t-23 -52.5q0 -25 19 -43t47 -33.5t61.5 -31.5
t61.5 -37t47 -50t19 -70q0 -24 -11.5 -47.5t-32 -42t-49 -29.5t-62.5 -11zM200 581l90 60h25l-115 -130l-115 130h25z" />
    <glyph glyph-name="sacute" unicode="&#x15b;" horiz-adv-x="405" 
d="M40 0zM215 -15q-32 0 -55 7.5t-37 17.5q-17 11 -28 25q-4 -15 -16.5 -28t-23.5 -17h-15q1 13 2 27q1 12 2 25.5t1 27.5q0 15 -1 30t-2 27l-2 28h15q19 -72 58 -111t92 -39q42 0 68.5 26t26.5 64q0 27 -18.5 47t-46.5 36.5t-60 32.5t-60 36t-46.5 47t-18.5 66q0 22 10 43
t27.5 37t42.5 25.5t55 9.5q26 0 45.5 -8t33.5 -17q15 -11 26 -25q4 15 16.5 28t23.5 17h15q-2 -13 -3 -27q-1 -12 -1.5 -26t-0.5 -27q0 -15 0.5 -30.5t1.5 -27.5q1 -14 3 -27h-15q-19 72 -56 111t-79 39q-34 0 -57 -22.5t-23 -52.5q0 -25 19 -43t47 -33.5t61.5 -31.5
t61.5 -37t47 -50t19 -70q0 -24 -11.5 -47.5t-32 -42t-49 -29.5t-62.5 -11zM207 636h90l-100 -120h-30z" />
    <glyph glyph-name="tcaron" unicode="&#x165;" horiz-adv-x="430" 
d="M360 620q23 0 36.5 -17t13.5 -43q0 -40 -12 -65t-26 -39q-17 -17 -37 -26l-10 15q15 8 27 19q11 9 19.5 20.5t8.5 25.5q0 4 -1 7.5t-2 6.5q-1 4 -2 6q-3 -2 -7 -3q-8 -2 -13 -2q-19 0 -32 13t-13 32q0 23 13.5 36.5t36.5 13.5zM290 460v-20h-115v-319q0 -61 22 -88.5
t48 -27.5q34 0 57.5 25.5t27.5 74.5h15q-4 -57 -34.5 -88.5t-75.5 -31.5q-64 0 -102 37.5t-38 97.5v320h-85v20h85v115l80 55v-170h115z" />
    <glyph glyph-name="zcaron" unicode="&#x17e;" horiz-adv-x="430" 
d="M35 0zM320 20q0 42 17 74.5t43 55.5h10q-2 -13 -3 -26q-1 -11 -1.5 -24.5t-0.5 -24.5q0 -17 0.5 -30.5t1.5 -23.5q1 -11 3 -21h-355l250 440h-160q0 -42 -17 -74.5t-43 -55.5h-10l2 26q1 11 2 24.5t1 24.5q0 17 -1 30.5t-2 23.5q-1 11 -2 21h335l-250 -440h180zM225 581
l90 60h25l-115 -130l-115 130h25z" />
    <glyph glyph-name="zacute" unicode="&#x17a;" horiz-adv-x="430" 
d="M35 0zM320 20q0 42 17 74.5t43 55.5h10q-2 -13 -3 -26q-1 -11 -1.5 -24.5t-0.5 -24.5q0 -17 0.5 -30.5t1.5 -23.5q1 -11 3 -21h-355l250 440h-160q0 -42 -17 -74.5t-43 -55.5h-10l2 26q1 11 2 24.5t1 24.5q0 17 -1 30.5t-2 23.5q-1 11 -2 21h335l-250 -440h180zM230 631
h90l-100 -120h-30z" />
    <glyph glyph-name="Aogonek" unicode="&#x104;" horiz-adv-x="520" 
d="M0 0zM335 205h-205l-50 -170l65 -25v-10h-150v10l65 25l195 680h15l210 -690l60 -15v-10h-210v10l60 15zM135 224h194l-100 331zM395 -85q0 20 16 36t36 27q23 12 53 22h40q-26 -12 -45 -26q-17 -12 -31 -27t-14 -32q0 -15 10.5 -25t29.5 -10q9 0 17.5 3.5t14.5 8.5
q7 5 13 13v-25q-6 -6 -16 -10q-8 -4 -20 -7t-29 -3q-38 0 -56.5 16t-18.5 39z" />
    <glyph glyph-name="Scommaaccent" unicode="&#x218;" horiz-adv-x="465" 
d="M240 -70q23 0 36.5 -17t13.5 -43q0 -40 -12 -65t-26 -39q-17 -17 -37 -26l-10 15q15 8 27 19q11 9 19.5 20.5t8.5 25.5q0 4 -1 7.5t-2 6.5q-1 4 -2 6q-3 -2 -7 -3q-8 -2 -13 -2q-19 0 -32 13t-13 32q0 23 13.5 36.5t36.5 13.5zM110 570q0 -41 24 -70.5t60 -54.5t78.5 -49
t78.5 -54.5t60 -71.5t24 -100q0 -39 -14 -73t-39.5 -59t-60.5 -39t-76 -14q-38 0 -65 7.5t-45 17.5q-21 11 -35 25q-8 -15 -21.5 -28t-28.5 -17h-15q1 14 2 30q1 13 2 29t1 31q0 17 -1 33.5t-2 30.5q-1 16 -2 31h15q23 -83 66.5 -126.5t118.5 -43.5q60 0 97.5 38.5
t37.5 106.5q0 41 -24 70.5t-60 54.5t-78.5 49t-78.5 54.5t-60 71.5t-24 100q0 34 13 64t36 52.5t54 35.5t67 13q30 0 53 -8t39 -17q18 -11 33 -25q8 15 21.5 28t28.5 17h15q-2 -15 -3 -30q-1 -14 -1.5 -29.5t-0.5 -30.5q0 -17 0.5 -33.5t1.5 -30.5q1 -16 3 -31h-15
q-23 83 -64 126.5t-101 43.5q-49 0 -82 -34t-33 -91z" />
    <glyph glyph-name="Zdotaccent" unicode="&#x17b;" horiz-adv-x="460" 
d="M15 0zM115 20h250q0 42 17 78t43 62h10q-2 -13 -3 -27q-1 -12 -1.5 -26t-0.5 -27q0 -19 0.5 -33.5t1.5 -25.5q1 -12 3 -21h-420l320 680h-220q0 -42 -17 -78t-43 -62h-10q1 13 2 27q1 12 2 25.5t1 27.5q0 19 -1 33.5t-2 25.5q-1 12 -2 21h390zM285 809q0 -19 -15.5 -34.5
t-34.5 -15.5t-34.5 15.5t-15.5 34.5t15.5 34.5t34.5 15.5t34.5 -15.5t15.5 -34.5z" />
    <glyph glyph-name="aogonek" unicode="&#x105;" horiz-adv-x="465" 
d="M40 0zM300 245q-87 0 -128.5 -38.5t-41.5 -106.5q0 -45 22 -70t48 -25q24 0 42.5 14t31.5 31q15 19 26 45v150zM225 460q-30 0 -50 -20.5t-20 -54.5q0 -8 0.5 -14t1.5 -11t3 -10l-80 -20q-2 3 -3 8t-1.5 11t-0.5 16q0 21 10 40.5t29.5 35t47 25t63.5 9.5q72 0 113.5 -41
t41.5 -109v-300l60 -15v-10h-140v60q-11 -21 -28 -38q-14 -14 -35.5 -25.5t-51.5 -11.5q-72 0 -108.5 34t-36.5 91q0 28 15.5 56t47 50t80.5 35.5t117 13.5v60q0 75 -22.5 105t-52.5 30zM295 -85q0 20 16 36t36 27q23 12 53 22h40q-26 -12 -45 -26q-17 -12 -31 -27t-14 -32
q0 -15 10.5 -25t29.5 -10q9 0 17.5 3.5t14.5 8.5q7 5 13 13v-25q-6 -6 -16 -10q-8 -4 -20 -7t-29 -3q-38 0 -56.5 16t-18.5 39z" />
    <glyph glyph-name="scommaaccent" unicode="&#x219;" horiz-adv-x="405" 
d="M40 0zM215 -15q-32 0 -55 7.5t-37 17.5q-17 11 -28 25q-4 -15 -16.5 -28t-23.5 -17h-15q1 13 2 27q1 12 2 25.5t1 27.5q0 15 -1 30t-2 27l-2 28h15q19 -72 58 -111t92 -39q42 0 68.5 26t26.5 64q0 27 -18.5 47t-46.5 36.5t-60 32.5t-60 36t-46.5 47t-18.5 66q0 22 10 43
t27.5 37t42.5 25.5t55 9.5q26 0 45.5 -8t33.5 -17q15 -11 26 -25q4 15 16.5 28t23.5 17h15q-2 -13 -3 -27q-1 -12 -1.5 -26t-0.5 -27q0 -15 0.5 -30.5t1.5 -27.5q1 -14 3 -27h-15q-19 72 -56 111t-79 39q-34 0 -57 -22.5t-23 -52.5q0 -25 19 -43t47 -33.5t61.5 -31.5
t61.5 -37t47 -50t19 -70q0 -24 -11.5 -47.5t-32 -42t-49 -29.5t-62.5 -11zM215 -64q23 0 36.5 -17t13.5 -43q0 -40 -12 -65t-26 -39q-17 -17 -37 -26l-10 15q15 8 27 19q11 9 19.5 20.5t8.5 25.5q0 4 -1 7.5t-2 6.5q-1 4 -2 6q-3 -2 -7 -3q-8 -2 -13 -2q-19 0 -32 13t-13 32
q0 23 13.5 36.5t36.5 13.5z" />
    <glyph glyph-name="Lcaron" unicode="&#x13d;" horiz-adv-x="470" 
d="M45 0zM190 20h180q0 42 17 78t43 62h10q-2 -13 -3 -27q-1 -12 -1.5 -26t-0.5 -27q0 -19 0.5 -33.5t1.5 -25.5q1 -12 3 -21h-395v10l60 15v650l-60 15v10h205v-10l-60 -15v-655zM345 700q23 0 36.5 -17t13.5 -43q0 -40 -12 -65t-26 -39q-17 -17 -37 -26l-10 15q15 8 27 19
q11 9 19.5 20.5t8.5 25.5q0 4 -1 7.5t-2 6.5q-1 4 -2 6q-3 -2 -7 -3q-8 -2 -13 -2q-19 0 -32 13t-13 32q0 23 13.5 36.5t36.5 13.5z" />
    <glyph glyph-name="lcaron" unicode="&#x13e;" horiz-adv-x="355" 
d="M35 0zM95 25v650l-60 15v10h140v-675l60 -15v-10h-200v10zM285 700q23 0 36.5 -17t13.5 -43q0 -40 -12 -65t-26 -39q-17 -17 -37 -26l-10 15q15 8 27 19q11 9 19.5 20.5t8.5 25.5q0 4 -1 7.5t-2 6.5q-1 4 -2 6q-3 -2 -7 -3q-8 -2 -13 -2q-19 0 -32 13t-13 32
q0 23 13.5 36.5t36.5 13.5z" />
    <glyph glyph-name="zdotaccent" unicode="&#x17c;" horiz-adv-x="430" 
d="M35 0zM320 20q0 42 17 74.5t43 55.5h10q-2 -13 -3 -26q-1 -11 -1.5 -24.5t-0.5 -24.5q0 -17 0.5 -30.5t1.5 -23.5q1 -11 3 -21h-355l250 440h-160q0 -42 -17 -74.5t-43 -55.5h-10l2 26q1 11 2 24.5t1 24.5q0 17 -1 30.5t-2 23.5q-1 11 -2 21h335l-250 -440h180zM280 581
q0 -19 -15.5 -34.5t-34.5 -15.5t-34.5 15.5t-15.5 34.5t15.5 34.5t34.5 15.5t34.5 -15.5t15.5 -34.5z" />
    <glyph glyph-name="Racute" unicode="&#x154;" horiz-adv-x="550" 
d="M45 0zM230 700q64 0 111 -14t78 -38t46 -55.5t15 -67.5q0 -29 -8.5 -51.5t-22 -40t-31.5 -29.5t-36 -20q-43 -19 -97 -24q44 -5 80 -21q31 -14 58 -41t32 -73l20 -175q2 -19 9 -27t16 -8q5 0 10.5 3.5t10.5 8.5t9 13l10 -10q-6 -13 -17 -23q-9 -8 -23.5 -15t-34.5 -7
q-34 0 -55.5 19.5t-24.5 45.5l-20 175q-4 34 -13 57.5t-24.5 38.5t-39.5 22t-58 7h-40v-325l60 -15v-10h-205v10l60 15v650l-60 15v10h185zM385 525q0 75 -40 115t-115 40h-40v-310h40q75 0 115 40t40 115zM280 870h90l-100 -120h-30z" />
    <glyph glyph-name="Aacute" unicode="&#xc1;" horiz-adv-x="520" 
d="M0 0zM335 205h-205l-50 -170l65 -25v-10h-150v10l65 25l195 680h15l210 -690l60 -15v-10h-210v10l60 15zM135 224h194l-100 331zM290 870h90l-100 -120h-30z" />
    <glyph glyph-name="Acircumflex" unicode="&#xc2;" horiz-adv-x="520" 
d="M0 0zM335 205h-205l-50 -170l65 -25v-10h-150v10l65 25l195 680h15l210 -690l60 -15v-10h-210v10l60 15zM135 224h194l-100 331zM172 750h-25l115 130l115 -130h-25l-90 60z" />
    <glyph glyph-name="Abreve" unicode="&#x102;" horiz-adv-x="520" 
d="M0 0zM335 205h-205l-50 -170l65 -25v-10h-150v10l65 25l195 680h15l210 -690l60 -15v-10h-210v10l60 15zM135 224h194l-100 331zM265 765q19 0 32 14.5t13 40.5q0 8 -1 14t-2 11l-2 10h65q1 -3 2 -7q1 -3 2 -8t1 -10q0 -34 -26.5 -57t-83.5 -23t-83.5 23t-26.5 57
q0 10 2 18q1 4 3 7h65q-2 -5 -3 -10t-1.5 -11t-0.5 -14q0 -26 13 -40.5t32 -14.5z" />
    <glyph glyph-name="Adieresis" unicode="&#xc4;" horiz-adv-x="520" 
d="M0 0zM335 205h-205l-50 -170l65 -25v-10h-150v10l65 25l195 680h15l210 -690l60 -15v-10h-210v10l60 15zM135 224h194l-100 331zM230 795q0 -19 -15.5 -34.5t-34.5 -15.5t-34.5 15.5t-15.5 34.5t15.5 34.5t34.5 15.5t34.5 -15.5t15.5 -34.5zM395 795q0 -19 -15.5 -34.5
t-34.5 -15.5t-34.5 15.5t-15.5 34.5t15.5 34.5t34.5 15.5t34.5 -15.5t15.5 -34.5z" />
    <glyph glyph-name="Lacute" unicode="&#x139;" horiz-adv-x="470" 
d="M45 0zM190 20h180q0 42 17 78t43 62h10q-2 -13 -3 -27q-1 -12 -1.5 -26t-0.5 -27q0 -19 0.5 -33.5t1.5 -25.5q1 -12 3 -21h-395v10l60 15v650l-60 15v10h205v-10l-60 -15v-655zM175 870h90l-100 -120h-30z" />
    <glyph glyph-name="Cacute" unicode="&#x106;" horiz-adv-x="490" 
d="M40 0zM285 695q-28 0 -55 -16t-48 -55.5t-34 -106t-13 -167.5t13 -167.5t35 -106t51 -55.5t61 -16q26 0 53 14t49.5 39t38 59t19.5 73h15q-4 -45 -20 -82.5t-40.5 -65t-56.5 -42.5t-68 -15q-47 0 -91 22.5t-78.5 68t-55 114t-20.5 160.5t20.5 160.5t54 114t75.5 68
t85 22.5q24 0 43.5 -8t33.5 -18q16 -11 28 -25q8 15 21.5 28.5t28.5 17.5h15q-2 -15 -3 -30q-1 -14 -1.5 -29.5t-0.5 -30.5q0 -17 0.5 -33.5t1.5 -30.5q1 -16 3 -31h-15q-23 83 -61.5 126.5t-83.5 43.5zM280 875h90l-100 -120h-30z" />
    <glyph glyph-name="Ccedilla" unicode="&#xc7;" horiz-adv-x="490" 
d="M40 0zM285 695q-28 0 -55 -16t-48 -55.5t-34 -106t-13 -167.5t13 -167.5t35 -106t51 -55.5t61 -16q26 0 53 14t49.5 39t38 59t19.5 73h15q-4 -45 -20 -82.5t-40.5 -65t-56.5 -42.5t-68 -15q-47 0 -91 22.5t-78.5 68t-55 114t-20.5 160.5t20.5 160.5t54 114t75.5 68
t85 22.5q24 0 43.5 -8t33.5 -18q16 -11 28 -25q8 15 21.5 28.5t28.5 17.5h15q-2 -15 -3 -30q-1 -14 -1.5 -29.5t-0.5 -30.5q0 -17 0.5 -33.5t1.5 -30.5q1 -16 3 -31h-15q-23 83 -61.5 126.5t-83.5 43.5zM250 0h25v-35q38 0 56.5 -17t18.5 -43t-20.5 -43t-69.5 -17
q-10 0 -17 0.5t-12 1.5q-6 1 -11 3v21q4 -2 9 -3q9 -3 21 -3q23 0 34 12.5t11 27.5q0 19 -11 32t-34 13v50z" />
    <glyph glyph-name="Ccaron" unicode="&#x10c;" horiz-adv-x="490" 
d="M40 0zM285 695q-28 0 -55 -16t-48 -55.5t-34 -106t-13 -167.5t13 -167.5t35 -106t51 -55.5t61 -16q26 0 53 14t49.5 39t38 59t19.5 73h15q-4 -45 -20 -82.5t-40.5 -65t-56.5 -42.5t-68 -15q-47 0 -91 22.5t-78.5 68t-55 114t-20.5 160.5t20.5 160.5t54 114t75.5 68
t85 22.5q24 0 43.5 -8t33.5 -18q16 -11 28 -25q8 15 21.5 28.5t28.5 17.5h15q-2 -15 -3 -30q-1 -14 -1.5 -29.5t-0.5 -30.5q0 -17 0.5 -33.5t1.5 -30.5q1 -16 3 -31h-15q-23 83 -61.5 126.5t-83.5 43.5zM270 820l90 60h25l-115 -130l-115 130h25z" />
    <glyph glyph-name="Eacute" unicode="&#xc9;" 
d="M45 0zM390 20q0 42 17 78t43 62h10q-2 -13 -3 -27q-1 -12 -1.5 -26t-0.5 -27q0 -19 0.5 -33.5t1.5 -25.5q1 -12 3 -21h-415v10l60 15v650l-60 15v10h405q-2 -9 -3 -21q-1 -11 -1.5 -25.5t-0.5 -33.5q0 -14 0.5 -27.5t1.5 -25.5q1 -14 3 -27h-10q-26 26 -43 62t-17 78
h-190v-300h95l45 90h10v-200h-10l-45 90h-95v-340h200zM287 870h90l-100 -120h-30z" />
    <glyph glyph-name="Eogonek" unicode="&#x118;" 
d="M45 0zM390 20q0 42 17 78t43 62h10q-2 -13 -3 -27q-1 -12 -1.5 -26t-0.5 -27q0 -19 0.5 -33.5t1.5 -25.5q1 -12 3 -21h-415v10l60 15v650l-60 15v10h405q-2 -9 -3 -21q-1 -11 -1.5 -25.5t-0.5 -33.5q0 -14 0.5 -27.5t1.5 -25.5q1 -14 3 -27h-10q-26 26 -43 62t-17 78
h-190v-300h95l45 90h10v-200h-10l-45 90h-95v-340h200zM195 -85q0 20 16 36t36 27q23 12 53 22h40q-26 -12 -45 -26q-17 -12 -31 -27t-14 -32q0 -15 10.5 -25t29.5 -10q9 0 17.5 3.5t14.5 8.5q7 5 13 13v-25q-6 -6 -16 -10q-8 -4 -20 -7t-29 -3q-38 0 -56.5 16t-18.5 39z
" />
    <glyph glyph-name="Edieresis" unicode="&#xcb;" 
d="M45 0zM390 20q0 42 17 78t43 62h10q-2 -13 -3 -27q-1 -12 -1.5 -26t-0.5 -27q0 -19 0.5 -33.5t1.5 -25.5q1 -12 3 -21h-415v10l60 15v650l-60 15v10h405q-2 -9 -3 -21q-1 -11 -1.5 -25.5t-0.5 -33.5q0 -14 0.5 -27.5t1.5 -25.5q1 -14 3 -27h-10q-26 26 -43 62t-17 78
h-190v-300h95l45 90h10v-200h-10l-45 90h-95v-340h200zM240 810q0 -19 -15.5 -34.5t-34.5 -15.5t-34.5 15.5t-15.5 34.5t15.5 34.5t34.5 15.5t34.5 -15.5t15.5 -34.5zM405 810q0 -19 -15.5 -34.5t-34.5 -15.5t-34.5 15.5t-15.5 34.5t15.5 34.5t34.5 15.5t34.5 -15.5
t15.5 -34.5z" />
    <glyph glyph-name="Ecaron" unicode="&#x11a;" 
d="M45 0zM390 20q0 42 17 78t43 62h10q-2 -13 -3 -27q-1 -12 -1.5 -26t-0.5 -27q0 -19 0.5 -33.5t1.5 -25.5q1 -12 3 -21h-415v10l60 15v650l-60 15v10h405q-2 -9 -3 -21q-1 -11 -1.5 -25.5t-0.5 -33.5q0 -14 0.5 -27.5t1.5 -25.5q1 -14 3 -27h-10q-26 26 -43 62t-17 78
h-190v-300h95l45 90h10v-200h-10l-45 90h-95v-340h200zM275 820l90 60h25l-115 -130l-115 130h25z" />
    <glyph glyph-name="Iacute" unicode="&#xcd;" horiz-adv-x="295" 
d="M45 0zM190 25l60 -15v-10h-205v10l60 15v650l-60 15v10h205v-10l-60 -15v-650zM172 870h90l-100 -120h-30z" />
    <glyph glyph-name="Icircumflex" unicode="&#xce;" horiz-adv-x="295" 
d="M35 0zM190 25l60 -15v-10h-205v10l60 15v650l-60 15v10h205v-10l-60 -15v-650zM60 755h-25l115 130l115 -130h-25l-90 60z" />
    <glyph glyph-name="Dcaron" unicode="&#x10e;" horiz-adv-x="560" 
d="M45 0zM220 700q66 0 121.5 -24t96.5 -69t64 -110t23 -147q0 -83 -23 -148t-64 -110t-96.5 -68.5t-121.5 -23.5h-175v10l60 15v650l-60 15v10h175zM190 680v-660h30q43 0 81.5 18.5t67 58.5t45 102.5t16.5 150.5t-16.5 150.5t-45 102.5t-67 58.5t-81.5 18.5h-30zM250 819
l90 60h25l-115 -130l-115 130h25z" />
    <glyph glyph-name="Nacute" unicode="&#x143;" horiz-adv-x="585" 
d="M40 0zM460 665l-65 25v10h150v-10l-65 -25v-675h-15l-340 625v-580l65 -25v-10h-150v10l65 25v635l-65 20v10h135l285 -525v490zM317 870h90l-100 -120h-30z" />
    <glyph glyph-name="Ncaron" unicode="&#x147;" horiz-adv-x="585" 
d="M40 0zM460 665l-65 25v10h150v-10l-65 -25v-675h-15l-340 625v-580l65 -25v-10h-150v10l65 25v635l-65 20v10h135l285 -525v490zM302 805l90 60h25l-115 -130l-115 130h25z" />
    <glyph glyph-name="Oacute" unicode="&#xd3;" horiz-adv-x="550" 
d="M40 0zM510 350q0 -92 -20.5 -160.5t-54 -114t-75.5 -68t-85 -22.5t-85 22.5t-75.5 68t-54 114t-20.5 160.5t20.5 160.5t54 114t75.5 68t85 22.5t85 -22.5t75.5 -68t54 -114t20.5 -160.5zM415 350q0 103 -12.5 170.5t-33 107.5t-45.5 56t-49 16t-49 -16t-45.5 -56
t-33 -107.5t-12.5 -170.5t12.5 -170.5t33 -107.5t45.5 -56t49 -16t49 16t45.5 56t33 107.5t12.5 170.5zM296 876h90l-100 -120h-30z" />
    <glyph glyph-name="Ocircumflex" unicode="&#xd4;" horiz-adv-x="550" 
d="M40 0zM510 350q0 -92 -20.5 -160.5t-54 -114t-75.5 -68t-85 -22.5t-85 22.5t-75.5 68t-54 114t-20.5 160.5t20.5 160.5t54 114t75.5 68t85 22.5t85 -22.5t75.5 -68t54 -114t20.5 -160.5zM415 350q0 103 -12.5 170.5t-33 107.5t-45.5 56t-49 16t-49 -16t-45.5 -56
t-33 -107.5t-12.5 -170.5t12.5 -170.5t33 -107.5t45.5 -56t49 -16t49 16t45.5 56t33 107.5t12.5 170.5zM185 755h-25l115 130l115 -130h-25l-90 60z" />
    <glyph glyph-name="Ohungarumlaut" unicode="&#x150;" horiz-adv-x="550" 
d="M40 0zM510 350q0 -92 -20.5 -160.5t-54 -114t-75.5 -68t-85 -22.5t-85 22.5t-75.5 68t-54 114t-20.5 160.5t20.5 160.5t54 114t75.5 68t85 22.5t85 -22.5t75.5 -68t54 -114t20.5 -160.5zM415 350q0 103 -12.5 170.5t-33 107.5t-45.5 56t-49 16t-49 -16t-45.5 -56
t-33 -107.5t-12.5 -170.5t12.5 -170.5t33 -107.5t45.5 -56t49 -16t49 16t45.5 56t33 107.5t12.5 170.5zM235 880h80l-90 -120h-30zM345 880h80l-90 -120h-30z" />
    <glyph glyph-name="Odieresis" unicode="&#xd6;" horiz-adv-x="550" 
d="M40 0zM510 350q0 -92 -20.5 -160.5t-54 -114t-75.5 -68t-85 -22.5t-85 22.5t-75.5 68t-54 114t-20.5 160.5t20.5 160.5t54 114t75.5 68t85 22.5t85 -22.5t75.5 -68t54 -114t20.5 -160.5zM415 350q0 103 -12.5 170.5t-33 107.5t-45.5 56t-49 16t-49 -16t-45.5 -56
t-33 -107.5t-12.5 -170.5t12.5 -170.5t33 -107.5t45.5 -56t49 -16t49 16t45.5 56t33 107.5t12.5 170.5zM242 810q0 -19 -15.5 -34.5t-34.5 -15.5t-34.5 15.5t-15.5 34.5t15.5 34.5t34.5 15.5t34.5 -15.5t15.5 -34.5zM407 810q0 -19 -15.5 -34.5t-34.5 -15.5t-34.5 15.5
t-15.5 34.5t15.5 34.5t34.5 15.5t34.5 -15.5t15.5 -34.5z" />
    <glyph glyph-name="Rcaron" unicode="&#x158;" horiz-adv-x="550" 
d="M45 0zM230 700q64 0 111 -14t78 -38t46 -55.5t15 -67.5q0 -29 -8.5 -51.5t-22 -40t-31.5 -29.5t-36 -20q-43 -19 -97 -24q44 -5 80 -21q31 -14 58 -41t32 -73l20 -175q2 -19 9 -27t16 -8q5 0 10.5 3.5t10.5 8.5t9 13l10 -10q-6 -13 -17 -23q-9 -8 -23.5 -15t-34.5 -7
q-34 0 -55.5 19.5t-24.5 45.5l-20 175q-4 34 -13 57.5t-24.5 38.5t-39.5 22t-58 7h-40v-325l60 -15v-10h-205v10l60 15v650l-60 15v10h185zM385 525q0 75 -40 115t-115 40h-40v-310h40q75 0 115 40t40 115zM265 815l90 60h25l-115 -130l-115 130h25z" />
    <glyph glyph-name="Uring" unicode="&#x16e;" horiz-adv-x="570" 
d="M30 0zM485 200q0 -113 -46.5 -164t-133.5 -51q-102 0 -158.5 56.5t-56.5 158.5v475l-60 15v10h205v-10l-60 -15v-475q0 -101 40 -148t100 -47q34 0 61.5 11.5t47 35.5t30.5 60.5t11 87.5v465l-65 25v10h150v-10l-65 -25v-465zM395 820q0 -34 -23 -54.5t-57 -20.5
t-57 20.5t-23 54.5t23 54.5t57 20.5t57 -20.5t23 -54.5zM350 820q0 26 -10 40.5t-25 14.5t-25 -14.5t-10 -40.5t10 -40.5t25 -14.5t25 14.5t10 40.5z" />
    <glyph glyph-name="Uacute" unicode="&#xda;" horiz-adv-x="570" 
d="M30 0zM485 200q0 -113 -46.5 -164t-133.5 -51q-102 0 -158.5 56.5t-56.5 158.5v475l-60 15v10h205v-10l-60 -15v-475q0 -101 40 -148t100 -47q34 0 61.5 11.5t47 35.5t30.5 60.5t11 87.5v465l-65 25v10h150v-10l-65 -25v-465zM325 869h90l-100 -120h-30z" />
    <glyph glyph-name="Uhungarumlaut" unicode="&#x170;" horiz-adv-x="570" 
d="M30 0zM485 200q0 -113 -46.5 -164t-133.5 -51q-102 0 -158.5 56.5t-56.5 158.5v475l-60 15v10h205v-10l-60 -15v-475q0 -101 40 -148t100 -47q34 0 61.5 11.5t47 35.5t30.5 60.5t11 87.5v465l-65 25v10h150v-10l-65 -25v-465zM270 869h80l-90 -120h-30zM380 869h80
l-90 -120h-30z" />
    <glyph glyph-name="Udieresis" unicode="&#xdc;" horiz-adv-x="570" 
d="M30 0zM485 200q0 -113 -46.5 -164t-133.5 -51q-102 0 -158.5 56.5t-56.5 158.5v475l-60 15v10h205v-10l-60 -15v-475q0 -101 40 -148t100 -47q34 0 61.5 11.5t47 35.5t30.5 60.5t11 87.5v465l-65 25v10h150v-10l-65 -25v-465zM272 810q0 -19 -15.5 -34.5t-34.5 -15.5
t-34.5 15.5t-15.5 34.5t15.5 34.5t34.5 15.5t34.5 -15.5t15.5 -34.5zM437 810q0 -19 -15.5 -34.5t-34.5 -15.5t-34.5 15.5t-15.5 34.5t15.5 34.5t34.5 15.5t34.5 -15.5t15.5 -34.5z" />
    <glyph glyph-name="Yacute" unicode="&#xdd;" horiz-adv-x="490" 
d="M0 0zM295 280v-255l60 -15v-10h-205v10l60 15v250l-155 400l-60 15v10h210v-10l-60 -15l142 -365l138 355l-65 25v10h150v-10l-65 -25zM292 869h90l-100 -120h-30z" />
    <glyph glyph-name="Tcommaaccent" unicode="&#x162;" horiz-adv-x="495" 
d="M30 0zM290 25l60 -15v-10h-205v10l60 15v655h-105q0 -42 -17 -78t-43 -62h-10q1 13 2 27q1 12 2 25.5t1 27.5q0 19 -1 33.5t-2 25.5q-1 12 -2 21h435q-2 -9 -3 -21q-1 -11 -1.5 -25.5t-0.5 -33.5q0 -14 0.5 -27.5t1.5 -25.5q1 -14 3 -27h-10q-26 26 -43 62t-17 78h-105
v-655zM250 -59q23 0 36.5 -17t13.5 -43q0 -40 -12 -65t-26 -39q-17 -17 -37 -26l-10 15q15 8 27 19q11 9 19.5 20.5t8.5 25.5q0 4 -1 7.5t-2 6.5q-1 4 -2 6q-3 -2 -7 -3q-8 -2 -13 -2q-19 0 -32 13t-13 32q0 23 13.5 36.5t36.5 13.5z" />
    <glyph glyph-name="racute" unicode="&#x155;" horiz-adv-x="360" 
d="M35 0zM175 25l60 -15v-10h-200v10l60 15v410l-60 15v10h140v-120q13 37 31 67q16 26 39 47t55 21q11 0 21 -1.5t18 -3.5q9 -3 16 -5l-30 -75q-6 3 -13 7q-6 3 -14.5 5.5t-17.5 2.5q-26 0 -46 -14t-33 -31q-16 -20 -26 -45v-290zM225 641h90l-100 -120h-30z" />
    <glyph glyph-name="aacute" unicode="&#xe1;" horiz-adv-x="465" 
d="M40 0zM300 245q-87 0 -128.5 -38.5t-41.5 -106.5q0 -45 22 -70t48 -25q24 0 42.5 14t31.5 31q15 19 26 45v150zM225 460q-30 0 -50 -20.5t-20 -54.5q0 -8 0.5 -14t1.5 -11t3 -10l-80 -20q-2 3 -3 8t-1.5 11t-0.5 16q0 21 10 40.5t29.5 35t47 25t63.5 9.5q72 0 113.5 -41
t41.5 -109v-300l60 -15v-10h-140v60q-11 -21 -28 -38q-14 -14 -35.5 -25.5t-51.5 -11.5q-72 0 -108.5 34t-36.5 91q0 28 15.5 56t47 50t80.5 35.5t117 13.5v60q0 75 -22.5 105t-52.5 30zM240 636h90l-100 -120h-30z" />
    <glyph glyph-name="acircumflex" unicode="&#xe2;" horiz-adv-x="465" 
d="M40 0zM300 245q-87 0 -128.5 -38.5t-41.5 -106.5q0 -45 22 -70t48 -25q24 0 42.5 14t31.5 31q15 19 26 45v150zM225 460q-30 0 -50 -20.5t-20 -54.5q0 -8 0.5 -14t1.5 -11t3 -10l-80 -20q-2 3 -3 8t-1.5 11t-0.5 16q0 21 10 40.5t29.5 35t47 25t63.5 9.5q72 0 113.5 -41
t41.5 -109v-300l60 -15v-10h-140v60q-11 -21 -28 -38q-14 -14 -35.5 -25.5t-51.5 -11.5q-72 0 -108.5 34t-36.5 91q0 28 15.5 56t47 50t80.5 35.5t117 13.5v60q0 75 -22.5 105t-52.5 30zM140 521h-25l115 130l115 -130h-25l-90 60z" />
    <glyph glyph-name="abreve" unicode="&#x103;" horiz-adv-x="465" 
d="M40 0zM300 245q-87 0 -128.5 -38.5t-41.5 -106.5q0 -45 22 -70t48 -25q24 0 42.5 14t31.5 31q15 19 26 45v150zM225 460q-30 0 -50 -20.5t-20 -54.5q0 -8 0.5 -14t1.5 -11t3 -10l-80 -20q-2 3 -3 8t-1.5 11t-0.5 16q0 21 10 40.5t29.5 35t47 25t63.5 9.5q72 0 113.5 -41
t41.5 -109v-300l60 -15v-10h-140v60q-11 -21 -28 -38q-14 -14 -35.5 -25.5t-51.5 -11.5q-72 0 -108.5 34t-36.5 91q0 28 15.5 56t47 50t80.5 35.5t117 13.5v60q0 75 -22.5 105t-52.5 30zM230 536q19 0 32 14.5t13 40.5q0 8 -1 14t-2 11l-2 10h65q1 -3 2 -7q1 -3 2 -8t1 -10
q0 -34 -26.5 -57t-83.5 -23t-83.5 23t-26.5 57q0 10 2 18q1 4 3 7h65q-2 -5 -3 -10t-1.5 -11t-0.5 -14q0 -26 13 -40.5t32 -14.5z" />
    <glyph glyph-name="adieresis" unicode="&#xe4;" horiz-adv-x="465" 
d="M40 0zM300 245q-87 0 -128.5 -38.5t-41.5 -106.5q0 -45 22 -70t48 -25q24 0 42.5 14t31.5 31q15 19 26 45v150zM225 460q-30 0 -50 -20.5t-20 -54.5q0 -8 0.5 -14t1.5 -11t3 -10l-80 -20q-2 3 -3 8t-1.5 11t-0.5 16q0 21 10 40.5t29.5 35t47 25t63.5 9.5q72 0 113.5 -41
t41.5 -109v-300l60 -15v-10h-140v60q-11 -21 -28 -38q-14 -14 -35.5 -25.5t-51.5 -11.5q-72 0 -108.5 34t-36.5 91q0 28 15.5 56t47 50t80.5 35.5t117 13.5v60q0 75 -22.5 105t-52.5 30zM198 581q0 -19 -15.5 -34.5t-34.5 -15.5t-34.5 15.5t-15.5 34.5t15.5 34.5t34.5 15.5
t34.5 -15.5t15.5 -34.5zM363 581q0 -19 -15.5 -34.5t-34.5 -15.5t-34.5 15.5t-15.5 34.5t15.5 34.5t34.5 15.5t34.5 -15.5t15.5 -34.5z" />
    <glyph glyph-name="lacute" unicode="&#x13a;" horiz-adv-x="255" 
d="M30 0zM90 25v650l-60 15v10h140v-675l60 -15v-10h-200v10zM140 870h90l-100 -120h-30z" />
    <glyph glyph-name="cacute" unicode="&#x107;" horiz-adv-x="430" 
d="M45 0zM240 455q-19 0 -37.5 -11.5t-33.5 -37.5t-24.5 -69t-9.5 -107t9.5 -107t25.5 -69.5t36.5 -37.5t43.5 -11q26 0 49 10t41 27t29.5 41t15.5 52h15q-4 -32 -17.5 -59.5t-34.5 -47.5t-48.5 -31.5t-59.5 -11.5q-39 0 -74.5 16.5t-62.5 48t-42.5 77t-15.5 103.5
t15.5 103.5t41.5 77t59 48t69 16.5q24 0 42.5 -8t31.5 -17q15 -11 26 -25q4 15 16.5 28t23.5 17h15q-2 -13 -3 -27q-1 -12 -1.5 -26t-0.5 -27q0 -15 0.5 -30.5t1.5 -27.5q1 -14 3 -27h-15q-19 72 -55.5 111t-74.5 39zM240 636h90l-100 -120h-30z" />
    <glyph glyph-name="ccedilla" unicode="&#xe7;" horiz-adv-x="430" 
d="M45 0zM240 455q-19 0 -37.5 -11.5t-33.5 -37.5t-24.5 -69t-9.5 -107t9.5 -107t25.5 -69.5t36.5 -37.5t43.5 -11q26 0 49 10t41 27t29.5 41t15.5 52h15q-4 -32 -17.5 -59.5t-34.5 -47.5t-48.5 -31.5t-59.5 -11.5q-39 0 -74.5 16.5t-62.5 48t-42.5 77t-15.5 103.5
t15.5 103.5t41.5 77t59 48t69 16.5q24 0 42.5 -8t31.5 -17q15 -11 26 -25q4 15 16.5 28t23.5 17h15q-2 -13 -3 -27q-1 -12 -1.5 -26t-0.5 -27q0 -15 0.5 -30.5t1.5 -27.5q1 -14 3 -27h-15q-19 72 -55.5 111t-74.5 39zM210 0h25v-35q38 0 56.5 -17t18.5 -43t-20.5 -43
t-69.5 -17q-10 0 -17 0.5t-12 1.5q-6 1 -11 3v21q4 -2 9 -3q9 -3 21 -3q23 0 34 12.5t11 27.5q0 19 -11 32t-34 13v50z" />
    <glyph glyph-name="ccaron" unicode="&#x10d;" horiz-adv-x="430" 
d="M45 0zM240 455q-19 0 -37.5 -11.5t-33.5 -37.5t-24.5 -69t-9.5 -107t9.5 -107t25.5 -69.5t36.5 -37.5t43.5 -11q26 0 49 10t41 27t29.5 41t15.5 52h15q-4 -32 -17.5 -59.5t-34.5 -47.5t-48.5 -31.5t-59.5 -11.5q-39 0 -74.5 16.5t-62.5 48t-42.5 77t-15.5 103.5
t15.5 103.5t41.5 77t59 48t69 16.5q24 0 42.5 -8t31.5 -17q15 -11 26 -25q4 15 16.5 28t23.5 17h15q-2 -13 -3 -27q-1 -12 -1.5 -26t-0.5 -27q0 -15 0.5 -30.5t1.5 -27.5q1 -14 3 -27h-15q-19 72 -55.5 111t-74.5 39zM225 581l90 60h25l-115 -130l-115 130h25z" />
    <glyph glyph-name="eacute" unicode="&#xe9;" horiz-adv-x="445" 
d="M45 0zM135 230q0 -64 9.5 -107t25 -69.5t35 -37.5t40.5 -11q26 0 49 10t41 27t29.5 41t15.5 52h15q-4 -32 -17.5 -59.5t-34.5 -47.5t-48.5 -31.5t-59.5 -11.5q-38 0 -72 16.5t-60.5 48t-42 77t-15.5 103.5q0 60 15 106t39.5 76.5t57 46.5t68.5 16t68.5 -16t57 -46.5
t39.5 -76.5t15 -106h-270zM225 460q-15 0 -30 -9.5t-28 -33.5t-21.5 -64.5t-10.5 -102.5h180q-2 62 -10.5 102.5t-21.5 64.5t-28 33.5t-30 9.5zM240 636h90l-100 -120h-30z" />
    <glyph glyph-name="eogonek" unicode="&#x119;" horiz-adv-x="445" 
d="M45 0zM135 230q0 -64 9.5 -107t25 -69.5t35 -37.5t40.5 -11q26 0 49 10t41 27t29.5 41t15.5 52h15q-4 -32 -17.5 -59.5t-34.5 -47.5t-48.5 -31.5t-59.5 -11.5q-38 0 -72 16.5t-60.5 48t-42 77t-15.5 103.5q0 60 15 106t39.5 76.5t57 46.5t68.5 16t68.5 -16t57 -46.5
t39.5 -76.5t15 -106h-270zM225 460q-15 0 -30 -9.5t-28 -33.5t-21.5 -64.5t-10.5 -102.5h180q-2 62 -10.5 102.5t-21.5 64.5t-28 33.5t-30 9.5zM155 -85q0 20 16 36t36 27q23 12 53 22h40q-26 -12 -45 -26q-17 -12 -31 -27t-14 -32q0 -15 10.5 -25t29.5 -10q9 0 17.5 3.5
t14.5 8.5q7 5 13 13v-25q-6 -6 -16 -10q-8 -4 -20 -7t-29 -3q-38 0 -56.5 16t-18.5 39z" />
    <glyph glyph-name="edieresis" unicode="&#xeb;" horiz-adv-x="445" 
d="M45 0zM135 230q0 -64 9.5 -107t25 -69.5t35 -37.5t40.5 -11q26 0 49 10t41 27t29.5 41t15.5 52h15q-4 -32 -17.5 -59.5t-34.5 -47.5t-48.5 -31.5t-59.5 -11.5q-38 0 -72 16.5t-60.5 48t-42 77t-15.5 103.5q0 60 15 106t39.5 76.5t57 46.5t68.5 16t68.5 -16t57 -46.5
t39.5 -76.5t15 -106h-270zM225 460q-15 0 -30 -9.5t-28 -33.5t-21.5 -64.5t-10.5 -102.5h180q-2 62 -10.5 102.5t-21.5 64.5t-28 33.5t-30 9.5zM194 581q0 -19 -15.5 -34.5t-34.5 -15.5t-34.5 15.5t-15.5 34.5t15.5 34.5t34.5 15.5t34.5 -15.5t15.5 -34.5zM359 581
q0 -19 -15.5 -34.5t-34.5 -15.5t-34.5 15.5t-15.5 34.5t15.5 34.5t34.5 15.5t34.5 -15.5t15.5 -34.5z" />
    <glyph glyph-name="ecaron" unicode="&#x11b;" horiz-adv-x="445" 
d="M45 0zM135 230q0 -64 9.5 -107t25 -69.5t35 -37.5t40.5 -11q26 0 49 10t41 27t29.5 41t15.5 52h15q-4 -32 -17.5 -59.5t-34.5 -47.5t-48.5 -31.5t-59.5 -11.5q-38 0 -72 16.5t-60.5 48t-42 77t-15.5 103.5q0 60 15 106t39.5 76.5t57 46.5t68.5 16t68.5 -16t57 -46.5
t39.5 -76.5t15 -106h-270zM225 460q-15 0 -30 -9.5t-28 -33.5t-21.5 -64.5t-10.5 -102.5h180q-2 62 -10.5 102.5t-21.5 64.5t-28 33.5t-30 9.5zM232 581l90 60h25l-115 -130l-115 130h25z" />
    <glyph glyph-name="iacute" unicode="&#xed;" horiz-adv-x="260" 
d="M95 25v410l-60 15v10h140v-435l60 -15v-10h-200v10zM155 630h90l-100 -120h-30z" />
    <glyph glyph-name="icircumflex" unicode="&#xee;" horiz-adv-x="260" 
d="M95 25v410l-60 15v10h140v-435l60 -15v-10h-200v10zM40 520h-25l115 130l115 -130h-25l-90 60z" />
    <glyph glyph-name="dcaron" unicode="&#x10f;" horiz-adv-x="585" 
d="M40 0zM240 455q-21 0 -40.5 -11.5t-35 -37.5t-25 -69t-9.5 -107t9.5 -107t24 -69.5t32 -37.5t34.5 -11q24 0 42.5 14t31.5 31q15 19 26 45v300q-10 17 -23 30q-11 11 -27.5 20.5t-39.5 9.5zM410 25l60 -15v-10h-140v60q-11 -21 -28 -38q-14 -14 -35.5 -25.5t-51.5 -11.5
q-32 0 -63.5 16.5t-56 48t-40 77t-15.5 103.5t15.5 103.5t41.5 77t59 48t69 16.5q28 0 48 -8t33 -17q15 -11 24 -25v250l-60 15v10h140v-675zM515 700q23 0 36.5 -17t13.5 -43q0 -40 -12 -65t-26 -39q-17 -17 -37 -26l-10 15q15 8 27 19q11 9 19.5 20.5t8.5 25.5q0 4 -1 7.5
t-2 6.5q-1 4 -2 6q-3 -2 -7 -3q-8 -2 -13 -2q-19 0 -32 13t-13 32q0 23 13.5 36.5t36.5 13.5z" />
    <glyph glyph-name="nacute" unicode="&#x144;" horiz-adv-x="515" 
d="M35 0zM95 25v410l-60 15v10h140v-60q10 20 27 37q14 14 36 26t52 12t55.5 -11t44.5 -30.5t29.5 -47t10.5 -61.5v-300l60 -15v-10h-195v10l55 15v300q0 71 -22.5 100.5t-52.5 29.5q-25 0 -43 -14t-31 -31q-15 -20 -26 -45v-340l55 -15v-10h-195v10zM282 636h90l-100 -120
h-30z" />
    <glyph glyph-name="ncaron" unicode="&#x148;" horiz-adv-x="515" 
d="M35 0zM95 25v410l-60 15v10h140v-60q10 20 27 37q14 14 36 26t52 12t55.5 -11t44.5 -30.5t29.5 -47t10.5 -61.5v-300l60 -15v-10h-195v10l55 15v300q0 71 -22.5 100.5t-52.5 29.5q-25 0 -43 -14t-31 -31q-15 -20 -26 -45v-340l55 -15v-10h-195v10zM277 586l90 60h25
l-115 -130l-115 130h25z" />
    <glyph glyph-name="oacute" unicode="&#xf3;" horiz-adv-x="470" 
d="M45 0zM235 460q-17 0 -34.5 -11.5t-32 -38t-24 -70.5t-9.5 -110t9.5 -110t24 -70.5t32 -38t34.5 -11.5t34.5 11.5t32 38t24 70.5t9.5 110t-9.5 110t-24 70.5t-32 38t-34.5 11.5zM235 475q37 0 71.5 -16.5t61 -48t42 -77t15.5 -103.5t-15.5 -103.5t-42 -77t-61 -48
t-71.5 -16.5q-38 0 -72 16.5t-60.5 48t-42 77t-15.5 103.5t15.5 103.5t42 77t60.5 48t72 16.5zM250 635h90l-100 -120h-30z" />
    <glyph glyph-name="ocircumflex" unicode="&#xf4;" horiz-adv-x="470" 
d="M45 0zM235 460q-17 0 -34.5 -11.5t-32 -38t-24 -70.5t-9.5 -110t9.5 -110t24 -70.5t32 -38t34.5 -11.5t34.5 11.5t32 38t24 70.5t9.5 110t-9.5 110t-24 70.5t-32 38t-34.5 11.5zM235 475q37 0 71.5 -16.5t61 -48t42 -77t15.5 -103.5t-15.5 -103.5t-42 -77t-61 -48
t-71.5 -16.5q-38 0 -72 16.5t-60.5 48t-42 77t-15.5 103.5t15.5 103.5t42 77t60.5 48t72 16.5zM145 521h-25l115 130l115 -130h-25l-90 60z" />
    <glyph glyph-name="ohungarumlaut" unicode="&#x151;" horiz-adv-x="470" 
d="M45 0zM235 460q-17 0 -34.5 -11.5t-32 -38t-24 -70.5t-9.5 -110t9.5 -110t24 -70.5t32 -38t34.5 -11.5t34.5 11.5t32 38t24 70.5t9.5 110t-9.5 110t-24 70.5t-32 38t-34.5 11.5zM235 475q37 0 71.5 -16.5t61 -48t42 -77t15.5 -103.5t-15.5 -103.5t-42 -77t-61 -48
t-71.5 -16.5q-38 0 -72 16.5t-60.5 48t-42 77t-15.5 103.5t15.5 103.5t42 77t60.5 48t72 16.5zM195 641h80l-90 -120h-30zM305 641h80l-90 -120h-30z" />
    <glyph glyph-name="odieresis" unicode="&#xf6;" horiz-adv-x="470" 
d="M45 0zM235 460q-17 0 -34.5 -11.5t-32 -38t-24 -70.5t-9.5 -110t9.5 -110t24 -70.5t32 -38t34.5 -11.5t34.5 11.5t32 38t24 70.5t9.5 110t-9.5 110t-24 70.5t-32 38t-34.5 11.5zM235 475q37 0 71.5 -16.5t61 -48t42 -77t15.5 -103.5t-15.5 -103.5t-42 -77t-61 -48
t-71.5 -16.5q-38 0 -72 16.5t-60.5 48t-42 77t-15.5 103.5t15.5 103.5t42 77t60.5 48t72 16.5zM202 581q0 -19 -15.5 -34.5t-34.5 -15.5t-34.5 15.5t-15.5 34.5t15.5 34.5t34.5 15.5t34.5 -15.5t15.5 -34.5zM367 581q0 -19 -15.5 -34.5t-34.5 -15.5t-34.5 15.5t-15.5 34.5
t15.5 34.5t34.5 15.5t34.5 -15.5t15.5 -34.5z" />
    <glyph glyph-name="rcaron" unicode="&#x159;" horiz-adv-x="360" 
d="M35 0zM175 25l60 -15v-10h-200v10l60 15v410l-60 15v10h140v-120q13 37 31 67q16 26 39 47t55 21q11 0 21 -1.5t18 -3.5q9 -3 16 -5l-30 -75q-6 3 -13 7q-6 3 -14.5 5.5t-17.5 2.5q-26 0 -46 -14t-33 -31q-16 -20 -26 -45v-290zM200 591l90 60h25l-115 -130l-115 130h25z
" />
    <glyph glyph-name="uring" unicode="&#x16f;" 
d="M15 0zM410 435v-410l60 -15v-10h-140v60q-11 -21 -28 -38q-14 -14 -35.5 -25.5t-51.5 -11.5t-55.5 11t-44.5 30.5t-29.5 47t-10.5 61.5v300l-60 15v10h195v-10l-55 -15v-300q0 -71 22.5 -100.5t52.5 -29.5q24 0 42.5 14t31.5 31q15 19 26 45v340l-55 15v10h195v-10z
M332 586q0 -34 -23 -54.5t-57 -20.5t-57 20.5t-23 54.5t23 54.5t57 20.5t57 -20.5t23 -54.5zM287 586q0 26 -10 40.5t-25 14.5t-25 -14.5t-10 -40.5t10 -40.5t25 -14.5t25 14.5t10 40.5z" />
    <glyph glyph-name="uacute" unicode="&#xfa;" 
d="M15 0zM410 435v-410l60 -15v-10h-140v60q-11 -21 -28 -38q-14 -14 -35.5 -25.5t-51.5 -11.5t-55.5 11t-44.5 30.5t-29.5 47t-10.5 61.5v300l-60 15v10h195v-10l-55 -15v-300q0 -71 22.5 -100.5t52.5 -29.5q24 0 42.5 14t31.5 31q15 19 26 45v340l-55 15v10h195v-10z
M267 641h90l-100 -120h-30z" />
    <glyph glyph-name="uhungarumlaut" unicode="&#x171;" 
d="M15 0zM410 435v-410l60 -15v-10h-140v60q-11 -21 -28 -38q-14 -14 -35.5 -25.5t-51.5 -11.5t-55.5 11t-44.5 30.5t-29.5 47t-10.5 61.5v300l-60 15v10h195v-10l-55 -15v-300q0 -71 22.5 -100.5t52.5 -29.5q24 0 42.5 14t31.5 31q15 19 26 45v340l-55 15v10h195v-10z
M207 641h80l-90 -120h-30zM317 641h80l-90 -120h-30z" />
    <glyph glyph-name="udieresis" unicode="&#xfc;" 
d="M15 0zM410 435v-410l60 -15v-10h-140v60q-11 -21 -28 -38q-14 -14 -35.5 -25.5t-51.5 -11.5t-55.5 11t-44.5 30.5t-29.5 47t-10.5 61.5v300l-60 15v10h195v-10l-55 -15v-300q0 -71 22.5 -100.5t52.5 -29.5q24 0 42.5 14t31.5 31q15 19 26 45v340l-55 15v10h195v-10z
M210 581q0 -19 -15.5 -34.5t-34.5 -15.5t-34.5 15.5t-15.5 34.5t15.5 34.5t34.5 15.5t34.5 -15.5t15.5 -34.5zM375 581q0 -19 -15.5 -34.5t-34.5 -15.5t-34.5 15.5t-15.5 34.5t15.5 34.5t34.5 15.5t34.5 -15.5t15.5 -34.5z" />
    <glyph glyph-name="yacute" unicode="&#xfd;" horiz-adv-x="435" 
d="M0 0zM215 -85q-16 -47 -31 -78.5t-31.5 -51t-34 -27.5t-38.5 -8q-6 0 -11 0.5t-10 1.5t-9 3l-15 75q4 -2 9 -3t10 -1.5t11 -0.5q60 0 87.5 22.5t42.5 67.5l28 85l-173 435l-60 15v10h200v-10l-55 -15l127 -319l103 309l-65 25v10h150v-10l-65 -25zM262 641h90l-100 -120
h-30z" />
    <glyph glyph-name="tcommaaccent" unicode="&#x163;" horiz-adv-x="355" 
d="M10 0zM290 460v-20h-115v-319q0 -61 22 -88.5t48 -27.5q34 0 57.5 25.5t27.5 74.5h15q-4 -57 -34.5 -88.5t-75.5 -31.5q-64 0 -102 37.5t-38 97.5v320h-85v20h85v115l80 55v-170h115zM215 -69q23 0 36.5 -17t13.5 -43q0 -40 -12 -65t-26 -39q-17 -17 -37 -26l-10 15
q15 8 27 19q11 9 19.5 20.5t8.5 25.5q0 4 -1 7.5t-2 6.5q-1 4 -2 6q-3 -2 -7 -3q-8 -2 -13 -2q-19 0 -32 13t-13 32q0 23 13.5 36.5t36.5 13.5z" />
    <glyph glyph-name="dcroat" unicode="&#x111;" horiz-adv-x="500" 
d="M410 580h60v-20h-60v-535l60 -15v-10h-140v60q-11 -21 -28 -38q-14 -14 -35.5 -25.5t-51.5 -11.5q-32 0 -63.5 16.5t-56 48t-40 77t-15.5 103.5t15.5 103.5t41.5 77t59 48t69 16.5q28 0 48 -8t33 -17q15 -11 24 -25v135h-140v20h140v95l-60 15v10h140v-120zM240 455
q-21 0 -40.5 -11.5t-35 -37.5t-25 -69t-9.5 -107t9.5 -107t24 -69.5t32 -37.5t34.5 -11q24 0 42.5 14t31.5 31q15 19 26 45v300q-10 17 -23 30q-11 11 -27.5 20.5t-39.5 9.5z" />
    <glyph glyph-name="Lslash" unicode="&#x141;" horiz-adv-x="470" 
d="M105 340v335l-60 15v10h205v-10l-60 -15v-237l70 82v-40l-70 -82v-378h180q0 42 17 78t43 62h10q-2 -13 -3 -27q-1 -12 -1.5 -26t-0.5 -27q0 -19 0.5 -33.5t1.5 -25.5q1 -12 3 -21h-395v10l60 15v275l-60 -70v40z" />
    <glyph glyph-name="lslash" unicode="&#x142;" horiz-adv-x="260" 
d="M95 25v272l-50 -57v40l50 57v338l-60 15v10h140v-273l55 63v-40l-55 -63v-362l60 -15v-10h-200v10z" />
    <glyph glyph-name="Dcroat" unicode="&#x110;" horiz-adv-x="560" 
d="M220 700q66 0 121.5 -24t96.5 -69t64 -110t23 -147q0 -83 -23 -148t-64 -110t-96.5 -68.5t-121.5 -23.5h-175v10l60 15v315h-60v20h60v315l-60 15v10h175zM190 20h30q43 0 81.5 18.5t67 58.5t45 102.5t16.5 150.5t-16.5 150.5t-45 102.5t-67 58.5t-81.5 18.5h-30v-320
h140v-20h-140v-320z" />
    <glyph glyph-name="exclamdown" unicode="&#xa1;" horiz-adv-x="240" 
d="M60 0zM120 -254.956q26 0 43 17.999q17 17.998 17 51.9961l-45 484.971h-30l-45 -484.971q0 -33.998 17 -51.9961q17 -17.999 43 -17.999zM65 415.003q0 -22.999 16 -38.998t39 -15.999t39 15.999t16 38.998q0 22.998 -16 38.9971t-39 15.999t-39 -15.999t-16 -38.9971z
" />
    <glyph glyph-name="Ydieresis" unicode="&#x178;" horiz-adv-x="490" 
d="M0 0zM295 280v-255l60 -15v-10h-205v10l60 15v250l-155 400l-60 15v10h210v-10l-60 -15l142 -365l138 355l-65 25v10h150v-10l-65 -25zM245 826q0 -19 -15.5 -34.5t-34.5 -15.5t-34.5 15.5t-15.5 34.5t15.5 34.5t34.5 15.5t34.5 -15.5t15.5 -34.5zM410 826
q0 -19 -15.5 -34.5t-34.5 -15.5t-34.5 15.5t-15.5 34.5t15.5 34.5t34.5 15.5t34.5 -15.5t15.5 -34.5z" />
    <glyph glyph-name="questiondown" unicode="&#xbf;" horiz-adv-x="460" 
d="M30 0zM300.01 415.003q0 -22.999 -15.999 -38.998t-38.998 -15.999q-22.998 0 -38.9971 15.999t-15.999 38.998q0 22.998 15.999 38.9971t38.9971 15.999q22.999 0 38.998 -15.999t15.999 -38.9971zM30.0264 -39.9697q0 42.998 14.499 79.9951
q14.499 36.998 38.998 65.4961q24.498 28.498 55.9961 47.9971t65.4961 26.499l24.998 124.992h29.998q2 -25.999 6 -51.9971q3 -21.999 9 -46.9971q5.99902 -24.999 14.999 -45.9971q-82.9951 0 -123.993 -45.4971q-40.9971 -45.498 -40.9971 -154.491
q0 -53.9961 9.99902 -91.9941q10 -37.998 27.999 -61.9961q17.998 -23.999 43.9971 -34.998q25.998 -10.999 57.9961 -10.999t59.9961 11.999q27.999 11.999 48.9971 32.498q20.999 20.499 33.498 46.4971t12.499 53.9971q0 25.998 -20.498 42.9971
q-20.499 16.999 -69.4961 16.999l-19.999 79.9951q4 2 9 3q4.99902 1 10.499 1.5t10.5 0.5q41.9971 0 70.9951 -33.498t28.998 -101.494q0 -35.998 -13.999 -67.4961t-38.9971 -55.4961q-24.999 -23.999 -58.9971 -37.998t-72.9951 -13.999q-50.9971 0 -92.4941 15.999
q-41.498 15.999 -70.9961 44.9971t-45.4971 69.4961q-15.999 40.4971 -15.999 89.4941z" />
    <glyph glyph-name="Agrave" unicode="&#xc0;" horiz-adv-x="520" 
d="M0 0zM335 205h-205l-50 -170l65 -25v-10h-150v10l65 25l195 680h15l210 -690l60 -15v-10h-210v10l60 15zM135 224h194l-100 331zM287 750h-30l-100 120h90z" />
    <glyph glyph-name="Atilde" unicode="&#xc3;" horiz-adv-x="520" 
d="M0 0zM335 205h-205l-50 -170l65 -25v-10h-150v10l65 25l195 680h15l210 -690l60 -15v-10h-210v10l60 15zM135 224h194l-100 331zM370 855q0 -53 -19.5 -76.5t-45.5 -23.5q-15 0 -27 8.5t-22.5 19t-20 19t-20.5 8.5q-15 0 -25 -11t-10 -34h-15q0 53 19.5 76.5t45.5 23.5
q15 0 27 -8.5t22.5 -19t20 -19t20.5 -8.5q15 0 25 11t10 34h15z" />
    <glyph glyph-name="Aring" unicode="&#xc5;" horiz-adv-x="520" 
d="M0 0zM335 205h-205l-50 -170l65 -25v-10h-150v10l65 25l195 680h15l210 -690l60 -15v-10h-210v10l60 15zM135 224h194l-100 331zM342 765q0 -34 -23 -54.5t-57 -20.5t-57 20.5t-23 54.5t23 54.5t57 20.5t57 -20.5t23 -54.5zM297 765q0 26 -10 40.5t-25 14.5t-25 -14.5
t-10 -40.5t10 -40.5t25 -14.5t25 14.5t10 40.5z" />
    <glyph glyph-name="Egrave" unicode="&#xc8;" 
d="M45 0zM390 20q0 42 17 78t43 62h10q-2 -13 -3 -27q-1 -12 -1.5 -26t-0.5 -27q0 -19 0.5 -33.5t1.5 -25.5q1 -12 3 -21h-415v10l60 15v650l-60 15v10h405q-2 -9 -3 -21q-1 -11 -1.5 -25.5t-0.5 -33.5q0 -14 0.5 -27.5t1.5 -25.5q1 -14 3 -27h-10q-26 26 -43 62t-17 78
h-190v-300h95l45 90h10v-200h-10l-45 90h-95v-340h200zM297 750h-30l-100 120h90z" />
    <glyph glyph-name="Ecircumflex" unicode="&#xca;" 
d="M45 0zM390 20q0 42 17 78t43 62h10q-2 -13 -3 -27q-1 -12 -1.5 -26t-0.5 -27q0 -19 0.5 -33.5t1.5 -25.5q1 -12 3 -21h-415v10l60 15v650l-60 15v10h405q-2 -9 -3 -21q-1 -11 -1.5 -25.5t-0.5 -33.5q0 -14 0.5 -27.5t1.5 -25.5q1 -14 3 -27h-10q-26 26 -43 62t-17 78
h-190v-300h95l45 90h10v-200h-10l-45 90h-95v-340h200zM185 756h-25l115 130l115 -130h-25l-90 60z" />
    <glyph glyph-name="Igrave" unicode="&#xcc;" horiz-adv-x="295" 
d="M42 0zM190 25l60 -15v-10h-205v10l60 15v650l-60 15v10h205v-10l-60 -15v-650zM172 750h-30l-100 120h90z" />
    <glyph glyph-name="Idieresis" unicode="&#xcf;" horiz-adv-x="295" 
d="M18 0zM190 25l60 -15v-10h-205v10l60 15v650l-60 15v10h205v-10l-60 -15v-650zM118 810q0 -19 -15.5 -34.5t-34.5 -15.5t-34.5 15.5t-15.5 34.5t15.5 34.5t34.5 15.5t34.5 -15.5t15.5 -34.5zM283 810q0 -19 -15.5 -34.5t-34.5 -15.5t-34.5 15.5t-15.5 34.5t15.5 34.5
t34.5 15.5t34.5 -15.5t15.5 -34.5z" />
    <glyph glyph-name="Gbreve" unicode="&#x11e;" horiz-adv-x="525" 
d="M45 0zM395 320h-100v20h185v-75q0 -68 -17.5 -120t-46 -87.5t-65.5 -54t-76 -18.5q-41 0 -82 22.5t-74 68t-53.5 114t-20.5 160.5t20.5 160.5t54 114t75.5 68t85 22.5q24 0 43.5 -8t33.5 -17q16 -11 28 -25q8 15 21.5 28t28.5 17h15q-2 -15 -3 -30q-1 -14 -1.5 -29.5
t-0.5 -30.5q0 -17 0.5 -33.5t1.5 -30.5q1 -16 3 -31h-15q-23 83 -61.5 126.5t-83.5 43.5q-28 0 -55 -16t-48 -55.5t-34 -106t-13 -167.5q0 -103 12.5 -170.5t32.5 -107.5t43.5 -56t46.5 -16q22 0 44 12.5t38.5 43t27 81.5t10.5 128v55zM272 775q19 0 32 14.5t13 40.5
q0 8 -1 14t-2 11l-2 10h65q1 -3 2 -7q1 -3 2 -8t1 -10q0 -34 -26.5 -57t-83.5 -23t-83.5 23t-26.5 57q0 10 2 18q1 4 3 7h65q-2 -5 -3 -10t-1.5 -11t-0.5 -14q0 -26 13 -40.5t32 -14.5z" />
    <glyph glyph-name="Ntilde" unicode="&#xd1;" horiz-adv-x="585" 
d="M40 0zM460 665l-65 25v10h150v-10l-65 -25v-675h-15l-340 625v-580l65 -25v-10h-150v10l65 25v635l-65 20v10h135l285 -525v490zM395 860q0 -53 -19.5 -76.5t-45.5 -23.5q-15 0 -27 8.5t-22.5 19t-20 19t-20.5 8.5q-15 0 -25 -11t-10 -34h-15q0 53 19.5 76.5t45.5 23.5
q15 0 27 -8.5t22.5 -19t20 -19t20.5 -8.5q15 0 25 11t10 34h15z" />
    <glyph glyph-name="Ograve" unicode="&#xd2;" horiz-adv-x="550" 
d="M40 0zM510 350q0 -92 -20.5 -160.5t-54 -114t-75.5 -68t-85 -22.5t-85 22.5t-75.5 68t-54 114t-20.5 160.5t20.5 160.5t54 114t75.5 68t85 22.5t85 -22.5t75.5 -68t54 -114t20.5 -160.5zM415 350q0 103 -12.5 170.5t-33 107.5t-45.5 56t-49 16t-49 -16t-45.5 -56
t-33 -107.5t-12.5 -170.5t12.5 -170.5t33 -107.5t45.5 -56t49 -16t49 16t45.5 56t33 107.5t12.5 170.5zM300 760h-30l-100 120h90z" />
    <glyph glyph-name="Otilde" unicode="&#xd5;" horiz-adv-x="550" 
d="M40 0zM510 350q0 -92 -20.5 -160.5t-54 -114t-75.5 -68t-85 -22.5t-85 22.5t-75.5 68t-54 114t-20.5 160.5t20.5 160.5t54 114t75.5 68t85 22.5t85 -22.5t75.5 -68t54 -114t20.5 -160.5zM415 350q0 103 -12.5 170.5t-33 107.5t-45.5 56t-49 16t-49 -16t-45.5 -56
t-33 -107.5t-12.5 -170.5t12.5 -170.5t33 -107.5t45.5 -56t49 -16t49 16t45.5 56t33 107.5t12.5 170.5zM377 870q0 -53 -19.5 -76.5t-45.5 -23.5q-15 0 -27 8.5t-22.5 19t-20 19t-20.5 8.5q-15 0 -25 -11t-10 -34h-15q0 53 19.5 76.5t45.5 23.5q15 0 27 -8.5t22.5 -19
t20 -19t20.5 -8.5q15 0 25 11t10 34h15z" />
    <glyph glyph-name="Ugrave" unicode="&#xd9;" horiz-adv-x="570" 
d="M30 0zM485 200q0 -113 -46.5 -164t-133.5 -51q-102 0 -158.5 56.5t-56.5 158.5v475l-60 15v10h205v-10l-60 -15v-475q0 -101 40 -148t100 -47q34 0 61.5 11.5t47 35.5t30.5 60.5t11 87.5v465l-65 25v10h150v-10l-65 -25v-465zM340 750h-30l-100 120h90z" />
    <glyph glyph-name="Ucircumflex" unicode="&#xdb;" horiz-adv-x="570" 
d="M30 0zM485 200q0 -113 -46.5 -164t-133.5 -51q-102 0 -158.5 56.5t-56.5 158.5v475l-60 15v10h205v-10l-60 -15v-475q0 -101 40 -148t100 -47q34 0 61.5 11.5t47 35.5t30.5 60.5t11 87.5v465l-65 25v10h150v-10l-65 -25v-465zM215 760h-25l115 130l115 -130h-25l-90 60z
" />
    <glyph glyph-name="Idotaccent" unicode="&#x130;" horiz-adv-x="295" 
d="M45 0zM190 25l60 -15v-10h-205v10l60 15v650l-60 15v10h205v-10l-60 -15v-650zM200 810q0 -19 -15.5 -34.5t-34.5 -15.5t-34.5 15.5t-15.5 34.5t15.5 34.5t34.5 15.5t34.5 -15.5t15.5 -34.5z" />
    <glyph glyph-name="Scedilla" unicode="&#x15e;" horiz-adv-x="465" 
d="M35 0zM110 570q0 -41 24 -70.5t60 -54.5t78.5 -49t78.5 -54.5t60 -71.5t24 -100q0 -39 -14 -73t-39.5 -59t-60.5 -39t-76 -14q-38 0 -65 7.5t-45 17.5q-21 11 -35 25q-8 -15 -21.5 -28t-28.5 -17h-15q1 14 2 30q1 13 2 29t1 31q0 17 -1 33.5t-2 30.5q-1 16 -2 31h15
q23 -83 66.5 -126.5t118.5 -43.5q60 0 97.5 38.5t37.5 106.5q0 41 -24 70.5t-60 54.5t-78.5 49t-78.5 54.5t-60 71.5t-24 100q0 34 13 64t36 52.5t54 35.5t67 13q30 0 53 -8t39 -17q18 -11 33 -25q8 15 21.5 28t28.5 17h15q-2 -15 -3 -30q-1 -14 -1.5 -29.5t-0.5 -30.5
q0 -17 0.5 -33.5t1.5 -30.5q1 -16 3 -31h-15q-23 83 -64 126.5t-101 43.5q-49 0 -82 -34t-33 -91zM207 0h25v-35q38 0 56.5 -17t18.5 -43t-20.5 -43t-69.5 -17q-10 0 -17 0.5t-12 1.5q-6 1 -11 3v21q4 -2 9 -3q9 -3 21 -3q23 0 34 12.5t11 27.5q0 19 -11 32t-34 13v50z" />
    <glyph glyph-name="agrave" unicode="&#xe0;" horiz-adv-x="465" 
d="M40 0zM300 245q-87 0 -128.5 -38.5t-41.5 -106.5q0 -45 22 -70t48 -25q24 0 42.5 14t31.5 31q15 19 26 45v150zM225 460q-30 0 -50 -20.5t-20 -54.5q0 -8 0.5 -14t1.5 -11t3 -10l-80 -20q-2 3 -3 8t-1.5 11t-0.5 16q0 21 10 40.5t29.5 35t47 25t63.5 9.5q72 0 113.5 -41
t41.5 -109v-300l60 -15v-10h-140v60q-11 -21 -28 -38q-14 -14 -35.5 -25.5t-51.5 -11.5q-72 0 -108.5 34t-36.5 91q0 28 15.5 56t47 50t80.5 35.5t117 13.5v60q0 75 -22.5 105t-52.5 30zM265 515h-30l-100 120h90z" />
    <glyph glyph-name="atilde" unicode="&#xe3;" horiz-adv-x="465" 
d="M40 0zM300 245q-87 0 -128.5 -38.5t-41.5 -106.5q0 -45 22 -70t48 -25q24 0 42.5 14t31.5 31q15 19 26 45v150zM225 460q-30 0 -50 -20.5t-20 -54.5q0 -8 0.5 -14t1.5 -11t3 -10l-80 -20q-2 3 -3 8t-1.5 11t-0.5 16q0 21 10 40.5t29.5 35t47 25t63.5 9.5q72 0 113.5 -41
t41.5 -109v-300l60 -15v-10h-140v60q-11 -21 -28 -38q-14 -14 -35.5 -25.5t-51.5 -11.5q-72 0 -108.5 34t-36.5 91q0 28 15.5 56t47 50t80.5 35.5t117 13.5v60q0 75 -22.5 105t-52.5 30zM333 631q0 -53 -19.5 -76.5t-45.5 -23.5q-15 0 -27 8.5t-22.5 19t-20 19t-20.5 8.5
q-15 0 -25 -11t-10 -34h-15q0 53 19.5 76.5t45.5 23.5q15 0 27 -8.5t22.5 -19t20 -19t20.5 -8.5q15 0 25 11t10 34h15z" />
    <glyph glyph-name="aring" unicode="&#xe5;" horiz-adv-x="465" 
d="M40 0zM300 245q-87 0 -128.5 -38.5t-41.5 -106.5q0 -45 22 -70t48 -25q24 0 42.5 14t31.5 31q15 19 26 45v150zM225 460q-30 0 -50 -20.5t-20 -54.5q0 -8 0.5 -14t1.5 -11t3 -10l-80 -20q-2 3 -3 8t-1.5 11t-0.5 16q0 21 10 40.5t29.5 35t47 25t63.5 9.5q72 0 113.5 -41
t41.5 -109v-300l60 -15v-10h-140v60q-11 -21 -28 -38q-14 -14 -35.5 -25.5t-51.5 -11.5q-72 0 -108.5 34t-36.5 91q0 28 15.5 56t47 50t80.5 35.5t117 13.5v60q0 75 -22.5 105t-52.5 30zM305 590q0 -34 -23 -54.5t-57 -20.5t-57 20.5t-23 54.5t23 54.5t57 20.5t57 -20.5
t23 -54.5zM260 590q0 26 -10 40.5t-25 14.5t-25 -14.5t-10 -40.5t10 -40.5t25 -14.5t25 14.5t10 40.5z" />
    <glyph glyph-name="egrave" unicode="&#xe8;" horiz-adv-x="445" 
d="M45 0zM135 230q0 -64 9.5 -107t25 -69.5t35 -37.5t40.5 -11q26 0 49 10t41 27t29.5 41t15.5 52h15q-4 -32 -17.5 -59.5t-34.5 -47.5t-48.5 -31.5t-59.5 -11.5q-38 0 -72 16.5t-60.5 48t-42 77t-15.5 103.5q0 60 15 106t39.5 76.5t57 46.5t68.5 16t68.5 -16t57 -46.5
t39.5 -76.5t15 -106h-270zM225 460q-15 0 -30 -9.5t-28 -33.5t-21.5 -64.5t-10.5 -102.5h180q-2 62 -10.5 102.5t-21.5 64.5t-28 33.5t-30 9.5zM247 515h-30l-100 120h90z" />
    <glyph glyph-name="ecircumflex" unicode="&#xea;" horiz-adv-x="445" 
d="M45 0zM135 230q0 -64 9.5 -107t25 -69.5t35 -37.5t40.5 -11q26 0 49 10t41 27t29.5 41t15.5 52h15q-4 -32 -17.5 -59.5t-34.5 -47.5t-48.5 -31.5t-59.5 -11.5q-38 0 -72 16.5t-60.5 48t-42 77t-15.5 103.5q0 60 15 106t39.5 76.5t57 46.5t68.5 16t68.5 -16t57 -46.5
t39.5 -76.5t15 -106h-270zM225 460q-15 0 -30 -9.5t-28 -33.5t-21.5 -64.5t-10.5 -102.5h180q-2 62 -10.5 102.5t-21.5 64.5t-28 33.5t-30 9.5zM142 525h-25l115 130l115 -130h-25l-90 60z" />
    <glyph glyph-name="igrave" unicode="&#xec;" horiz-adv-x="260" 
d="M95 25v410l-60 15v10h140v-435l60 -15v-10h-200v10zM155 515h-30l-100 120h90z" />
    <glyph glyph-name="idieresis" unicode="&#xef;" horiz-adv-x="260" 
d="M95 25v410l-60 15v10h140v-435l60 -15v-10h-200v10zM98 580q0 -19 -15.5 -34.5t-34.5 -15.5t-34.5 15.5t-15.5 34.5t15.5 34.5t34.5 15.5t34.5 -15.5t15.5 -34.5zM263 580q0 -19 -15.5 -34.5t-34.5 -15.5t-34.5 15.5t-15.5 34.5t15.5 34.5t34.5 15.5t34.5 -15.5
t15.5 -34.5z" />
    <glyph glyph-name="gbreve" unicode="&#x11f;" horiz-adv-x="485" 
d="M20 0zM220 150q17 0 33 8.5t29 27.5t20.5 48.5t7.5 70.5t-7.5 70.5t-20.5 48t-29 27.5t-33 9t-33 -9t-29 -27.5t-20.5 -48t-7.5 -70.5t7.5 -70.5t20.5 -48.5t29 -27.5t33 -8.5zM240 -236q37 0 67 10.5t50.5 28.5t31.5 42t11 50q0 95 -95 95h-160q-57 0 -83.5 23t-26.5 57
q0 23 11.5 40.5t25.5 31.5q17 15 38 28q-20 13 -35 32q-14 17 -24.5 42t-10.5 61t13.5 67t37.5 54t57 36t72 13q17 0 33 -3t29 -7q15 -4 28 -10q8 11 19 20q10 8 25 14t36 6q34 0 53.5 -12.5t30.5 -27.5q12 -18 16 -40l-75 -15q-3 20 -9 37q-5 14 -14 26t-22 12
q-11 0 -20 -5t-14 -10q-7 -7 -11 -15q38 -23 56.5 -59t18.5 -81q0 -36 -13.5 -67t-37.5 -54t-57 -36t-72 -13q-21 0 -38 3.5t-30 8.5q-15 5 -27 13q-14 -9 -25 -19q-10 -8 -17.5 -19t-7.5 -22q0 -15 14 -24.5t56 -9.5h160q60 0 97.5 -38.5t37.5 -102.5q0 -38 -14.5 -70.5
t-40.5 -57t-63 -38.5t-82 -14q-56 0 -97.5 12.5t-68.5 34t-40.5 50.5t-13.5 63q0 13 3 23.5t7 17.5q4 8 10 14l75 -30q-3 -7 -5 -15q-5 -15 -5 -30q0 -53 35.5 -87t99.5 -34zM222 541q19 0 32 14.5t13 40.5q0 8 -1 14t-2 11l-2 10h65q1 -3 2 -7q1 -3 2 -8t1 -10
q0 -34 -26.5 -57t-83.5 -23t-83.5 23t-26.5 57q0 10 2 18q1 4 3 7h65q-2 -5 -3 -10t-1.5 -11t-0.5 -14q0 -26 13 -40.5t32 -14.5z" />
    <glyph glyph-name="ntilde" unicode="&#xf1;" horiz-adv-x="515" 
d="M35 0zM95 25v410l-60 15v10h140v-60q10 20 27 37q14 14 36 26t52 12t55.5 -11t44.5 -30.5t29.5 -47t10.5 -61.5v-300l60 -15v-10h-195v10l55 15v300q0 71 -22.5 100.5t-52.5 29.5q-25 0 -43 -14t-31 -31q-15 -20 -26 -45v-340l55 -15v-10h-195v10zM370 626
q0 -53 -19.5 -76.5t-45.5 -23.5q-15 0 -27 8.5t-22.5 19t-20 19t-20.5 8.5q-15 0 -25 -11t-10 -34h-15q0 53 19.5 76.5t45.5 23.5q15 0 27 -8.5t22.5 -19t20 -19t20.5 -8.5q15 0 25 11t10 34h15z" />
    <glyph glyph-name="ograve" unicode="&#xf2;" horiz-adv-x="470" 
d="M45 0zM235 460q-17 0 -34.5 -11.5t-32 -38t-24 -70.5t-9.5 -110t9.5 -110t24 -70.5t32 -38t34.5 -11.5t34.5 11.5t32 38t24 70.5t9.5 110t-9.5 110t-24 70.5t-32 38t-34.5 11.5zM235 475q37 0 71.5 -16.5t61 -48t42 -77t15.5 -103.5t-15.5 -103.5t-42 -77t-61 -48
t-71.5 -16.5q-38 0 -72 16.5t-60.5 48t-42 77t-15.5 103.5t15.5 103.5t42 77t60.5 48t72 16.5zM260 516h-30l-100 120h90z" />
    <glyph glyph-name="otilde" unicode="&#xf5;" horiz-adv-x="470" 
d="M45 0zM235 460q-17 0 -34.5 -11.5t-32 -38t-24 -70.5t-9.5 -110t9.5 -110t24 -70.5t32 -38t34.5 -11.5t34.5 11.5t32 38t24 70.5t9.5 110t-9.5 110t-24 70.5t-32 38t-34.5 11.5zM235 475q37 0 71.5 -16.5t61 -48t42 -77t15.5 -103.5t-15.5 -103.5t-42 -77t-61 -48
t-71.5 -16.5q-38 0 -72 16.5t-60.5 48t-42 77t-15.5 103.5t15.5 103.5t42 77t60.5 48t72 16.5zM337 626q0 -53 -19.5 -76.5t-45.5 -23.5q-15 0 -27 8.5t-22.5 19t-20 19t-20.5 8.5q-15 0 -25 -11t-10 -34h-15q0 53 19.5 76.5t45.5 23.5q15 0 27 -8.5t22.5 -19t20 -19
t20.5 -8.5q15 0 25 11t10 34h15z" />
    <glyph glyph-name="ugrave" unicode="&#xf9;" 
d="M15 0zM410 435v-410l60 -15v-10h-140v60q-11 -21 -28 -38q-14 -14 -35.5 -25.5t-51.5 -11.5t-55.5 11t-44.5 30.5t-29.5 47t-10.5 61.5v300l-60 15v10h195v-10l-55 -15v-300q0 -71 22.5 -100.5t52.5 -29.5q24 0 42.5 14t31.5 31q15 19 26 45v340l-55 15v10h195v-10z
M277 516h-30l-100 120h90z" />
    <glyph glyph-name="ucircumflex" unicode="&#xfb;" 
d="M15 0zM410 435v-410l60 -15v-10h-140v60q-11 -21 -28 -38q-14 -14 -35.5 -25.5t-51.5 -11.5t-55.5 11t-44.5 30.5t-29.5 47t-10.5 61.5v300l-60 15v10h195v-10l-55 -15v-300q0 -71 22.5 -100.5t52.5 -29.5q24 0 42.5 14t31.5 31q15 19 26 45v340l-55 15v10h195v-10z
M160 526h-25l115 130l115 -130h-25l-90 60z" />
    <glyph glyph-name="dotlessi" unicode="&#x131;" horiz-adv-x="260" 
d="M95 25v410l-60 15v10h140v-435l60 -15v-10h-200v10z" />
    <glyph glyph-name="scedilla" unicode="&#x15f;" horiz-adv-x="405" 
d="M40 0zM215 -15q-32 0 -55 7.5t-37 17.5q-17 11 -28 25q-4 -15 -16.5 -28t-23.5 -17h-15q1 13 2 27q1 12 2 25.5t1 27.5q0 15 -1 30t-2 27l-2 28h15q19 -72 58 -111t92 -39q42 0 68.5 26t26.5 64q0 27 -18.5 47t-46.5 36.5t-60 32.5t-60 36t-46.5 47t-18.5 66q0 22 10 43
t27.5 37t42.5 25.5t55 9.5q26 0 45.5 -8t33.5 -17q15 -11 26 -25q4 15 16.5 28t23.5 17h15q-2 -13 -3 -27q-1 -12 -1.5 -26t-0.5 -27q0 -15 0.5 -30.5t1.5 -27.5q1 -14 3 -27h-15q-19 72 -56 111t-79 39q-34 0 -57 -22.5t-23 -52.5q0 -25 19 -43t47 -33.5t61.5 -31.5
t61.5 -37t47 -50t19 -70q0 -24 -11.5 -47.5t-32 -42t-49 -29.5t-62.5 -11zM177 0h25v-35q38 0 56.5 -17t18.5 -43t-20.5 -43t-69.5 -17q-10 0 -17 0.5t-12 1.5q-6 1 -11 3v21q4 -2 9 -3q9 -3 21 -3q23 0 34 12.5t11 27.5q0 19 -11 32t-34 13v50z" />
    <glyph glyph-name="ydieresis" unicode="&#xff;" horiz-adv-x="435" 
d="M0 0zM215 -85q-16 -47 -31 -78.5t-31.5 -51t-34 -27.5t-38.5 -8q-6 0 -11 0.5t-10 1.5t-9 3l-15 75q4 -2 9 -3t10 -1.5t11 -0.5q60 0 87.5 22.5t42.5 67.5l28 85l-173 435l-60 15v10h200v-10l-55 -15l127 -319l103 309l-65 25v10h150v-10l-65 -25zM205 580
q0 -19 -15.5 -34.5t-34.5 -15.5t-34.5 15.5t-15.5 34.5t15.5 34.5t34.5 15.5t34.5 -15.5t15.5 -34.5zM370 580q0 -19 -15.5 -34.5t-34.5 -15.5t-34.5 15.5t-15.5 34.5t15.5 34.5t34.5 15.5t34.5 -15.5t15.5 -34.5z" />
    <glyph glyph-name="oslash" unicode="&#xf8;" horiz-adv-x="470" 
d="M235 475q76 0 130 -62l40 47l25 -25l-44 -51q18 -30 28.5 -68.5t10.5 -85.5q0 -58 -15.5 -103.5t-42 -77t-61 -48t-71.5 -16.5t-71 15.5t-60 46.5l-39 -47l-25 25l43 51q-18 29 -28 67.5t-10 86.5q0 58 15.5 103.5t42 77t60.5 48t72 16.5zM235 460q-17 0 -34.5 -11.5
t-32 -38t-24 -70.5t-9.5 -110q0 -25 1.5 -46t3.5 -40l181 216q-14 56 -38.5 78t-47.5 22zM335 230q0 48 -6 86l-180 -216q14 -56 38.5 -78t47.5 -22q17 0 34.5 11.5t32 38t24 70.5t9.5 110z" />
    <glyph glyph-name="Oslash" unicode="&#xd8;" horiz-adv-x="550" 
d="M100 96q-27 45 -43.5 108t-16.5 146q0 92 20.5 160.5t54 114t75.5 68t85 22.5q40 0 79.5 -20t71.5 -59l39 64l30 -20l-46 -76q28 -45 44.5 -108.5t16.5 -145.5q0 -92 -20.5 -160.5t-54 -114t-75.5 -68t-85 -22.5q-41 0 -80.5 19.5t-71.5 59.5l-38 -64l-30 20zM415 350
q0 54 -3.5 97t-10.5 78l-241 -400q10 -35 23.5 -59t28.5 -38.5t31 -21t32 -6.5q24 0 49 16t45.5 56t33 107.5t12.5 170.5zM135 350q0 -54 3.5 -97t9.5 -78l241 400q-20 70 -51.5 97.5t-62.5 27.5q-24 0 -49 -16t-45.5 -56t-33 -107.5t-12.5 -170.5z" />
    <glyph glyph-name="Umacron" unicode="&#x16a;" horiz-adv-x="570" 
d="M30 0zM485 200q0 -113 -46.5 -164t-133.5 -51q-102 0 -158.5 56.5t-56.5 158.5v475l-60 15v10h205v-10l-60 -15v-475q0 -101 40 -148t100 -47q34 0 61.5 11.5t47 35.5t30.5 60.5t11 87.5v465l-65 25v10h150v-10l-65 -25v-465zM420 825v-40h-230v40h230z" />
    <glyph glyph-name="Uogonek" unicode="&#x172;" horiz-adv-x="570" 
d="M30 0zM485 200q0 -113 -46.5 -164t-133.5 -51q-102 0 -158.5 56.5t-56.5 158.5v475l-60 15v10h205v-10l-60 -15v-475q0 -101 40 -148t100 -47q34 0 61.5 11.5t47 35.5t30.5 60.5t11 87.5v465l-65 25v10h150v-10l-65 -25v-465zM235 -85q0 20 16 36t36 27q23 12 53 22h40
q-26 -12 -45 -26q-17 -12 -31 -27t-14 -32q0 -15 10.5 -25t29.5 -10q9 0 17.5 3.5t14.5 8.5q7 5 13 13v-25q-6 -6 -16 -10q-8 -4 -20 -7t-29 -3q-38 0 -56.5 16t-18.5 39z" />
    <glyph glyph-name="Omacron" unicode="&#x14c;" horiz-adv-x="550" 
d="M40 0zM510 350q0 -92 -20.5 -160.5t-54 -114t-75.5 -68t-85 -22.5t-85 22.5t-75.5 68t-54 114t-20.5 160.5t20.5 160.5t54 114t75.5 68t85 22.5t85 -22.5t75.5 -68t54 -114t20.5 -160.5zM415 350q0 103 -12.5 170.5t-33 107.5t-45.5 56t-49 16t-49 -16t-45.5 -56
t-33 -107.5t-12.5 -170.5t12.5 -170.5t33 -107.5t45.5 -56t49 -16t49 16t45.5 56t33 107.5t12.5 170.5zM390 815v-40h-230v40h230z" />
    <glyph glyph-name="Ncommaaccent" unicode="&#x145;" horiz-adv-x="585" 
d="M40 0zM460 665l-65 25v10h150v-10l-65 -25v-675h-15l-340 625v-580l65 -25v-10h-150v10l65 25v635l-65 20v10h135l285 -525v490zM292 -29q23 0 36.5 -17t13.5 -43q0 -40 -12 -65t-26 -39q-17 -17 -37 -26l-10 15q15 8 27 19q11 9 19.5 20.5t8.5 25.5q0 4 -1 7.5t-2 6.5
q-1 4 -2 6q-3 -2 -7 -3q-8 -2 -13 -2q-19 0 -32 13t-13 32q0 23 13.5 36.5t36.5 13.5z" />
    <glyph glyph-name="Rcommaaccent" unicode="&#x156;" horiz-adv-x="550" 
d="M45 0zM230 700q64 0 111 -14t78 -38t46 -55.5t15 -67.5q0 -29 -8.5 -51.5t-22 -40t-31.5 -29.5t-36 -20q-43 -19 -97 -24q44 -5 80 -21q31 -14 58 -41t32 -73l20 -175q2 -19 9 -27t16 -8q5 0 10.5 3.5t10.5 8.5t9 13l10 -10q-6 -13 -17 -23q-9 -8 -23.5 -15t-34.5 -7
q-34 0 -55.5 19.5t-24.5 45.5l-20 175q-4 34 -13 57.5t-24.5 38.5t-39.5 22t-58 7h-40v-325l60 -15v-10h-205v10l60 15v650l-60 15v10h185zM385 525q0 75 -40 115t-115 40h-40v-310h40q75 0 115 40t40 115zM305 -39q23 0 36.5 -17t13.5 -43q0 -40 -12 -65t-26 -39
q-17 -17 -37 -26l-10 15q15 8 27 19q11 9 19.5 20.5t8.5 25.5q0 4 -1 7.5t-2 6.5q-1 4 -2 6q-3 -2 -7 -3q-8 -2 -13 -2q-19 0 -32 13t-13 32q0 23 13.5 36.5t36.5 13.5z" />
    <glyph glyph-name="rcommaaccent" unicode="&#x157;" horiz-adv-x="360" 
d="M35 0zM175 25l60 -15v-10h-200v10l60 15v410l-60 15v10h140v-120q13 37 31 67q16 26 39 47t55 21q11 0 21 -1.5t18 -3.5q9 -3 16 -5l-30 -75q-6 3 -13 7q-6 3 -14.5 5.5t-17.5 2.5q-26 0 -46 -14t-33 -31q-16 -20 -26 -45v-290zM135 -49q23 0 36.5 -17t13.5 -43
q0 -40 -12 -65t-26 -39q-17 -17 -37 -26l-10 15q15 8 27 19q11 9 19.5 20.5t8.5 25.5q0 4 -1 7.5t-2 6.5q-1 4 -2 6q-3 -2 -7 -3q-8 -2 -13 -2q-19 0 -32 13t-13 32q0 23 13.5 36.5t36.5 13.5z" />
    <glyph glyph-name="Iogonek" unicode="&#x12e;" horiz-adv-x="295" 
d="M45 0zM190 25l60 -15v-10h-205v10l60 15v650l-60 15v10h205v-10l-60 -15v-650zM75 -85q0 20 16 36t36 27q23 12 53 22h40q-26 -12 -45 -26q-17 -12 -31 -27t-14 -32q0 -15 10.5 -25t29.5 -10q9 0 17.5 3.5t14.5 8.5q7 5 13 13v-25q-6 -6 -16 -10q-8 -4 -20 -7t-29 -3
q-38 0 -56.5 16t-18.5 39z" />
    <glyph glyph-name="Amacron" unicode="&#x100;" horiz-adv-x="520" 
d="M0 0zM335 205h-205l-50 -170l65 -25v-10h-150v10l65 25l195 680h15l210 -690l60 -15v-10h-210v10l60 15zM135 224h194l-100 331zM377 815v-40h-230v40h230z" />
    <glyph glyph-name="Emacron" unicode="&#x112;" 
d="M45 0zM390 20q0 42 17 78t43 62h10q-2 -13 -3 -27q-1 -12 -1.5 -26t-0.5 -27q0 -19 0.5 -33.5t1.5 -25.5q1 -12 3 -21h-415v10l60 15v650l-60 15v10h405q-2 -9 -3 -21q-1 -11 -1.5 -25.5t-0.5 -33.5q0 -14 0.5 -27.5t1.5 -25.5q1 -14 3 -27h-10q-26 26 -43 62t-17 78
h-190v-300h95l45 90h10v-200h-10l-45 90h-95v-340h200zM387 825v-40h-230v40h230z" />
    <glyph glyph-name="Edotaccent" unicode="&#x116;" 
d="M45 0zM390 20q0 42 17 78t43 62h10q-2 -13 -3 -27q-1 -12 -1.5 -26t-0.5 -27q0 -19 0.5 -33.5t1.5 -25.5q1 -12 3 -21h-415v10l60 15v650l-60 15v10h405q-2 -9 -3 -21q-1 -11 -1.5 -25.5t-0.5 -33.5q0 -14 0.5 -27.5t1.5 -25.5q1 -14 3 -27h-10q-26 26 -43 62t-17 78
h-190v-300h95l45 90h10v-200h-10l-45 90h-95v-340h200zM332 805q0 -19 -15.5 -34.5t-34.5 -15.5t-34.5 15.5t-15.5 34.5t15.5 34.5t34.5 15.5t34.5 -15.5t15.5 -34.5z" />
    <glyph glyph-name="Gcommaaccent" unicode="&#x122;" horiz-adv-x="525" 
d="M45 0zM395 320h-100v20h185v-75q0 -68 -17.5 -120t-46 -87.5t-65.5 -54t-76 -18.5q-41 0 -82 22.5t-74 68t-53.5 114t-20.5 160.5t20.5 160.5t54 114t75.5 68t85 22.5q24 0 43.5 -8t33.5 -17q16 -11 28 -25q8 15 21.5 28t28.5 17h15q-2 -15 -3 -30q-1 -14 -1.5 -29.5
t-0.5 -30.5q0 -17 0.5 -33.5t1.5 -30.5q1 -16 3 -31h-15q-23 83 -61.5 126.5t-83.5 43.5q-28 0 -55 -16t-48 -55.5t-34 -106t-13 -167.5q0 -103 12.5 -170.5t32.5 -107.5t43.5 -56t46.5 -16q22 0 44 12.5t38.5 43t27 81.5t10.5 128v55zM282 -69q23 0 36.5 -17t13.5 -43
q0 -40 -12 -65t-26 -39q-17 -17 -37 -26l-10 15q15 8 27 19q11 9 19.5 20.5t8.5 25.5q0 4 -1 7.5t-2 6.5q-1 4 -2 6q-3 -2 -7 -3q-8 -2 -13 -2q-19 0 -32 13t-13 32q0 23 13.5 36.5t36.5 13.5z" />
    <glyph glyph-name="Kcommaaccent" unicode="&#x136;" horiz-adv-x="540" 
d="M45 0zM190 260v-235l60 -15v-10h-205v10l60 15v650l-60 15v10h205v-10l-60 -15v-380l215 370l-65 25v10h150v-10l-65 -25l-126 -217l201 -423l60 -15v-10h-215v10l60 15l-158 333zM290 -39q23 0 36.5 -17t13.5 -43q0 -40 -12 -65t-26 -39q-17 -17 -37 -26l-10 15
q15 8 27 19q11 9 19.5 20.5t8.5 25.5q0 4 -1 7.5t-2 6.5q-1 4 -2 6q-3 -2 -7 -3q-8 -2 -13 -2q-19 0 -32 13t-13 32q0 23 13.5 36.5t36.5 13.5z" />
    <glyph glyph-name="Imacron" unicode="&#x12a;" horiz-adv-x="295" 
d="M32 0zM190 25l60 -15v-10h-205v10l60 15v650l-60 15v10h205v-10l-60 -15v-650zM262 825v-40h-230v40h230z" />
    <glyph glyph-name="Lcommaaccent" unicode="&#x13b;" horiz-adv-x="470" 
d="M45 0zM190 20h180q0 42 17 78t43 62h10q-2 -13 -3 -27q-1 -12 -1.5 -26t-0.5 -27q0 -19 0.5 -33.5t1.5 -25.5q1 -12 3 -21h-395v10l60 15v650l-60 15v10h205v-10l-60 -15v-655zM265 -59q23 0 36.5 -17t13.5 -43q0 -40 -12 -65t-26 -39q-17 -17 -37 -26l-10 15q15 8 27 19
q11 9 19.5 20.5t8.5 25.5q0 4 -1 7.5t-2 6.5q-1 4 -2 6q-3 -2 -7 -3q-8 -2 -13 -2q-19 0 -32 13t-13 32q0 23 13.5 36.5t36.5 13.5z" />
    <glyph glyph-name="iogonek" unicode="&#x12f;" horiz-adv-x="260" 
d="M35 0zM95 25v410l-60 15v10h140v-435l60 -15v-10h-200v10zM180 575q0 -19 -15.5 -34.5t-34.5 -15.5t-34.5 15.5t-15.5 34.5t15.5 34.5t34.5 15.5t34.5 -15.5t15.5 -34.5zM47 -85q0 20 16 36t36 27q23 12 53 22h40q-26 -12 -45 -26q-17 -12 -31 -27t-14 -32
q0 -15 10.5 -25t29.5 -10q9 0 17.5 3.5t14.5 8.5q7 5 13 13v-25q-6 -6 -16 -10q-8 -4 -20 -7t-29 -3q-38 0 -56.5 16t-18.5 39z" />
    <glyph glyph-name="amacron" unicode="&#x101;" horiz-adv-x="465" 
d="M40 0zM300 245q-87 0 -128.5 -38.5t-41.5 -106.5q0 -45 22 -70t48 -25q24 0 42.5 14t31.5 31q15 19 26 45v150zM225 460q-30 0 -50 -20.5t-20 -54.5q0 -8 0.5 -14t1.5 -11t3 -10l-80 -20q-2 3 -3 8t-1.5 11t-0.5 16q0 21 10 40.5t29.5 35t47 25t63.5 9.5q72 0 113.5 -41
t41.5 -109v-300l60 -15v-10h-140v60q-11 -21 -28 -38q-14 -14 -35.5 -25.5t-51.5 -11.5q-72 0 -108.5 34t-36.5 91q0 28 15.5 56t47 50t80.5 35.5t117 13.5v60q0 75 -22.5 105t-52.5 30zM350 581v-40h-230v40h230z" />
    <glyph glyph-name="emacron" unicode="&#x113;" horiz-adv-x="445" 
d="M45 0zM135 230q0 -64 9.5 -107t25 -69.5t35 -37.5t40.5 -11q26 0 49 10t41 27t29.5 41t15.5 52h15q-4 -32 -17.5 -59.5t-34.5 -47.5t-48.5 -31.5t-59.5 -11.5q-38 0 -72 16.5t-60.5 48t-42 77t-15.5 103.5q0 60 15 106t39.5 76.5t57 46.5t68.5 16t68.5 -16t57 -46.5
t39.5 -76.5t15 -106h-270zM225 460q-15 0 -30 -9.5t-28 -33.5t-21.5 -64.5t-10.5 -102.5h180q-2 62 -10.5 102.5t-21.5 64.5t-28 33.5t-30 9.5zM347 581v-40h-230v40h230z" />
    <glyph glyph-name="edotaccent" unicode="&#x117;" horiz-adv-x="445" 
d="M45 0zM135 230q0 -64 9.5 -107t25 -69.5t35 -37.5t40.5 -11q26 0 49 10t41 27t29.5 41t15.5 52h15q-4 -32 -17.5 -59.5t-34.5 -47.5t-48.5 -31.5t-59.5 -11.5q-38 0 -72 16.5t-60.5 48t-42 77t-15.5 103.5q0 60 15 106t39.5 76.5t57 46.5t68.5 16t68.5 -16t57 -46.5
t39.5 -76.5t15 -106h-270zM225 460q-15 0 -30 -9.5t-28 -33.5t-21.5 -64.5t-10.5 -102.5h180q-2 62 -10.5 102.5t-21.5 64.5t-28 33.5t-30 9.5zM282 581q0 -19 -15.5 -34.5t-34.5 -15.5t-34.5 15.5t-15.5 34.5t15.5 34.5t34.5 15.5t34.5 -15.5t15.5 -34.5z" />
    <glyph glyph-name="gcommaaccent" unicode="&#x123;" horiz-adv-x="485" 
d="M20 0zM220 150q17 0 33 8.5t29 27.5t20.5 48.5t7.5 70.5t-7.5 70.5t-20.5 48t-29 27.5t-33 9t-33 -9t-29 -27.5t-20.5 -48t-7.5 -70.5t7.5 -70.5t20.5 -48.5t29 -27.5t33 -8.5zM240 -236q37 0 67 10.5t50.5 28.5t31.5 42t11 50q0 95 -95 95h-160q-57 0 -83.5 23t-26.5 57
q0 23 11.5 40.5t25.5 31.5q17 15 38 28q-20 13 -35 32q-14 17 -24.5 42t-10.5 61t13.5 67t37.5 54t57 36t72 13q17 0 33 -3t29 -7q15 -4 28 -10q8 11 19 20q10 8 25 14t36 6q34 0 53.5 -12.5t30.5 -27.5q12 -18 16 -40l-75 -15q-3 20 -9 37q-5 14 -14 26t-22 12
q-11 0 -20 -5t-14 -10q-7 -7 -11 -15q38 -23 56.5 -59t18.5 -81q0 -36 -13.5 -67t-37.5 -54t-57 -36t-72 -13q-21 0 -38 3.5t-30 8.5q-15 5 -27 13q-14 -9 -25 -19q-10 -8 -17.5 -19t-7.5 -22q0 -15 14 -24.5t56 -9.5h160q60 0 97.5 -38.5t37.5 -102.5q0 -38 -14.5 -70.5
t-40.5 -57t-63 -38.5t-82 -14q-56 0 -97.5 12.5t-68.5 34t-40.5 50.5t-13.5 63q0 13 3 23.5t7 17.5q4 8 10 14l75 -30q-3 -7 -5 -15q-5 -15 -5 -30q0 -53 35.5 -87t99.5 -34zM220.004 540.024q-22.999 0 -36.498 16.999t-13.499 42.9971q0 39.998 11.999 64.9961
q11.999 24.999 25.998 38.998q16.999 16.999 36.998 25.998l10 -14.999q-15 -7.99902 -26.999 -18.999q-10.999 -8.99902 -19.499 -20.498q-8.49902 -11.5 -8.49902 -25.499q0 -4 1 -7.49902q1 -3.5 2 -6.5q1 -4 2 -6q2.99902 2 6.99902 3q8 2 12.999 2
q18.999 0 31.998 -12.999q13 -12.999 13 -31.998q0 -22.999 -13.5 -36.498q-13.499 -13.499 -36.4971 -13.499z" />
    <glyph glyph-name="kcommaaccent" unicode="&#x137;" horiz-adv-x="460" 
d="M30 0zM170 163v-138l55 -15v-10h-195v10l60 15v650l-60 15v10h140v-510l165 235l-65 25v10h150v-10l-65 -25l-97 -138l157 -262l60 -15v-10h-205v10l55 15l-116 193zM247 -49q23 0 36.5 -17t13.5 -43q0 -40 -12 -65t-26 -39q-17 -17 -37 -26l-10 15q15 8 27 19
q11 9 19.5 20.5t8.5 25.5q0 4 -1 7.5t-2 6.5q-1 4 -2 6q-3 -2 -7 -3q-8 -2 -13 -2q-19 0 -32 13t-13 32q0 23 13.5 36.5t36.5 13.5z" />
    <glyph glyph-name="imacron" unicode="&#x12b;" horiz-adv-x="260" 
d="M15 0zM95 25v410l-60 15v10h140v-435l60 -15v-10h-200v10zM245 591v-40h-230v40h230z" />
    <glyph glyph-name="lcommaaccent" unicode="&#x13c;" horiz-adv-x="255" 
d="M30 0zM90 25v650l-60 15v10h140v-675l60 -15v-10h-200v10zM135 -59q23 0 36.5 -17t13.5 -43q0 -40 -12 -65t-26 -39q-17 -17 -37 -26l-10 15q15 8 27 19q11 9 19.5 20.5t8.5 25.5q0 4 -1 7.5t-2 6.5q-1 4 -2 6q-3 -2 -7 -3q-8 -2 -13 -2q-19 0 -32 13t-13 32
q0 23 13.5 36.5t36.5 13.5z" />
    <glyph glyph-name="ncommaaccent" unicode="&#x146;" horiz-adv-x="515" 
d="M35 0zM95 25v410l-60 15v10h140v-60q10 20 27 37q14 14 36 26t52 12t55.5 -11t44.5 -30.5t29.5 -47t10.5 -61.5v-300l60 -15v-10h-195v10l55 15v300q0 71 -22.5 100.5t-52.5 29.5q-25 0 -43 -14t-31 -31q-15 -20 -26 -45v-340l55 -15v-10h-195v10zM265 -54q23 0 36.5 -17
t13.5 -43q0 -40 -12 -65t-26 -39q-17 -17 -37 -26l-10 15q15 8 27 19q11 9 19.5 20.5t8.5 25.5q0 4 -1 7.5t-2 6.5q-1 4 -2 6q-3 -2 -7 -3q-8 -2 -13 -2q-19 0 -32 13t-13 32q0 23 13.5 36.5t36.5 13.5z" />
    <glyph glyph-name="omacron" unicode="&#x14d;" horiz-adv-x="470" 
d="M45 0zM235 460q-17 0 -34.5 -11.5t-32 -38t-24 -70.5t-9.5 -110t9.5 -110t24 -70.5t32 -38t34.5 -11.5t34.5 11.5t32 38t24 70.5t9.5 110t-9.5 110t-24 70.5t-32 38t-34.5 11.5zM235 475q37 0 71.5 -16.5t61 -48t42 -77t15.5 -103.5t-15.5 -103.5t-42 -77t-61 -48
t-71.5 -16.5q-38 0 -72 16.5t-60.5 48t-42 77t-15.5 103.5t15.5 103.5t42 77t60.5 48t72 16.5zM360 591v-40h-230v40h230z" />
    <glyph glyph-name="uogonek" unicode="&#x173;" 
d="M15 0zM410 435v-410l60 -15v-10h-140v60q-11 -21 -28 -38q-14 -14 -35.5 -25.5t-51.5 -11.5t-55.5 11t-44.5 30.5t-29.5 47t-10.5 61.5v300l-60 15v10h195v-10l-55 -15v-300q0 -71 22.5 -100.5t52.5 -29.5q24 0 42.5 14t31.5 31q15 19 26 45v340l-55 15v10h195v-10z
M325 -85q0 20 16 36t36 27q23 12 53 22h40q-26 -12 -45 -26q-17 -12 -31 -27t-14 -32q0 -15 10.5 -25t29.5 -10q9 0 17.5 3.5t14.5 8.5q7 5 13 13v-25q-6 -6 -16 -10q-8 -4 -20 -7t-29 -3q-38 0 -56.5 16t-18.5 39z" />
    <glyph glyph-name="umacron" unicode="&#x16b;" 
d="M15 0zM410 435v-410l60 -15v-10h-140v60q-11 -21 -28 -38q-14 -14 -35.5 -25.5t-51.5 -11.5t-55.5 11t-44.5 30.5t-29.5 47t-10.5 61.5v300l-60 15v10h195v-10l-55 -15v-300q0 -71 22.5 -100.5t52.5 -29.5q24 0 42.5 14t31.5 31q15 19 26 45v340l-55 15v10h195v-10z
M367 581v-40h-230v40h230z" />
    <glyph glyph-name="Eth" unicode="&#xd0;" horiz-adv-x="560" 
d="M220 700q66 0 121.5 -24t96.5 -69t64 -110t23 -147q0 -83 -23 -148t-64 -110t-96.5 -68.5t-121.5 -23.5h-175v10l60 15v315h-60v20h60v315l-60 15v10h175zM190 20h30q43 0 81.5 18.5t67 58.5t45 102.5t16.5 150.5t-16.5 150.5t-45 102.5t-67 58.5t-81.5 18.5h-30v-320
h140v-20h-140v-320z" />
    <glyph glyph-name="thorn" unicode="&#xfe;" horiz-adv-x="500" 
d="M85 675l-60 15v10h140v-300q10 20 27 37q14 14 36 26t52 12q32 0 63.5 -16.5t56 -48t40 -77t15.5 -103.5t-15.5 -103.5t-41.5 -77t-59 -48t-69 -16.5q-29 0 -48.5 7.5t-32.5 17.5q-15 11 -24 25v-250l60 -15v-10h-200v10l60 15v890zM255 5q21 0 40.5 11t35 37.5t25 69.5
t9.5 107t-9.5 107t-24 69t-32 37.5t-34.5 11.5q-25 0 -43 -14t-31 -31q-15 -20 -26 -45v-300q9 -17 22 -30q11 -11 28 -20.5t40 -9.5z" />
    <glyph glyph-name="Thorn" unicode="&#xde;" horiz-adv-x="574" 
d="M220 640q71 0 130 -22.5t101 -61t65.5 -89.5t23.5 -107t-23.5 -107t-65.5 -89.5t-101 -61t-130 -22.5h-30v-55l60 -15v-10h-205v10l60 15v650l-60 15v10h205v-10l-60 -15v-35h30zM190 100h30q51 0 92.5 16.5t71 49.5t45.5 81.5t16 112.5t-16 112.5t-45.5 81.5t-71 49.5
t-92.5 16.5h-30v-520z" />
    <glyph glyph-name="ae" unicode="&#xe6;" horiz-adv-x="695" 
d="M385 230q0 -64 9.5 -107t25 -69.5t35 -37.5t40.5 -11q26 0 49 10t41 27t29.5 41t15.5 52h15q-4 -32 -17.5 -59.5t-34.5 -47.5t-48.5 -31.5t-59.5 -11.5q-42 0 -68.5 14t-42.5 31q-18 19 -29 45q-13 -26 -35 -45q-19 -17 -49.5 -31t-75.5 -14q-72 0 -108.5 34t-36.5 91
q0 28 14.5 54t46 46.5t81 32.5t118.5 12v70q0 75 -22.5 105t-52.5 30t-50 -20.5t-20 -54.5q0 -8 0.5 -14t1.5 -11t3 -10l-80 -20q-2 3 -3 8t-1.5 11t-0.5 16q0 21 10 40.5t29.5 35t47 25t63.5 9.5q38 0 62.5 -14t39.5 -31q18 -20 28 -45q9 25 26 45q14 17 37 31t57 14
q36 0 68.5 -16t57 -46.5t39.5 -76.5t15 -106h-270zM300 235q-87 0 -128.5 -35.5t-41.5 -99.5q0 -45 22 -70t48 -25q19 0 37 9.5t32 27.5t22.5 45t8.5 63v85zM475 460q-15 0 -30 -9.5t-28 -33.5t-21.5 -64.5t-10.5 -102.5h180q-2 62 -10.5 102.5t-21.5 64.5t-28 33.5t-30 9.5
z" />
    <glyph glyph-name="oe" unicode="&#x153;" horiz-adv-x="735" 
d="M235 475q39 0 67 -15t45 -33q20 -21 33 -47q13 26 32 47q17 18 42 33t61 15t68.5 -16t57 -46.5t39.5 -76.5t15 -106h-270q0 -64 9.5 -107t25 -69.5t35 -37.5t40.5 -11q26 0 49 10t41 27t29.5 41t15.5 52h15q-4 -32 -17.5 -59.5t-34.5 -47.5t-48.5 -31.5t-59.5 -11.5
q-40 0 -67.5 14.5t-44.5 32.5q-20 21 -33 48q-13 -27 -33 -48q-17 -18 -45 -32.5t-67 -14.5q-38 0 -72 16.5t-60.5 48t-42 77t-15.5 103.5t15.5 103.5t42 77t60.5 48t72 16.5zM235 460q-17 0 -34.5 -11.5t-32 -38t-24 -70.5t-9.5 -110t9.5 -110t24 -70.5t32 -38t34.5 -11.5
t34.5 11.5t32 38t24 70.5t9.5 110t-9.5 110t-24 70.5t-32 38t-34.5 11.5zM515 460q-15 0 -30 -9.5t-28 -33.5t-21.5 -64.5t-10.5 -102.5h180q-2 62 -10.5 102.5t-21.5 64.5t-28 33.5t-30 9.5z" />
    <glyph glyph-name="AE" unicode="&#xc6;" horiz-adv-x="765" 
d="M710 700q-2 -9 -3 -21q-1 -11 -1.5 -25.5t-0.5 -33.5q0 -14 0.5 -27.5t1.5 -25.5q1 -14 3 -27h-10q-26 26 -43 62t-17 78h-190v-300h95l45 90h10v-200h-10l-45 90h-95v-340h200q0 42 17 78t43 62h10q-2 -13 -3 -27q-1 -12 -1.5 -26t-0.5 -27q0 -19 0.5 -33.5t1.5 -25.5
q1 -12 3 -21h-415v10l60 15v225h-210l-100 -215l65 -25v-10h-150v10l65 25l310 665h365zM356 680l-192 -410h201v410h-9z" />
    <glyph glyph-name="OE" unicode="&#x152;" horiz-adv-x="765" 
d="M710 700q-2 -9 -3 -21q-1 -11 -1.5 -25.5t-0.5 -33.5q0 -14 0.5 -27.5t1.5 -25.5q1 -14 3 -27h-10q-26 26 -43 62t-17 78h-190v-300h95l45 90h10v-200h-10l-45 90h-95v-340h200q0 42 17 78t43 62h10q-2 -13 -3 -27q-1 -12 -1.5 -26t-0.5 -27q0 -19 0.5 -33.5t1.5 -25.5
q1 -12 3 -21h-380q-66 0 -121.5 23.5t-96.5 68.5t-64 110t-23 148q0 82 23 147t64 110t96.5 69t121.5 24h370zM340 680q-43 0 -81.5 -18.5t-67 -58.5t-45 -102.5t-16.5 -150.5t16.5 -150.5t45 -102.5t67 -58.5t81.5 -18.5h25v660h-25z" />
    <glyph glyph-name="hbar" unicode="&#x127;" horiz-adv-x="515" 
d="M175 360q10 20 27 37q14 14 36 26t52 12t55.5 -11t44.5 -30.5t29.5 -47t10.5 -61.5v-260l60 -15v-10h-195v10l55 15v260q0 71 -22.5 100.5t-52.5 29.5q-25 0 -43 -14t-31 -31q-15 -20 -26 -45v-300l55 -15v-10h-195v10l60 15v505l-60 15v15h60v115l-60 15v10h140v-140
h140v-15l-140 -15v-170z" />
    <glyph glyph-name="Itilde" unicode="&#x128;" horiz-adv-x="295" 
d="M45 0zM190 25l60 -15v-10h-205v10l60 15v650l-60 15v10h205v-10l-60 -15v-650zM250 860q0 -53 -19.5 -76.5t-45.5 -23.5q-15 0 -27 8.5t-22.5 19t-20 19t-20.5 8.5q-15 0 -25 -11t-10 -34h-15q0 53 19.5 76.5t45.5 23.5q15 0 27 -8.5t22.5 -19t20 -19t20.5 -8.5
q15 0 25 11t10 34h15z" />
    <glyph glyph-name="itilde" unicode="&#x129;" horiz-adv-x="260" 
d="M22 0zM95 25v410l-60 15v10h140v-435l60 -15v-10h-200v10zM227 625q0 -53 -19.5 -76.5t-45.5 -23.5q-15 0 -27 8.5t-22.5 19t-20 19t-20.5 8.5q-15 0 -25 -11t-10 -34h-15q0 53 19.5 76.5t45.5 23.5q15 0 27 -8.5t22.5 -19t20 -19t20.5 -8.5q15 0 25 11t10 34h15z" />
    <glyph glyph-name="ij" unicode="&#x133;" horiz-adv-x="490" 
d="M170 -150q0 17 5 30.5t12 23.5q8 11 18 21l74 -30l-5.5 -6t-12 -15.5t-11.5 -23.5t-5 -30q0 -26 13 -40.5t32 -14.5q9 0 18 5.5t16 19t11.5 36.5t4.5 59v555h-165v-415l60 -15v-10h-200v10l60 15v410l-60 15v10h385v-575q0 -30 -10 -55t-27 -42.5t-41 -27.5t-52 -10
q-26 0 -48 8.5t-38 22.5t-25 32t-9 37zM425 575q0 -19 -15.5 -34.5t-34.5 -15.5t-34.5 15.5t-15.5 34.5t15.5 34.5t34.5 15.5t34.5 -15.5t15.5 -34.5zM180 575q0 -19 -15.5 -34.5t-34.5 -15.5t-34.5 15.5t-15.5 34.5t15.5 34.5t34.5 15.5t34.5 -15.5t15.5 -34.5z" />
    <glyph glyph-name="Jcircumflex" unicode="&#x134;" horiz-adv-x="490" 
d="M15 0zM400 190q0 -47 -14.5 -85t-41 -64.5t-64.5 -41t-85 -14.5q-38 0 -70.5 14t-57 37t-38.5 52.5t-14 61.5q0 57 23.5 85t56.5 35l70 -60q-100 -15 -100 -105q0 -19 9 -37t26 -32t41 -22.5t54 -8.5q24 0 46 10.5t38.5 33t26 57.5t9.5 84v485l-60 15v10h205v-10l-60 -15
v-485zM265 755h-25l115 130l115 -130h-25l-90 60z" />
    <glyph glyph-name="jcircumflex" unicode="&#x135;" horiz-adv-x="260" 
d="M-60 -150q0 17 5 30.5t12 23.5q8 11 18 21l75 -30q-10 -10 -18 -21q-7 -10 -12 -23.5t-5 -30.5q0 -26 13 -40.5t32 -14.5q9 0 18 5.5t16 19t11.5 36.5t4.5 59v550l-60 15v10h140v-575q0 -30 -10 -55t-27 -42.5t-41 -27.5t-52 -10q-26 0 -48 8.5t-38 22.5t-25 32t-9 37z
M50 520h-25l115 130l115 -130h-25l-90 60z" />
    <glyph glyph-name="kcedilla" horiz-adv-x="465" 
d="M35 0zM175 163v-138l55 -15v-10h-195v10l60 15v650l-60 15v10h140v-510l165 235l-65 25v10h150v-10l-65 -25l-97 -138l157 -262l60 -15v-10h-205v10l55 15l-116 193zM205 0h25v-35q38 0 56.5 -17t18.5 -43t-20.5 -43t-69.5 -17q-10 0 -17 0.5t-12 1.5q-6 1 -11 3v21
q4 -2 9 -3q9 -3 21 -3q23 0 34 12.5t11 27.5q0 19 -11 32t-34 13v50z" />
    <glyph glyph-name="kgreenlandic" unicode="&#x138;" horiz-adv-x="470" 
d="M219 221l-44 -76v-120l55 -15v-10h-195v10l60 15v410l-60 15v10h205v-10l-65 -15v-255l90 160q23 41 39 66.5t28.5 39.5t23.5 19t24 5q5 0 10 -1t8 -2q4 -1 7 -2l15 -70l-12 2q-5 1 -11.5 2t-11.5 1q-41 0 -62 -15t-38 -45l-25 -44l165 -271l60 -15v-10h-202v10l55 15z
" />
    <glyph glyph-name="ldot" unicode="&#x140;" horiz-adv-x="365" 
d="M30 0zM90 25v650l-60 15v10h140v-675l60 -15v-10h-200v10zM235 350q0 23 16 39t39 16t39 -16t16 -39t-16 -39t-39 -16t-39 16t-16 39z" />
    <glyph glyph-name="nonbreakingspace" unicode="&#xa0;" horiz-adv-x="240" 
 />
    <glyph glyph-name="foundryicon" horiz-adv-x="800" 
d="M289 12v24l186 186h24zM289 60v24l138 138h24zM289 108v24l91 90h23zM289 156v24l43 42h24zM289 204v18h19zM511 210v-24l-186 -186h-24zM511 162v-24l-138 -138h-24zM511 114v-24l-90 -90h-24zM511 66v-24l-42 -42h-24zM511 18v-18h-18zM50 700h222v-222h-222v222z
M289 700h222v-222h-222v222zM528 700h222v-222h-222v222zM528 461h222v-222h-222v222zM528 222h222v-222h-222v222zM50 461h222v-222h-222v222zM50 222h222v-222h-222v222z" />
    <glyph glyph-name="currency" unicode="&#xa4;" 
d="M50 220h55v50h-55v20h55v385l-60 15v10h180q62 0 110.5 -16.5t81.5 -46t50.5 -68.5t17.5 -84t-17.5 -84t-50.5 -68.5t-81.5 -46t-110.5 -16.5h-35v-50h220v-20h-220v-175l60 -15v-10h-205v10l60 15v175h-55v20zM190 290h35q79 0 122 46.5t43 148.5t-43 148.5t-122 46.5
h-35v-390z" />
    <glyph glyph-name="apple" horiz-adv-x="1345" 
d="M50 270l165 165v-165h-165zM415 350q0 -17 -7 -32.5t-18.5 -27t-27 -18.5t-32.5 -7t-32.5 7t-27 18.5t-18.5 27t-7 32.5t7 32.5t18.5 27t27 18.5t32.5 7t32.5 -7t27 -18.5t18.5 -27t7 -32.5zM595 430l-90 -165l-90 165h180zM745 410l140 -140h-140v140zM550 270l90 165
l90 -165h-180zM905 290l-140 140h140v-140zM941 410l140 -140h-140v140zM1101 290l-140 140h140v-140zM1295 430l-90 -165l-90 165h180z" />
    <glyph glyph-name=".ttfautohint" horiz-adv-x="1345" 
d="M0 0z" />
    </font>
</defs>
</svg>
